<svg width="807" height="801" viewBox="0 0 807 801" fill="none" xmlns="http://www.w3.org/2000/svg">
<g clip-path="url(#clip0_396_186)">
<path opacity="0.1" d="M208.961 764.954C209.055 765.048 209.16 765.142 209.254 765.236H208.815C208.867 765.142 208.909 765.048 208.961 764.954Z" fill="#FED217"/>
<path opacity="0.1" d="M714.041 542.565C714.168 623.166 687.434 701.513 638.062 765.236H381.864C406.974 740.668 422.695 705.501 422.695 666.462C422.695 602.729 380.807 549.345 324.568 535.45L374.767 382.276L299.73 327.229L209.746 420.007C181.909 408.934 151.2 407.325 122.357 415.427C93.514 423.53 68.1392 440.895 50.1469 464.843C36.4514 451.306 18.9623 442.253 0 438.883C44.6727 288.148 184.259 178.191 349.521 178.191C550.841 178.191 714.041 341.323 714.041 542.565Z" fill="#FED217"/>
<path d="M559.085 408.647C559.085 408.647 544.337 395.887 542.297 368.651C540.718 347.563 559.085 362.388 559.085 362.388C559.085 362.388 558.095 347.192 568.968 349.421C579.841 351.651 584.931 367.885 584.931 367.885" fill="#0C0C0C"/>
<path d="M625.59 354.985C625.59 354.985 679.664 364.471 655.029 436.932H640.365" fill="#0C0C0C"/>
<path d="M564.689 512.264C564.929 512.233 567.593 556.409 618.93 552.559C654.471 549.897 667.143 512.202 667.958 512.202C664.126 511.388 657.673 510.204 655.971 509.296C650.374 506.29 643.449 503.162 641.646 492.298C640.607 486.036 642.37 454.002 641.827 447.665L587.273 459.837C588.035 473.218 593.371 504.239 574.67 509.728C571.56 510.636 568.208 511.471 564.689 512.264Z" fill="#FAA896"/>
<path opacity="0.52" d="M586.507 497.051C587.362 494.298 587.913 491.46 588.149 488.586C588.749 482.031 588.629 475.429 587.792 468.9C598.88 467.404 609.327 462.829 617.944 455.695C618.957 459.434 624.528 475.776 622.986 479.331C620.069 486.049 606.368 497.051 586.507 497.051Z" fill="#0C0C0C"/>
<path d="M596.194 486.378C617.798 485.891 644.41 474.049 646.734 444.933L648.827 418.663C651.151 389.548 637.732 364.725 610.315 362.537C582.892 360.35 560.511 382.313 558.19 411.433L557.262 423.063C557.012 427.062 557.036 431.074 557.333 435.069C558.038 445.638 559.153 461.702 565.542 472.947C571.57 483.566 582.389 486.688 596.194 486.378Z" fill="#FAA896"/>
<path d="M566.322 429.291C568.193 429.291 569.71 427.774 569.71 425.904C569.71 424.033 568.193 422.517 566.322 422.517C564.451 422.517 562.934 424.033 562.934 425.904C562.934 427.774 564.451 429.291 566.322 429.291Z" fill="#0C0C0C"/>
<path d="M597.433 429.504C599.304 429.504 600.821 427.988 600.821 426.117C600.821 424.246 599.304 422.73 597.433 422.73C595.562 422.73 594.045 424.246 594.045 426.117C594.045 427.988 595.562 429.504 597.433 429.504Z" fill="#0C0C0C"/>
<path d="M644.318 453.668C652.652 454.333 660.123 445.959 660.785 437.628C661.446 429.297 655.06 424.165 646.727 423.502L641.987 428.742L637.154 453.1L644.318 453.668Z" fill="#FAA896"/>
<path d="M636.919 439.714C636.919 439.714 636.866 398.292 624.53 394.908C616.313 392.654 595.322 403.112 576.85 398.292C568.769 396.183 560.863 397.688 559.813 401.5C559.394 403.01 555.773 380.678 569.709 364.842C580.804 352.237 614.456 350.717 629.359 356.097C670.624 370.981 648.325 425.431 648.325 425.431L645.499 439.521L636.919 439.714Z" fill="#0C0C0C"/>
<g opacity="0.52">
<path d="M583.078 449.707H583.025C580.339 449.497 575.856 448.852 576.012 446.844C576.142 445.179 582.083 427.564 582.763 425.561C582.827 425.395 582.952 425.26 583.112 425.184C583.273 425.109 583.457 425.098 583.625 425.155C583.793 425.212 583.933 425.332 584.015 425.49C584.097 425.647 584.114 425.831 584.063 426.001C581.425 433.801 577.469 445.817 577.38 446.949C577.608 447.443 580.352 448.124 583.137 448.338C583.314 448.352 583.478 448.433 583.596 448.566C583.714 448.698 583.776 448.871 583.77 449.048C583.763 449.225 583.689 449.392 583.561 449.515C583.434 449.639 583.264 449.708 583.087 449.709L583.078 449.707Z" fill="#0C0C0C"/>
</g>
<path d="M577.069 408.397C574.332 407.437 571.385 407.232 568.541 407.804C567.142 408.077 565.792 408.558 564.535 409.231C563.292 409.891 562.136 410.706 561.097 411.656C560.929 411.805 560.826 412.013 560.808 412.236C560.79 412.46 560.859 412.682 561 412.856C561.142 413.03 561.345 413.143 561.567 413.171C561.79 413.199 562.014 413.141 562.195 413.007L562.249 412.966C563.214 412.178 564.273 411.515 565.403 410.992C566.515 410.47 567.7 410.119 568.918 409.952C571.323 409.602 573.779 409.893 576.035 410.798L576.121 410.834C576.436 410.947 576.782 410.936 577.089 410.802C577.396 410.668 577.639 410.421 577.77 410.113C577.9 409.805 577.908 409.459 577.791 409.146C577.674 408.832 577.442 408.575 577.142 408.428C577.116 408.415 577.091 408.405 577.069 408.397Z" fill="#0C0C0C"/>
<path d="M596.959 411.081C599.215 410.177 601.671 409.885 604.076 410.236C605.294 410.405 606.479 410.758 607.591 411.282C608.72 411.805 609.779 412.468 610.744 413.255L610.797 413.296C610.977 413.434 611.203 413.496 611.428 413.47C611.653 413.444 611.859 413.331 612.002 413.155C612.146 412.979 612.214 412.755 612.195 412.529C612.175 412.303 612.068 412.094 611.896 411.946C610.857 410.997 609.702 410.182 608.459 409.521C607.202 408.848 605.852 408.367 604.453 408.094C601.609 407.521 598.662 407.725 595.925 408.685C595.598 408.802 595.331 409.044 595.183 409.358C595.034 409.672 595.017 410.032 595.134 410.359C595.252 410.686 595.494 410.953 595.808 411.101C596.122 411.249 596.482 411.266 596.809 411.149L596.873 411.124L596.959 411.081Z" fill="#0C0C0C"/>
<path d="M579.788 456.528C587.602 457.429 595.494 455.702 602.217 451.62C602.45 451.48 602.719 451.409 602.991 451.415C603.263 451.422 603.527 451.505 603.753 451.657C603.98 451.808 604.158 452.02 604.268 452.269C604.378 452.518 604.414 452.793 604.373 453.062C603.625 457.666 600.919 466.068 591.153 466.678C584.846 467.073 580.535 462.036 578.401 458.726C578.251 458.497 578.171 458.23 578.169 457.956C578.167 457.682 578.244 457.414 578.39 457.183C578.536 456.951 578.745 456.767 578.993 456.651C579.24 456.534 579.516 456.492 579.788 456.528Z" fill="white"/>
<path d="M598.63 366.971C601.138 358.014 598.236 349.372 592.149 347.669C586.061 345.966 579.094 351.847 576.586 360.803C574.079 369.76 576.981 378.402 583.068 380.105C589.155 381.808 596.123 375.927 598.63 366.971Z" fill="#0C0C0C"/>
<path d="M619.949 541.542C655.633 539.86 657.135 509.583 657.135 509.583C657.135 509.583 674.816 510.725 686.57 512.315C705.812 514.918 718.506 521.44 728.608 531.539C738.005 540.934 743.727 551.097 737.672 615.99C733.289 662.97 736.374 766.326 736.374 766.326H521.017C521.017 766.326 508.103 630.862 506.304 609.712C502.867 569.335 500.078 534.16 508.463 525.776C525.704 508.542 559.541 509.583 574.361 509.585C574.602 509.585 571.354 543.832 619.949 541.542Z" fill="#FED217"/>
<path d="M305.652 764.933L461.19 765.702C468.653 765.162 475.805 762.502 481.806 758.035C487.806 753.567 492.404 747.478 495.058 740.485L571.771 570.351C575.465 560.621 575.14 549.824 570.87 540.333C566.6 530.843 558.733 523.437 549 519.744C528.731 512.055 508.721 517.224 501.03 537.484L430.547 689.235L302.499 691.316C302.499 691.316 304.691 765.003 305.652 764.933Z" fill="#FED217"/>
<path d="M509.348 619.151C509.339 619.012 509.275 618.882 509.171 618.79C509.067 618.698 508.93 618.652 508.791 618.66C508.652 618.669 508.523 618.733 508.431 618.837C508.339 618.941 508.292 619.078 508.301 619.217L512.679 689.141C512.687 689.267 512.74 689.386 512.828 689.476C512.917 689.566 513.035 689.621 513.161 689.631H513.234C513.372 689.622 513.502 689.559 513.594 689.455C513.686 689.351 513.732 689.215 513.724 689.076" fill="#0C0C0C"/>
<path d="M482.822 694.141L514.363 683.089L509.835 682.775C508.376 682.646 507.02 681.966 506.042 680.875C505.064 679.784 504.537 678.363 504.567 676.898C504.609 676.142 504.804 675.403 505.14 674.725C505.477 674.047 505.949 673.445 506.526 672.955C507.103 672.466 507.775 672.099 508.498 671.877C509.222 671.656 509.984 671.584 510.737 671.666L566.539 677.594L565.089 695.521C564.639 701.089 562.535 706.396 559.048 710.761C555.561 715.126 550.849 718.351 545.516 720.021L521.356 727.548C520.108 727.964 518.755 727.936 517.525 727.468C516.296 727 515.266 726.122 514.609 724.983C514.038 723.941 513.815 722.745 513.973 721.568C514.13 720.391 514.66 719.296 515.484 718.441C515.431 718.403 515.386 718.354 515.352 718.298C515.318 718.242 515.296 718.18 515.287 718.115C515.278 718.051 515.282 717.985 515.299 717.922C515.316 717.858 515.346 717.799 515.387 717.748L510.932 719.144C509.543 719.611 508.028 719.532 506.695 718.925C505.361 718.318 504.308 717.227 503.748 715.873C503.29 714.646 503.279 713.297 503.718 712.062C504.157 710.828 505.017 709.788 506.147 709.125C506.095 709.097 506.048 709.06 506.01 709.016L504.179 709.589C502.931 710.004 501.578 709.976 500.348 709.508C499.119 709.041 498.088 708.163 497.432 707.023C496.739 705.76 496.562 704.277 496.939 702.886C497.316 701.495 498.217 700.304 499.453 699.563C499.443 699.526 499.437 699.487 499.436 699.449L486.302 704.053C484.986 704.513 483.542 704.433 482.286 703.829C481.03 703.226 480.066 702.148 479.605 700.833C479.144 699.518 479.224 698.075 479.828 696.819C480.432 695.564 481.51 694.599 482.826 694.139L482.822 694.141Z" fill="#FAA896"/>
<path opacity="0.2" d="M499.95 699.962C500.011 699.962 500.072 699.952 500.129 699.931L512.835 695.313C512.966 695.265 513.072 695.168 513.131 695.042C513.189 694.916 513.196 694.772 513.148 694.642C513.101 694.511 513.003 694.405 512.877 694.347C512.752 694.288 512.608 694.282 512.477 694.329L499.771 698.948C499.656 698.99 499.558 699.071 499.497 699.178C499.435 699.284 499.413 699.409 499.435 699.53C499.456 699.651 499.519 699.761 499.614 699.84C499.708 699.919 499.827 699.963 499.95 699.962Z" fill="#0A0A0A"/>
<path opacity="0.2" d="M506.373 709.198C506.432 709.197 506.492 709.187 506.548 709.167L516.563 705.615C516.694 705.569 516.801 705.472 516.861 705.347C516.921 705.222 516.929 705.078 516.882 704.947C516.836 704.816 516.739 704.709 516.614 704.649C516.489 704.589 516.345 704.582 516.214 704.628L506.198 708.181C506.081 708.221 505.983 708.302 505.92 708.409C505.857 708.516 505.834 708.641 505.855 708.763C505.876 708.885 505.939 708.996 506.034 709.075C506.129 709.155 506.249 709.198 506.373 709.198Z" fill="#0A0A0A"/>
<path opacity="0.2" d="M515.809 718.567C515.872 718.567 515.936 718.556 515.995 718.533L520.681 716.742C520.746 716.718 520.806 716.681 520.857 716.634C520.908 716.587 520.949 716.53 520.977 716.467C521.006 716.404 521.022 716.336 521.024 716.267C521.026 716.197 521.015 716.128 520.99 716.064C520.965 715.999 520.928 715.94 520.88 715.889C520.832 715.839 520.775 715.799 520.711 715.771C520.648 715.743 520.579 715.728 520.51 715.727C520.441 715.726 520.372 715.739 520.307 715.764L515.617 717.553C515.503 717.596 515.408 717.678 515.348 717.785C515.288 717.892 515.267 718.016 515.29 718.136C515.312 718.256 515.375 718.365 515.469 718.443C515.563 718.521 515.681 718.564 515.804 718.564L515.809 718.567Z" fill="#0A0A0A"/>
<path d="M543.161 733.169L738.722 765.574C744.751 766.23 750.85 765.481 756.541 763.384C762.231 761.288 767.358 757.903 771.52 753.493C775.682 749.083 778.764 743.769 780.527 737.968C782.289 732.167 782.682 726.037 781.676 720.059L739.974 553.063C739.119 547.982 737.271 543.118 734.536 538.751C731.8 534.383 728.231 530.597 724.032 527.609C715.552 521.573 705.021 519.152 694.755 520.879C684.489 522.605 675.33 528.338 669.292 536.815C663.255 545.292 660.833 555.82 662.56 566.083L694.543 682.473L552.443 663.064L543.161 733.169Z" fill="#FED217"/>
<path d="M720.034 686.121C720.165 686.12 720.291 686.069 720.388 685.98C720.484 685.89 720.542 685.767 720.552 685.636C720.562 685.505 720.522 685.375 720.44 685.272C720.359 685.169 720.241 685.101 720.111 685.081L695.735 681.431C695.667 681.42 695.597 681.422 695.53 681.439C695.463 681.455 695.4 681.484 695.344 681.525C695.289 681.566 695.242 681.618 695.207 681.677C695.172 681.736 695.149 681.802 695.139 681.87C695.129 681.938 695.132 682.008 695.149 682.074C695.165 682.141 695.195 682.204 695.236 682.259C695.277 682.315 695.328 682.361 695.387 682.397C695.446 682.432 695.512 682.456 695.58 682.466L719.955 686.114C719.981 686.118 720.007 686.121 720.034 686.121Z" fill="#0C0C0C"/>
<path d="M733.279 766.326C733.347 766.331 733.416 766.322 733.481 766.299C733.547 766.277 733.607 766.242 733.658 766.197C733.71 766.151 733.752 766.096 733.783 766.034C733.813 765.973 733.831 765.906 733.835 765.837C733.84 765.768 733.831 765.699 733.808 765.634C733.786 765.569 733.751 765.509 733.706 765.457C733.66 765.405 733.605 765.363 733.543 765.333C733.481 765.302 733.414 765.285 733.346 765.28L544.257 732.767L553.423 663.709L694.543 682.469C694.624 682.478 694.706 682.469 694.783 682.442C694.86 682.415 694.93 682.371 694.988 682.313C695.045 682.254 695.087 682.182 695.111 682.104C695.136 682.026 695.141 681.943 695.128 681.862L679.858 616.004C679.847 615.936 679.823 615.871 679.786 615.812C679.75 615.753 679.702 615.702 679.646 615.662C679.59 615.622 679.526 615.594 679.459 615.579C679.391 615.564 679.322 615.563 679.254 615.575C679.117 615.598 678.995 615.675 678.914 615.788C678.834 615.901 678.801 616.041 678.825 616.178L693.977 681.338L553.029 662.599C552.96 662.59 552.889 662.594 552.822 662.613C552.755 662.631 552.692 662.663 552.637 662.706C552.582 662.749 552.536 662.803 552.502 662.864C552.468 662.926 552.447 662.993 552.44 663.062L543.161 733.167C543.146 733.303 543.186 733.439 543.27 733.546C543.354 733.654 543.478 733.724 543.613 733.741L733.206 766.322C733.23 766.325 733.254 766.327 733.279 766.326Z" fill="#0C0C0C"/>
<path d="M4.05377 767.373H805.951C806.229 767.373 806.495 767.263 806.691 767.066C806.888 766.87 806.998 766.604 806.998 766.326C806.998 766.049 806.888 765.783 806.691 765.587C806.495 765.39 806.229 765.28 805.951 765.28H4.05377C3.77617 765.28 3.50994 765.39 3.31365 765.587C3.11736 765.783 3.00708 766.049 3.00708 766.326C3.00708 766.604 3.11736 766.87 3.31365 767.066C3.50994 767.263 3.77617 767.373 4.05377 767.373Z" fill="#292A2E"/>
<path d="M381.864 765.236C359.203 787.439 328.88 801 295.554 801C262.227 801 231.925 787.429 209.254 765.236H381.864Z" fill="white"/>
<path d="M350.96 333.17C341.544 327.164 331.037 323.072 320.038 321.126C309.04 319.18 297.766 319.418 286.86 321.828C275.953 324.238 265.629 328.771 256.475 335.169C247.322 341.568 239.519 349.706 233.511 359.119L233.431 359.246C232.745 360.338 231.753 361.204 230.578 361.736C229.403 362.268 228.097 362.442 226.824 362.238C225.551 362.033 224.366 361.457 223.417 360.584C222.469 359.71 221.798 358.576 221.49 357.324C216.016 335.456 219.822 308.208 232.908 287.701C258.091 248.241 323.576 219.111 363.027 244.32" fill="#FF017D"/>
<path d="M348.048 331.314C357.465 337.318 365.607 345.118 372.008 354.268C378.409 363.418 382.945 373.739 385.356 384.641C387.767 395.544 388.006 406.814 386.06 417.809C384.114 428.804 380.021 439.308 374.014 448.721L373.933 448.847C373.231 449.929 372.864 451.193 372.876 452.483C372.889 453.773 373.281 455.03 374.004 456.098C374.727 457.166 375.749 457.998 376.942 458.489C378.134 458.981 379.446 459.11 380.711 458.861C402.86 454.604 425.969 439.671 439.056 419.164C464.238 379.702 463.062 308.061 423.565 282.922" fill="#FF017D"/>
<path d="M559.255 109.447C551.352 148.176 536.351 185.11 515.009 218.384C473.337 283.689 421.476 332.401 380.255 372.601L299.734 321.251C319.666 267.479 341.15 199.396 382.823 134.094C404.013 100.722 431.196 71.5559 462.999 48.0676" fill="#292A2E"/>
<path d="M460.198 205.891C486.347 205.891 507.544 184.701 507.544 158.561C507.544 132.421 486.347 111.231 460.198 111.231C434.05 111.231 412.852 132.421 412.852 158.561C412.852 184.701 434.05 205.891 460.198 205.891Z" fill="#FF017D"/>
<path d="M460.198 196.049C480.909 196.049 497.699 179.265 497.699 158.561C497.699 137.857 480.909 121.073 460.198 121.073C439.487 121.073 422.697 137.857 422.697 158.561C422.697 179.265 439.487 196.049 460.198 196.049Z" fill="white"/>
<path d="M381.527 371.692L300.329 319.911L293.573 330.498L374.771 382.28L381.527 371.692Z" fill="#292A2E"/>
<path d="M559.255 109.447L462.994 48.0625C515.008 9.70165 561.387 0 561.387 0C561.387 0 572.13 46.1299 559.255 109.447Z" fill="#FF017D"/>
<path d="M369.394 324.795C344.65 363.568 307.584 413.304 303.557 410.733C299.529 408.162 329.02 353.603 353.762 314.825C378.505 276.048 389.129 267.752 393.161 270.323C397.193 272.893 394.136 286.022 369.394 324.795Z" fill="#FF017D"/>
<path d="M400.653 748.55L353.279 602.976C352.446 600.418 350.825 598.189 348.648 596.609C346.471 595.028 343.849 594.177 341.158 594.177H148.157C146.145 594.177 144.162 594.653 142.369 595.566C140.576 596.479 139.025 597.803 137.843 599.431C136.661 601.058 135.881 602.942 135.566 604.929C135.252 606.915 135.413 608.948 136.035 610.861L183.408 756.434C184.241 758.993 185.862 761.222 188.039 762.803C190.217 764.384 192.839 765.235 195.53 765.235H388.531C390.543 765.235 392.527 764.759 394.319 763.845C396.112 762.932 397.662 761.608 398.845 759.98C400.027 758.353 400.807 756.469 401.122 754.482C401.436 752.496 401.275 750.463 400.653 748.55Z" fill="#292A2E"/>
<path d="M491.128 753.431H362.084C358.823 753.431 356.179 756.074 356.179 759.333C356.179 762.593 358.823 765.235 362.084 765.235H491.128C494.389 765.235 497.032 762.593 497.032 759.333C497.032 756.074 494.389 753.431 491.128 753.431Z" fill="#292A2E"/>
<path d="M268.344 707.042C279.523 707.042 288.586 697.982 288.586 686.807C288.586 675.631 279.523 666.572 268.344 666.572C257.165 666.572 248.102 675.631 248.102 686.807C248.102 697.982 257.165 707.042 268.344 707.042Z" fill="white"/>
</g>
<defs>
<clipPath id="clip0_396_186">
<rect width="807" height="801" fill="white"/>
</clipPath>
</defs>
</svg>
