<svg width="265" height="494" viewBox="0 0 265 494" fill="none" xmlns="http://www.w3.org/2000/svg">
<g filter="url(#filter0_ddd_489_692)">
<g clip-path="url(#clip0_489_692)">
<g clip-path="url(#clip1_489_692)">
<rect width="185.273" height="400.95" transform="translate(35.1759 55.1068)" fill="white"/>
<path d="M72.1244 244.916C72.1244 245.319 72.0294 245.699 71.8393 246.056C71.6493 246.413 71.3453 246.706 70.9272 246.934C70.5092 247.154 69.9733 247.265 69.3196 247.265H67.883V250.48H66.5833V242.556H69.3196C69.9277 242.556 70.4408 242.662 70.8588 242.875C71.2845 243.08 71.5999 243.361 71.8051 243.719C72.018 244.076 72.1244 244.475 72.1244 244.916ZM69.3196 246.204C69.8137 246.204 70.1823 246.094 70.4256 245.874C70.6688 245.646 70.7904 245.326 70.7904 244.916C70.7904 244.049 70.3001 243.616 69.3196 243.616H67.883V246.204H69.3196ZM72.9308 247.31C72.9308 246.679 73.06 246.121 73.3184 245.634C73.5844 245.148 73.9417 244.771 74.3901 244.505C74.8462 244.232 75.3479 244.095 75.8951 244.095C76.3892 244.095 76.8186 244.194 77.1835 244.391C77.5559 244.581 77.8524 244.821 78.0728 245.11V244.198H79.384V250.48H78.0728V249.545C77.8524 249.841 77.5521 250.088 77.1721 250.286C76.792 250.484 76.3588 250.582 75.8723 250.582C75.3327 250.582 74.8386 250.446 74.3901 250.172C73.9417 249.891 73.5844 249.503 73.3184 249.009C73.06 248.507 72.9308 247.941 72.9308 247.31ZM78.0728 247.333C78.0728 246.9 77.9816 246.523 77.7992 246.204C77.6243 245.885 77.3925 245.642 77.1037 245.475C76.8148 245.307 76.5032 245.224 76.1688 245.224C75.8343 245.224 75.5227 245.307 75.2338 245.475C74.945 245.634 74.7094 245.874 74.527 246.193C74.3521 246.504 74.2647 246.877 74.2647 247.31C74.2647 247.743 74.3521 248.123 74.527 248.45C74.7094 248.777 74.945 249.028 75.2338 249.203C75.5303 249.37 75.8419 249.454 76.1688 249.454C76.5032 249.454 76.8148 249.37 77.1037 249.203C77.3925 249.036 77.6243 248.792 77.7992 248.473C77.9816 248.146 78.0728 247.766 78.0728 247.333ZM83.3714 250.582C82.8774 250.582 82.4327 250.495 82.0375 250.32C81.6498 250.138 81.342 249.894 81.1139 249.59C80.8859 249.279 80.7643 248.933 80.7491 248.553H82.0945C82.1173 248.819 82.2427 249.043 82.4707 249.226C82.7063 249.4 82.999 249.488 83.3486 249.488C83.7135 249.488 83.9947 249.419 84.1923 249.283C84.3976 249.138 84.5002 248.956 84.5002 248.735C84.5002 248.5 84.3862 248.325 84.1581 248.211C83.9377 248.097 83.5843 247.971 83.0978 247.835C82.6265 247.705 82.2427 247.58 81.9463 247.458C81.6498 247.337 81.3914 247.151 81.171 246.9C80.9581 246.649 80.8517 246.318 80.8517 245.908C80.8517 245.573 80.9505 245.269 81.1482 244.996C81.3458 244.714 81.627 244.494 81.9919 244.334C82.3643 244.175 82.79 244.095 83.2688 244.095C83.9833 244.095 84.5572 244.277 84.9904 244.642C85.4313 244.999 85.6669 245.49 85.6973 246.113H84.3976C84.3748 245.832 84.2607 245.608 84.0555 245.44C83.8503 245.273 83.5729 245.189 83.2232 245.189C82.8812 245.189 82.6189 245.254 82.4365 245.383C82.2541 245.513 82.1629 245.684 82.1629 245.896C82.1629 246.064 82.2237 246.204 82.3453 246.318C82.4669 246.432 82.6151 246.523 82.79 246.592C82.9648 246.653 83.2232 246.732 83.5653 246.831C84.0213 246.953 84.3938 247.078 84.6826 247.208C84.979 247.329 85.2337 247.512 85.4465 247.755C85.6593 247.998 85.7695 248.321 85.7771 248.724C85.7771 249.081 85.6783 249.4 85.4807 249.682C85.2831 249.963 85.0018 250.183 84.637 250.343C84.2797 250.503 83.8579 250.582 83.3714 250.582ZM88.6979 245.258V248.735C88.6979 248.971 88.7511 249.142 88.8576 249.248C88.9716 249.347 89.1616 249.397 89.4276 249.397H90.2257V250.48H89.1996C88.6143 250.48 88.1659 250.343 87.8542 250.069C87.5426 249.796 87.3868 249.351 87.3868 248.735V245.258H86.6457V244.198H87.3868V242.636H88.6979V244.198H90.2257V245.258H88.6979ZM97.1814 247.185C97.1814 247.42 97.1662 247.633 97.1358 247.823H92.3358C92.3738 248.325 92.56 248.728 92.8945 249.032C93.2289 249.336 93.6394 249.488 94.1258 249.488C94.8251 249.488 95.3192 249.195 95.608 248.61H97.0104C96.8204 249.188 96.4745 249.663 95.9729 250.035C95.4788 250.4 94.8631 250.582 94.1258 250.582C93.5253 250.582 92.9857 250.449 92.5068 250.183C92.0356 249.91 91.6631 249.53 91.3895 249.043C91.1234 248.549 90.9904 247.979 90.9904 247.333C90.9904 246.687 91.1196 246.121 91.3781 245.634C91.6441 245.14 92.0128 244.76 92.484 244.494C92.9629 244.228 93.5101 244.095 94.1258 244.095C94.7187 244.095 95.247 244.224 95.7106 244.483C96.1743 244.741 96.5353 245.106 96.7938 245.577C97.0522 246.041 97.1814 246.577 97.1814 247.185ZM95.8246 246.774C95.817 246.295 95.646 245.912 95.3116 245.623C94.9771 245.334 94.5629 245.189 94.0688 245.189C93.6204 245.189 93.2365 245.334 92.9173 245.623C92.598 245.904 92.408 246.288 92.3472 246.774H95.8246ZM102.939 245.258V248.735C102.939 248.971 102.992 249.142 103.098 249.248C103.212 249.347 103.402 249.397 103.668 249.397H104.466V250.48H103.44C102.855 250.48 102.407 250.343 102.095 250.069C101.783 249.796 101.627 249.351 101.627 248.735V245.258H100.886V244.198H101.627V242.636H102.939V244.198H104.466V245.258H102.939ZM108.389 250.582C107.796 250.582 107.261 250.449 106.782 250.183C106.303 249.91 105.927 249.53 105.653 249.043C105.379 248.549 105.242 247.979 105.242 247.333C105.242 246.694 105.383 246.128 105.664 245.634C105.946 245.14 106.329 244.76 106.816 244.494C107.302 244.228 107.846 244.095 108.446 244.095C109.047 244.095 109.59 244.228 110.077 244.494C110.563 244.76 110.947 245.14 111.228 245.634C111.509 246.128 111.65 246.694 111.65 247.333C111.65 247.971 111.506 248.538 111.217 249.032C110.928 249.526 110.533 249.91 110.031 250.183C109.537 250.449 108.99 250.582 108.389 250.582ZM108.389 249.454C108.724 249.454 109.035 249.374 109.324 249.214C109.621 249.055 109.86 248.815 110.042 248.496C110.225 248.177 110.316 247.789 110.316 247.333C110.316 246.877 110.229 246.493 110.054 246.181C109.879 245.862 109.647 245.623 109.358 245.463C109.07 245.303 108.758 245.224 108.423 245.224C108.089 245.224 107.777 245.303 107.489 245.463C107.207 245.623 106.983 245.862 106.816 246.181C106.649 246.493 106.565 246.877 106.565 247.333C106.565 248.009 106.736 248.534 107.078 248.906C107.428 249.271 107.865 249.454 108.389 249.454ZM120.013 250.48L118.188 247.31H117.196V250.48H115.897V242.556H118.633C119.241 242.556 119.754 242.662 120.172 242.875C120.598 243.088 120.913 243.373 121.119 243.73C121.331 244.087 121.438 244.486 121.438 244.927C121.438 245.444 121.286 245.915 120.982 246.341C120.685 246.759 120.225 247.044 119.602 247.196L121.563 250.48H120.013ZM117.196 246.273H118.633C119.119 246.273 119.484 246.151 119.728 245.908C119.978 245.665 120.104 245.338 120.104 244.927C120.104 244.517 119.982 244.198 119.739 243.97C119.496 243.734 119.127 243.616 118.633 243.616H117.196V246.273ZM128.858 247.185C128.858 247.42 128.843 247.633 128.813 247.823H124.013C124.051 248.325 124.237 248.728 124.571 249.032C124.906 249.336 125.316 249.488 125.803 249.488C126.502 249.488 126.996 249.195 127.285 248.61H128.687C128.497 249.188 128.151 249.663 127.65 250.035C127.156 250.4 126.54 250.582 125.803 250.582C125.202 250.582 124.662 250.449 124.184 250.183C123.712 249.91 123.34 249.53 123.066 249.043C122.8 248.549 122.667 247.979 122.667 247.333C122.667 246.687 122.796 246.121 123.055 245.634C123.321 245.14 123.69 244.76 124.161 244.494C124.64 244.228 125.187 244.095 125.803 244.095C126.396 244.095 126.924 244.224 127.387 244.483C127.851 244.741 128.212 245.106 128.471 245.577C128.729 246.041 128.858 246.577 128.858 247.185ZM127.501 246.774C127.494 246.295 127.323 245.912 126.988 245.623C126.654 245.334 126.24 245.189 125.746 245.189C125.297 245.189 124.913 245.334 124.594 245.623C124.275 245.904 124.085 246.288 124.024 246.774H127.501ZM131.437 245.121C131.658 244.832 131.958 244.589 132.338 244.391C132.718 244.194 133.147 244.095 133.626 244.095C134.173 244.095 134.671 244.232 135.12 244.505C135.576 244.771 135.933 245.148 136.191 245.634C136.45 246.121 136.579 246.679 136.579 247.31C136.579 247.941 136.45 248.507 136.191 249.009C135.933 249.503 135.576 249.891 135.12 250.172C134.671 250.446 134.173 250.582 133.626 250.582C133.147 250.582 132.722 250.487 132.349 250.297C131.977 250.1 131.673 249.856 131.437 249.568V253.467H130.137V244.198H131.437V245.121ZM135.257 247.31C135.257 246.877 135.165 246.504 134.983 246.193C134.808 245.874 134.572 245.634 134.276 245.475C133.987 245.307 133.676 245.224 133.341 245.224C133.014 245.224 132.703 245.307 132.406 245.475C132.117 245.642 131.882 245.885 131.699 246.204C131.524 246.523 131.437 246.9 131.437 247.333C131.437 247.766 131.524 248.146 131.699 248.473C131.882 248.792 132.117 249.036 132.406 249.203C132.703 249.37 133.014 249.454 133.341 249.454C133.676 249.454 133.987 249.37 134.276 249.203C134.572 249.028 134.808 248.777 134.983 248.45C135.165 248.123 135.257 247.743 135.257 247.31ZM139.164 242.043V250.48H137.864V242.043H139.164ZM140.437 247.31C140.437 246.679 140.567 246.121 140.825 245.634C141.091 245.148 141.448 244.771 141.897 244.505C142.353 244.232 142.855 244.095 143.402 244.095C143.896 244.095 144.325 244.194 144.69 244.391C145.063 244.581 145.359 244.821 145.579 245.11V244.198H146.891V250.48H145.579V249.545C145.359 249.841 145.059 250.088 144.679 250.286C144.299 250.484 143.865 250.582 143.379 250.582C142.839 250.582 142.345 250.446 141.897 250.172C141.448 249.891 141.091 249.503 140.825 249.009C140.567 248.507 140.437 247.941 140.437 247.31ZM145.579 247.333C145.579 246.9 145.488 246.523 145.306 246.204C145.131 245.885 144.899 245.642 144.61 245.475C144.322 245.307 144.01 245.224 143.675 245.224C143.341 245.224 143.029 245.307 142.741 245.475C142.452 245.634 142.216 245.874 142.034 246.193C141.859 246.504 141.771 246.877 141.771 247.31C141.771 247.743 141.859 248.123 142.034 248.45C142.216 248.777 142.452 249.028 142.741 249.203C143.037 249.37 143.349 249.454 143.675 249.454C144.01 249.454 144.322 249.37 144.61 249.203C144.899 249.036 145.131 248.792 145.306 248.473C145.488 248.146 145.579 247.766 145.579 247.333ZM148.165 247.333C148.165 246.687 148.294 246.121 148.552 245.634C148.818 245.14 149.183 244.76 149.647 244.494C150.11 244.228 150.642 244.095 151.243 244.095C152.003 244.095 152.63 244.277 153.124 244.642C153.626 244.999 153.964 245.513 154.139 246.181H152.737C152.623 245.87 152.44 245.627 152.189 245.452C151.938 245.277 151.623 245.189 151.243 245.189C150.711 245.189 150.285 245.379 149.966 245.76C149.654 246.132 149.499 246.656 149.499 247.333C149.499 248.009 149.654 248.538 149.966 248.918C150.285 249.298 150.711 249.488 151.243 249.488C151.995 249.488 152.493 249.157 152.737 248.496H154.139C153.956 249.134 153.614 249.644 153.113 250.024C152.611 250.396 151.988 250.582 151.243 250.582C150.642 250.582 150.11 250.449 149.647 250.183C149.183 249.91 148.818 249.53 148.552 249.043C148.294 248.549 148.165 247.979 148.165 247.333ZM161.192 247.185C161.192 247.42 161.177 247.633 161.146 247.823H156.346C156.384 248.325 156.571 248.728 156.905 249.032C157.239 249.336 157.65 249.488 158.136 249.488C158.836 249.488 159.33 249.195 159.619 248.61H161.021C160.831 249.188 160.485 249.663 159.983 250.035C159.489 250.4 158.874 250.582 158.136 250.582C157.536 250.582 156.996 250.449 156.517 250.183C156.046 249.91 155.674 249.53 155.4 249.043C155.134 248.549 155.001 247.979 155.001 247.333C155.001 246.687 155.13 246.121 155.389 245.634C155.655 245.14 156.023 244.76 156.495 244.494C156.973 244.228 157.521 244.095 158.136 244.095C158.729 244.095 159.258 244.224 159.721 244.483C160.185 244.741 160.546 245.106 160.804 245.577C161.063 246.041 161.192 246.577 161.192 247.185ZM159.835 246.774C159.828 246.295 159.657 245.912 159.322 245.623C158.988 245.334 158.573 245.189 158.079 245.189C157.631 245.189 157.247 245.334 156.928 245.623C156.609 245.904 156.419 246.288 156.358 246.774H159.835ZM168.682 244.095C169.161 244.095 169.587 244.198 169.959 244.403C170.339 244.608 170.636 244.912 170.848 245.315C171.069 245.718 171.179 246.204 171.179 246.774V250.48H169.891V246.968C169.891 246.406 169.75 245.976 169.469 245.68C169.188 245.376 168.804 245.224 168.317 245.224C167.831 245.224 167.443 245.376 167.154 245.68C166.873 245.976 166.733 246.406 166.733 246.968V250.48H165.433V242.043H166.733V244.927C166.953 244.661 167.23 244.456 167.565 244.312C167.907 244.167 168.279 244.095 168.682 244.095ZM178.595 247.185C178.595 247.42 178.58 247.633 178.549 247.823H173.749C173.787 248.325 173.973 248.728 174.308 249.032C174.642 249.336 175.053 249.488 175.539 249.488C176.238 249.488 176.732 249.195 177.021 248.61H178.424C178.234 249.188 177.888 249.663 177.386 250.035C176.892 250.4 176.276 250.582 175.539 250.582C174.939 250.582 174.399 250.449 173.92 250.183C173.449 249.91 173.076 249.53 172.803 249.043C172.537 248.549 172.404 247.979 172.404 247.333C172.404 246.687 172.533 246.121 172.791 245.634C173.057 245.14 173.426 244.76 173.897 244.494C174.376 244.228 174.923 244.095 175.539 244.095C176.132 244.095 176.66 244.224 177.124 244.483C177.588 244.741 177.949 245.106 178.207 245.577C178.465 246.041 178.595 246.577 178.595 247.185ZM177.238 246.774C177.23 246.295 177.059 245.912 176.725 245.623C176.39 245.334 175.976 245.189 175.482 245.189C175.034 245.189 174.65 245.334 174.331 245.623C174.011 245.904 173.821 246.288 173.761 246.774H177.238ZM181.174 245.11C181.364 244.79 181.614 244.543 181.926 244.369C182.245 244.186 182.622 244.095 183.055 244.095V245.44H182.724C182.215 245.44 181.827 245.57 181.561 245.828C181.303 246.086 181.174 246.535 181.174 247.173V250.48H179.874V244.198H181.174V245.11ZM190.007 247.185C190.007 247.42 189.992 247.633 189.962 247.823H185.162C185.2 248.325 185.386 248.728 185.72 249.032C186.055 249.336 186.465 249.488 186.952 249.488C187.651 249.488 188.145 249.195 188.434 248.61H189.836C189.646 249.188 189.3 249.663 188.799 250.035C188.305 250.4 187.689 250.582 186.952 250.582C186.351 250.582 185.812 250.449 185.333 250.183C184.861 249.91 184.489 249.53 184.215 249.043C183.949 248.549 183.816 247.979 183.816 247.333C183.816 246.687 183.946 246.121 184.204 245.634C184.47 245.14 184.839 244.76 185.31 244.494C185.789 244.228 186.336 244.095 186.952 244.095C187.545 244.095 188.073 244.224 188.536 244.483C189 244.741 189.361 245.106 189.62 245.577C189.878 246.041 190.007 246.577 190.007 247.185ZM188.65 246.774C188.643 246.295 188.472 245.912 188.137 245.623C187.803 245.334 187.389 245.189 186.895 245.189C186.446 245.189 186.062 245.334 185.743 245.623C185.424 245.904 185.234 246.288 185.173 246.774H188.65ZM82.1944 264.333C82.1944 263.687 82.3236 263.121 82.5821 262.634C82.8481 262.14 83.2129 261.76 83.6766 261.494C84.1403 261.228 84.6723 261.095 85.2728 261.095C86.0329 261.095 86.66 261.277 87.154 261.642C87.6557 261.999 87.9939 262.513 88.1688 263.181H86.7664C86.6524 262.87 86.4699 262.627 86.2191 262.452C85.9683 262.277 85.6528 262.189 85.2728 262.189C84.7407 262.189 84.3151 262.379 83.9958 262.76C83.6842 263.132 83.5284 263.656 83.5284 264.333C83.5284 265.009 83.6842 265.538 83.9958 265.918C84.3151 266.298 84.7407 266.488 85.2728 266.488C86.0253 266.488 86.5232 266.157 86.7664 265.496H88.1688C87.9863 266.134 87.6443 266.644 87.1426 267.024C86.641 267.396 86.0177 267.582 85.2728 267.582C84.6723 267.582 84.1403 267.449 83.6766 267.183C83.2129 266.91 82.8481 266.53 82.5821 266.043C82.3236 265.549 82.1944 264.979 82.1944 264.333ZM90.9805 262.258V265.735C90.9805 265.971 91.0337 266.142 91.1401 266.248C91.2541 266.347 91.4441 266.397 91.7101 266.397H92.5082V267.48H91.4821C90.8968 267.48 90.4484 267.343 90.1367 267.069C89.8251 266.796 89.6693 266.351 89.6693 265.735V262.258H88.9282V261.198H89.6693V259.636H90.9805V261.198H92.5082V262.258H90.9805ZM95.006 262.11C95.196 261.79 95.4468 261.543 95.7585 261.369C96.0777 261.186 96.4539 261.095 96.8872 261.095V262.44H96.5566C96.0473 262.44 95.6596 262.57 95.3936 262.828C95.1352 263.086 95.006 263.535 95.006 264.173V267.48H93.7062V261.198H95.006V262.11ZM99.3817 259.043V267.48H98.0819V259.043H99.3817ZM110.172 263.911H107.869V266.271H106.661V263.911H104.358V262.817H106.661V260.456H107.869V262.817H110.172V263.911ZM114.717 264.31C114.717 263.679 114.847 263.121 115.105 262.634C115.371 262.148 115.728 261.771 116.177 261.505C116.633 261.232 117.135 261.095 117.682 261.095C118.176 261.095 118.605 261.194 118.97 261.391C119.343 261.581 119.639 261.821 119.859 262.11V261.198H121.171V267.48H119.859V266.545C119.639 266.841 119.339 267.088 118.959 267.286C118.579 267.484 118.145 267.582 117.659 267.582C117.119 267.582 116.625 267.446 116.177 267.172C115.728 266.891 115.371 266.503 115.105 266.009C114.847 265.507 114.717 264.941 114.717 264.31ZM119.859 264.333C119.859 263.9 119.768 263.523 119.586 263.204C119.411 262.885 119.179 262.642 118.89 262.475C118.602 262.307 118.29 262.224 117.955 262.224C117.621 262.224 117.309 262.307 117.021 262.475C116.732 262.634 116.496 262.874 116.314 263.193C116.139 263.504 116.051 263.877 116.051 264.31C116.051 264.743 116.139 265.123 116.314 265.45C116.496 265.777 116.732 266.028 117.021 266.203C117.317 266.37 117.629 266.454 117.955 266.454C118.29 266.454 118.602 266.37 118.89 266.203C119.179 266.036 119.411 265.792 119.586 265.473C119.768 265.146 119.859 264.766 119.859 264.333ZM124.178 259.043V267.48H122.878V259.043H124.178ZM127.4 262.258V265.735C127.4 265.971 127.454 266.142 127.56 266.248C127.674 266.347 127.864 266.397 128.13 266.397H128.928V267.48H127.902C127.317 267.48 126.868 267.343 126.557 267.069C126.245 266.796 126.089 266.351 126.089 265.735V262.258H125.348V261.198H126.089V259.636H127.4V261.198H128.928V262.258H127.4ZM139.21 263.911H136.907V266.271H135.699V263.911H133.396V262.817H135.699V260.456H136.907V262.817H139.21V263.911ZM146.469 267.582C145.975 267.582 145.53 267.495 145.135 267.32C144.747 267.138 144.44 266.894 144.211 266.59C143.983 266.279 143.862 265.933 143.847 265.553H145.192C145.215 265.819 145.34 266.043 145.568 266.226C145.804 266.4 146.097 266.488 146.446 266.488C146.811 266.488 147.092 266.419 147.29 266.283C147.495 266.138 147.598 265.956 147.598 265.735C147.598 265.5 147.484 265.325 147.256 265.211C147.035 265.097 146.682 264.971 146.195 264.835C145.724 264.705 145.34 264.58 145.044 264.458C144.747 264.337 144.489 264.151 144.268 263.9C144.056 263.649 143.949 263.318 143.949 262.908C143.949 262.573 144.048 262.269 144.246 261.996C144.443 261.714 144.725 261.494 145.089 261.334C145.462 261.175 145.887 261.095 146.366 261.095C147.081 261.095 147.655 261.277 148.088 261.642C148.529 261.999 148.764 262.49 148.795 263.113H147.495C147.472 262.832 147.358 262.608 147.153 262.44C146.948 262.273 146.67 262.189 146.321 262.189C145.979 262.189 145.716 262.254 145.534 262.383C145.352 262.513 145.26 262.684 145.26 262.896C145.26 263.064 145.321 263.204 145.443 263.318C145.564 263.432 145.713 263.523 145.887 263.592C146.062 263.653 146.321 263.732 146.663 263.831C147.119 263.953 147.491 264.078 147.78 264.208C148.077 264.329 148.331 264.512 148.544 264.755C148.757 264.998 148.867 265.321 148.875 265.724C148.875 266.081 148.776 266.4 148.578 266.682C148.381 266.963 148.099 267.183 147.735 267.343C147.377 267.503 146.955 267.582 146.469 267.582ZM153.528 261.095C154.007 261.095 154.433 261.198 154.805 261.403C155.186 261.608 155.482 261.912 155.695 262.315C155.915 262.718 156.025 263.204 156.025 263.774V267.48H154.737V263.968C154.737 263.406 154.596 262.976 154.315 262.68C154.034 262.376 153.65 262.224 153.164 262.224C152.677 262.224 152.29 262.376 152.001 262.68C151.719 262.976 151.579 263.406 151.579 263.968V267.48H150.279V259.043H151.579V261.927C151.799 261.661 152.077 261.456 152.411 261.312C152.753 261.167 153.126 261.095 153.528 261.095ZM160.317 262.258H159.154V267.48H157.843V262.258H157.102V261.198H157.843V260.753C157.843 260.031 158.033 259.506 158.413 259.179C158.801 258.845 159.405 258.678 160.226 258.678V259.761C159.831 259.761 159.553 259.837 159.394 259.989C159.234 260.133 159.154 260.388 159.154 260.753V261.198H160.317V262.258ZM162.985 262.258V265.735C162.985 265.971 163.039 266.142 163.145 266.248C163.259 266.347 163.449 266.397 163.715 266.397H164.513V267.48H163.487C162.902 267.48 162.453 267.343 162.142 267.069C161.83 266.796 161.674 266.351 161.674 265.735V262.258H160.933V261.198H161.674V259.636H162.985V261.198H164.513V262.258H162.985ZM171.101 266.317L172.88 261.198H174.259L171.865 267.48H170.315L167.932 261.198H169.323L171.101 266.317Z" fill="black"/>
</g>
<rect x="33.7509" y="53.6817" width="188.124" height="399.525" rx="17.1021" stroke="black" stroke-width="5.70071"/>
<path d="M90.0862 50.8313H165.085V58.4323C165.085 60.7936 163.17 62.7078 160.809 62.7078H94.3617C92.0004 62.7078 90.0862 60.7936 90.0862 58.4322V50.8313Z" fill="black"/>
<rect x="29.9502" y="48.9311" width="195.724" height="408.076" rx="16.6271" stroke="#656566" stroke-width="6.65083"/>
</g>
<rect x="27.8124" y="46.7934" width="200" height="412.352" rx="18.7648" stroke="black" stroke-width="2.3753"/>
<path d="M228.525 78.8599V78.8599C229.837 78.8599 230.9 79.9233 230.9 81.2352V137.767C230.9 139.079 229.837 140.143 228.525 140.143V140.143V78.8599Z" fill="black"/>
<path d="M228.525 154.869V154.869C229.837 154.869 230.9 155.933 230.9 157.245V185.748C230.9 187.06 229.837 188.124 228.525 188.124V188.124V154.869Z" fill="black"/>
<path d="M24.2493 102.138C24.2493 100.826 25.3127 99.7625 26.6246 99.7625V99.7625V133.017V133.017C25.3127 133.017 24.2493 131.953 24.2493 130.641V102.138Z" fill="black"/>
<path d="M24.2493 140.143C24.2493 138.831 25.3127 137.767 26.6246 137.767V137.767V171.021V171.021C25.3127 171.021 24.2493 169.958 24.2493 168.646V140.143Z" fill="black"/>
</g>
<defs>
<filter id="filter0_ddd_489_692" x="0.496298" y="-21.8527" width="263.658" height="515.439" filterUnits="userSpaceOnUse" color-interpolation-filters="sRGB">
<feFlood flood-opacity="0" result="BackgroundImageFix"/>
<feColorMatrix in="SourceAlpha" type="matrix" values="0 0 0 0 0 0 0 0 0 0 0 0 0 0 0 0 0 0 127 0" result="hardAlpha"/>
<feOffset dy="9.50119"/>
<feGaussianBlur stdDeviation="11.8765"/>
<feComposite in2="hardAlpha" operator="out"/>
<feColorMatrix type="matrix" values="0 0 0 0 0 0 0 0 0 0 0 0 0 0 0 0 0 0 0.25 0"/>
<feBlend mode="normal" in2="BackgroundImageFix" result="effect1_dropShadow_489_692"/>
<feColorMatrix in="SourceAlpha" type="matrix" values="0 0 0 0 0 0 0 0 0 0 0 0 0 0 0 0 0 0 127 0" result="hardAlpha"/>
<feOffset dx="9.50119" dy="1.90024"/>
<feGaussianBlur stdDeviation="11.8765"/>
<feComposite in2="hardAlpha" operator="out"/>
<feColorMatrix type="matrix" values="0 0 0 0 0 0 0 0 0 0 0 0 0 0 0 0 0 0 0.25 0"/>
<feBlend mode="normal" in2="effect1_dropShadow_489_692" result="effect2_dropShadow_489_692"/>
<feColorMatrix in="SourceAlpha" type="matrix" values="0 0 0 0 0 0 0 0 0 0 0 0 0 0 0 0 0 0 127 0" result="hardAlpha"/>
<feOffset dy="1.90024"/>
<feGaussianBlur stdDeviation="0.950119"/>
<feComposite in2="hardAlpha" operator="out"/>
<feColorMatrix type="matrix" values="0 0 0 0 0 0 0 0 0 0 0 0 0 0 0 0 0 0 0.25 0"/>
<feBlend mode="normal" in2="effect2_dropShadow_489_692" result="effect3_dropShadow_489_692"/>
<feBlend mode="normal" in="SourceGraphic" in2="effect3_dropShadow_489_692" result="shape"/>
</filter>
<clipPath id="clip0_489_692">
<rect x="26.6248" y="45.6057" width="202.375" height="414.727" rx="19.9525" fill="white"/>
</clipPath>
<clipPath id="clip1_489_692">
<rect x="30.9005" y="50.8313" width="193.824" height="405.226" rx="19.9525" fill="white"/>
</clipPath>
</defs>
</svg>
