<svg width="252" height="469" viewBox="0 0 252 469" fill="none" xmlns="http://www.w3.org/2000/svg">
<g filter="url(#filter0_ddd_489_774)">
<g clip-path="url(#clip0_489_774)">
<g clip-path="url(#clip1_489_774)">
<rect width="175.732" height="380.302" transform="translate(33.8579 52.2692)" fill="white"/>
<path d="M69.122 232.921C69.122 233.304 69.0319 233.664 68.8516 234.003C68.6714 234.342 68.383 234.619 67.9865 234.836C67.59 235.045 67.0817 235.149 66.4617 235.149H65.0991V238.199H63.8663V230.683H66.4617C67.0384 230.683 67.5251 230.784 67.9216 230.986C68.3253 231.18 68.6245 231.447 68.8192 231.786C69.0211 232.125 69.122 232.503 69.122 232.921ZM66.4617 234.143C66.9303 234.143 67.28 234.039 67.5107 233.83C67.7414 233.614 67.8567 233.311 67.8567 232.921C67.8567 232.1 67.3917 231.689 66.4617 231.689H65.0991V234.143H66.4617ZM69.8869 235.192C69.8869 234.594 70.0094 234.064 70.2545 233.603C70.5069 233.141 70.8457 232.785 71.2711 232.532C71.7037 232.273 72.1795 232.143 72.6986 232.143C73.1672 232.143 73.5745 232.237 73.9206 232.424C74.2739 232.604 74.555 232.831 74.7641 233.105V232.24H76.0077V238.199H74.7641V237.312C74.555 237.593 74.2702 237.828 73.9098 238.015C73.5493 238.202 73.1384 238.296 72.6769 238.296C72.1651 238.296 71.6964 238.166 71.2711 237.907C70.8457 237.64 70.5069 237.272 70.2545 236.804C70.0094 236.328 69.8869 235.791 69.8869 235.192ZM74.7641 235.214C74.7641 234.803 74.6776 234.446 74.5046 234.143C74.3387 233.841 74.1188 233.61 73.8449 233.451C73.5709 233.293 73.2753 233.213 72.9581 233.213C72.6409 233.213 72.3453 233.293 72.0713 233.451C71.7974 233.603 71.5739 233.83 71.4009 234.133C71.235 234.428 71.1521 234.782 71.1521 235.192C71.1521 235.603 71.235 235.964 71.4009 236.274C71.5739 236.584 71.7974 236.822 72.0713 236.988C72.3525 237.146 72.6481 237.226 72.9581 237.226C73.2753 237.226 73.5709 237.146 73.8449 236.988C74.1188 236.829 74.3387 236.598 74.5046 236.296C74.6776 235.986 74.7641 235.625 74.7641 235.214ZM79.7899 238.296C79.3212 238.296 78.8995 238.213 78.5246 238.047C78.1569 237.874 77.8649 237.644 77.6486 237.355C77.4324 237.06 77.317 236.732 77.3026 236.371H78.5787C78.6003 236.624 78.7193 236.836 78.9355 237.009C79.159 237.175 79.4366 237.258 79.7682 237.258C80.1143 237.258 80.381 237.193 80.5685 237.063C80.7632 236.926 80.8605 236.753 80.8605 236.544C80.8605 236.321 80.7523 236.155 80.5361 236.047C80.327 235.939 79.9917 235.82 79.5303 235.69C79.0833 235.567 78.7193 235.448 78.4381 235.333C78.1569 235.218 77.9118 235.041 77.7027 234.803C77.5008 234.565 77.3999 234.252 77.3999 233.862C77.3999 233.545 77.4936 233.257 77.6811 232.997C77.8685 232.73 78.1353 232.521 78.4813 232.37C78.8346 232.219 79.2383 232.143 79.6925 232.143C80.3702 232.143 80.9146 232.316 81.3255 232.662C81.7436 233.001 81.9671 233.466 81.996 234.057H80.7632C80.7415 233.79 80.6334 233.578 80.4387 233.419C80.2441 233.26 79.9809 233.181 79.6493 233.181C79.3249 233.181 79.0761 233.242 78.9031 233.365C78.7301 233.487 78.6436 233.65 78.6436 233.852C78.6436 234.01 78.7012 234.143 78.8166 234.252C78.9319 234.36 79.0725 234.446 79.2383 234.511C79.4042 234.569 79.6493 234.645 79.9737 234.738C80.4063 234.854 80.7595 234.973 81.0335 235.095C81.3147 235.211 81.5562 235.384 81.7581 235.614C81.9599 235.845 82.0645 236.151 82.0717 236.533C82.0717 236.872 81.978 237.175 81.7905 237.442C81.6031 237.709 81.3363 237.918 80.9903 238.069C80.6514 238.22 80.2513 238.296 79.7899 238.296ZM84.8421 233.246V236.544C84.8421 236.768 84.8925 236.93 84.9935 237.031C85.1016 237.125 85.2819 237.171 85.5342 237.171H86.2912V238.199H85.3179C84.7628 238.199 84.3374 238.069 84.0418 237.81C83.7462 237.55 83.5984 237.128 83.5984 236.544V233.246H82.8955V232.24H83.5984V230.759H84.8421V232.24H86.2912V233.246H84.8421ZM92.8887 235.074C92.8887 235.297 92.8743 235.499 92.8454 235.679H88.2926C88.3286 236.155 88.5053 236.537 88.8225 236.825C89.1397 237.114 89.529 237.258 89.9904 237.258C90.6537 237.258 91.1223 236.98 91.3963 236.425H92.7265C92.5462 236.973 92.2182 237.424 91.7424 237.777C91.2737 238.123 90.6898 238.296 89.9904 238.296C89.4209 238.296 88.909 238.17 88.4548 237.918C88.0078 237.658 87.6546 237.298 87.395 236.836C87.1427 236.368 87.0165 235.827 87.0165 235.214C87.0165 234.601 87.1391 234.064 87.3842 233.603C87.6365 233.134 87.9862 232.774 88.4332 232.521C88.8874 232.269 89.4065 232.143 89.9904 232.143C90.5528 232.143 91.0538 232.265 91.4936 232.511C91.9334 232.756 92.2759 233.102 92.521 233.549C92.7661 233.988 92.8887 234.497 92.8887 235.074ZM91.6018 234.684C91.5946 234.23 91.4323 233.866 91.1151 233.592C90.7979 233.318 90.405 233.181 89.9364 233.181C89.511 233.181 89.1469 233.318 88.8441 233.592C88.5413 233.859 88.3611 234.223 88.3034 234.684H91.6018ZM98.3494 233.246V236.544C98.3494 236.768 98.3998 236.93 98.5008 237.031C98.6089 237.125 98.7892 237.171 99.0415 237.171H99.7985V238.199H98.8252C98.2701 238.199 97.8447 238.069 97.5491 237.81C97.2535 237.55 97.1057 237.128 97.1057 236.544V233.246H96.4028V232.24H97.1057V230.759H98.3494V232.24H99.7985V233.246H98.3494ZM103.519 238.296C102.957 238.296 102.449 238.17 101.995 237.918C101.54 237.658 101.183 237.298 100.924 236.836C100.664 236.368 100.535 235.827 100.535 235.214C100.535 234.609 100.668 234.071 100.935 233.603C101.202 233.134 101.566 232.774 102.027 232.521C102.488 232.269 103.004 232.143 103.573 232.143C104.143 232.143 104.658 232.269 105.12 232.521C105.581 232.774 105.945 233.134 106.212 233.603C106.479 234.071 106.612 234.609 106.612 235.214C106.612 235.82 106.475 236.357 106.201 236.825C105.927 237.294 105.552 237.658 105.077 237.918C104.608 238.17 104.089 238.296 103.519 238.296ZM103.519 237.226C103.837 237.226 104.132 237.15 104.406 236.998C104.687 236.847 104.914 236.62 105.087 236.317C105.26 236.014 105.347 235.647 105.347 235.214C105.347 234.782 105.264 234.417 105.098 234.122C104.932 233.819 104.713 233.592 104.439 233.441C104.165 233.289 103.869 233.213 103.552 233.213C103.235 233.213 102.939 233.289 102.665 233.441C102.398 233.592 102.186 233.819 102.027 234.122C101.868 234.417 101.789 234.782 101.789 235.214C101.789 235.856 101.951 236.353 102.276 236.706C102.607 237.053 103.022 237.226 103.519 237.226ZM114.544 238.199L112.814 235.192H111.873V238.199H110.64V230.683H113.236C113.812 230.683 114.299 230.784 114.696 230.986C115.099 231.188 115.398 231.458 115.593 231.797C115.795 232.136 115.896 232.514 115.896 232.932C115.896 233.423 115.752 233.87 115.463 234.273C115.182 234.67 114.746 234.94 114.155 235.084L116.015 238.199H114.544ZM111.873 234.208H113.236C113.697 234.208 114.043 234.093 114.274 233.862C114.512 233.632 114.631 233.322 114.631 232.932C114.631 232.543 114.515 232.24 114.285 232.024C114.054 231.8 113.704 231.689 113.236 231.689H111.873V234.208ZM122.934 235.074C122.934 235.297 122.92 235.499 122.891 235.679H118.338C118.374 236.155 118.551 236.537 118.868 236.825C119.185 237.114 119.575 237.258 120.036 237.258C120.699 237.258 121.168 236.98 121.442 236.425H122.772C122.592 236.973 122.264 237.424 121.788 237.777C121.319 238.123 120.735 238.296 120.036 238.296C119.466 238.296 118.955 238.17 118.5 237.918C118.053 237.658 117.7 237.298 117.441 236.836C117.188 236.368 117.062 235.827 117.062 235.214C117.062 234.601 117.185 234.064 117.43 233.603C117.682 233.134 118.032 232.774 118.479 232.521C118.933 232.269 119.452 232.143 120.036 232.143C120.598 232.143 121.099 232.265 121.539 232.511C121.979 232.756 122.321 233.102 122.567 233.549C122.812 233.988 122.934 234.497 122.934 235.074ZM121.647 234.684C121.64 234.23 121.478 233.866 121.161 233.592C120.843 233.318 120.451 233.181 119.982 233.181C119.557 233.181 119.192 233.318 118.89 233.592C118.587 233.859 118.407 234.223 118.349 234.684H121.647ZM125.38 233.116C125.589 232.842 125.874 232.611 126.235 232.424C126.595 232.237 127.002 232.143 127.457 232.143C127.976 232.143 128.448 232.273 128.873 232.532C129.306 232.785 129.645 233.141 129.89 233.603C130.135 234.064 130.258 234.594 130.258 235.192C130.258 235.791 130.135 236.328 129.89 236.804C129.645 237.272 129.306 237.64 128.873 237.907C128.448 238.166 127.976 238.296 127.457 238.296C127.002 238.296 126.599 238.206 126.245 238.026C125.892 237.838 125.604 237.608 125.38 237.334V241.032H124.147V232.24H125.38V233.116ZM129.003 235.192C129.003 234.782 128.917 234.428 128.744 234.133C128.578 233.83 128.354 233.603 128.073 233.451C127.799 233.293 127.503 233.213 127.186 233.213C126.876 233.213 126.581 233.293 126.299 233.451C126.026 233.61 125.802 233.841 125.629 234.143C125.463 234.446 125.38 234.803 125.38 235.214C125.38 235.625 125.463 235.986 125.629 236.296C125.802 236.598 126.026 236.829 126.299 236.988C126.581 237.146 126.876 237.226 127.186 237.226C127.503 237.226 127.799 237.146 128.073 236.988C128.354 236.822 128.578 236.584 128.744 236.274C128.917 235.964 129.003 235.603 129.003 235.192ZM132.709 230.196V238.199H131.477V230.196H132.709ZM133.917 235.192C133.917 234.594 134.04 234.064 134.285 233.603C134.537 233.141 134.876 232.785 135.301 232.532C135.734 232.273 136.21 232.143 136.729 232.143C137.197 232.143 137.605 232.237 137.951 232.424C138.304 232.604 138.585 232.831 138.794 233.105V232.24H140.038V238.199H138.794V237.312C138.585 237.593 138.301 237.828 137.94 238.015C137.58 238.202 137.169 238.296 136.707 238.296C136.195 238.296 135.727 238.166 135.301 237.907C134.876 237.64 134.537 237.272 134.285 236.804C134.04 236.328 133.917 235.791 133.917 235.192ZM138.794 235.214C138.794 234.803 138.708 234.446 138.535 234.143C138.369 233.841 138.149 233.61 137.875 233.451C137.601 233.293 137.306 233.213 136.988 233.213C136.671 233.213 136.376 233.293 136.102 233.451C135.828 233.603 135.604 233.83 135.431 234.133C135.265 234.428 135.182 234.782 135.182 235.192C135.182 235.603 135.265 235.964 135.431 236.274C135.604 236.584 135.828 236.822 136.102 236.988C136.383 237.146 136.678 237.226 136.988 237.226C137.306 237.226 137.601 237.146 137.875 236.988C138.149 236.829 138.369 236.598 138.535 236.296C138.708 235.986 138.794 235.625 138.794 235.214ZM141.246 235.214C141.246 234.601 141.369 234.064 141.614 233.603C141.866 233.134 142.212 232.774 142.652 232.521C143.092 232.269 143.597 232.143 144.166 232.143C144.887 232.143 145.482 232.316 145.951 232.662C146.426 233.001 146.747 233.487 146.913 234.122H145.583C145.475 233.826 145.302 233.596 145.064 233.43C144.826 233.264 144.527 233.181 144.166 233.181C143.662 233.181 143.258 233.361 142.955 233.722C142.659 234.075 142.512 234.572 142.512 235.214C142.512 235.856 142.659 236.357 142.955 236.717C143.258 237.078 143.662 237.258 144.166 237.258C144.88 237.258 145.352 236.944 145.583 236.317H146.913C146.74 236.923 146.416 237.406 145.94 237.766C145.464 238.12 144.873 238.296 144.166 238.296C143.597 238.296 143.092 238.17 142.652 237.918C142.212 237.658 141.866 237.298 141.614 236.836C141.369 236.368 141.246 235.827 141.246 235.214ZM153.603 235.074C153.603 235.297 153.588 235.499 153.56 235.679H149.007C149.043 236.155 149.219 236.537 149.537 236.825C149.854 237.114 150.243 237.258 150.705 237.258C151.368 237.258 151.837 236.98 152.11 236.425H153.441C153.26 236.973 152.932 237.424 152.457 237.777C151.988 238.123 151.404 238.296 150.705 238.296C150.135 238.296 149.623 238.17 149.169 237.918C148.722 237.658 148.369 237.298 148.109 236.836C147.857 236.368 147.731 235.827 147.731 235.214C147.731 234.601 147.853 234.064 148.098 233.603C148.351 233.134 148.7 232.774 149.147 232.521C149.602 232.269 150.121 232.143 150.705 232.143C151.267 232.143 151.768 232.265 152.208 232.511C152.648 232.756 152.99 233.102 153.235 233.549C153.48 233.988 153.603 234.497 153.603 235.074ZM152.316 234.684C152.309 234.23 152.147 233.866 151.829 233.592C151.512 233.318 151.119 233.181 150.651 233.181C150.225 233.181 149.861 233.318 149.558 233.592C149.256 233.859 149.075 234.223 149.018 234.684H152.316ZM160.707 232.143C161.162 232.143 161.565 232.24 161.919 232.435C162.279 232.629 162.56 232.918 162.762 233.3C162.971 233.682 163.076 234.143 163.076 234.684V238.199H161.854V234.868C161.854 234.335 161.72 233.927 161.454 233.646C161.187 233.358 160.823 233.213 160.361 233.213C159.9 233.213 159.532 233.358 159.258 233.646C158.991 233.927 158.858 234.335 158.858 234.868V238.199H157.625V230.196H158.858V232.932C159.067 232.68 159.33 232.485 159.648 232.348C159.972 232.211 160.325 232.143 160.707 232.143ZM170.109 235.074C170.109 235.297 170.095 235.499 170.066 235.679H165.513C165.549 236.155 165.726 236.537 166.043 236.825C166.36 237.114 166.75 237.258 167.211 237.258C167.874 237.258 168.343 236.98 168.617 236.425H169.947C169.767 236.973 169.439 237.424 168.963 237.777C168.494 238.123 167.911 238.296 167.211 238.296C166.642 238.296 166.13 238.17 165.676 237.918C165.229 237.658 164.875 237.298 164.616 236.836C164.363 236.368 164.237 235.827 164.237 235.214C164.237 234.601 164.36 234.064 164.605 233.603C164.857 233.134 165.207 232.774 165.654 232.521C166.108 232.269 166.627 232.143 167.211 232.143C167.774 232.143 168.275 232.265 168.714 232.511C169.154 232.756 169.497 233.102 169.742 233.549C169.987 233.988 170.109 234.497 170.109 235.074ZM168.823 234.684C168.815 234.23 168.653 233.866 168.336 233.592C168.019 233.318 167.626 233.181 167.157 233.181C166.732 233.181 166.368 233.318 166.065 233.592C165.762 233.859 165.582 234.223 165.524 234.684H168.823ZM172.555 233.105C172.736 232.803 172.974 232.568 173.269 232.402C173.572 232.229 173.929 232.143 174.34 232.143V233.419H174.026C173.543 233.419 173.175 233.542 172.923 233.787C172.678 234.032 172.555 234.457 172.555 235.063V238.199H171.323V232.24H172.555V233.105ZM180.934 235.074C180.934 235.297 180.92 235.499 180.891 235.679H176.338C176.374 236.155 176.551 236.537 176.868 236.825C177.185 237.114 177.575 237.258 178.036 237.258C178.699 237.258 179.168 236.98 179.442 236.425H180.772C180.592 236.973 180.264 237.424 179.788 237.777C179.319 238.123 178.735 238.296 178.036 238.296C177.466 238.296 176.955 238.17 176.5 237.918C176.053 237.658 175.7 237.298 175.441 236.836C175.188 236.368 175.062 235.827 175.062 235.214C175.062 234.601 175.185 234.064 175.43 233.603C175.682 233.134 176.032 232.774 176.479 232.521C176.933 232.269 177.452 232.143 178.036 232.143C178.598 232.143 179.099 232.265 179.539 232.511C179.979 232.756 180.321 233.102 180.567 233.549C180.812 233.988 180.934 234.497 180.934 235.074ZM179.647 234.684C179.64 234.23 179.478 233.866 179.161 233.592C178.843 233.318 178.451 233.181 177.982 233.181C177.557 233.181 177.193 233.318 176.89 233.592C176.587 233.859 176.407 234.223 176.349 234.684H179.647ZM78.6735 251.214C78.6735 250.601 78.796 250.064 79.0411 249.603C79.2935 249.134 79.6395 248.774 80.0793 248.521C80.5191 248.269 81.0238 248.143 81.5933 248.143C82.3143 248.143 82.9091 248.316 83.3777 248.662C83.8535 249.001 84.1743 249.487 84.3401 250.122H83.01C82.9018 249.826 82.7288 249.596 82.4909 249.43C82.253 249.264 81.9538 249.181 81.5933 249.181C81.0887 249.181 80.6849 249.361 80.3821 249.722C80.0865 250.075 79.9387 250.572 79.9387 251.214C79.9387 251.856 80.0865 252.357 80.3821 252.717C80.6849 253.078 81.0887 253.258 81.5933 253.258C82.3071 253.258 82.7793 252.944 83.01 252.317H84.3401C84.1671 252.923 83.8427 253.406 83.3669 253.766C82.891 254.12 82.2999 254.296 81.5933 254.296C81.0238 254.296 80.5191 254.17 80.0793 253.918C79.6395 253.658 79.2935 253.298 79.0411 252.836C78.796 252.368 78.6735 251.827 78.6735 251.214ZM87.0071 249.246V252.544C87.0071 252.768 87.0575 252.93 87.1585 253.031C87.2666 253.125 87.4468 253.171 87.6992 253.171H88.4562V254.199H87.4829C86.9277 254.199 86.5024 254.069 86.2068 253.81C85.9112 253.55 85.7634 253.128 85.7634 252.544V249.246H85.0605V248.24H85.7634V246.759H87.0071V248.24H88.4562V249.246H87.0071ZM90.8253 249.105C91.0055 248.803 91.2434 248.568 91.539 248.402C91.8418 248.229 92.1987 248.143 92.6096 248.143V249.419H92.296C91.813 249.419 91.4453 249.542 91.1929 249.787C90.9478 250.032 90.8253 250.457 90.8253 251.063V254.199H89.5924V248.24H90.8253V249.105ZM94.9757 246.196V254.199H93.7428V246.196H94.9757ZM105.211 250.814H103.026V253.053H101.88V250.814H99.6954V249.776H101.88V247.537H103.026V249.776H105.211V250.814ZM109.522 251.192C109.522 250.594 109.644 250.064 109.889 249.603C110.142 249.141 110.48 248.785 110.906 248.532C111.338 248.273 111.814 248.143 112.333 248.143C112.802 248.143 113.209 248.237 113.555 248.424C113.909 248.604 114.19 248.831 114.399 249.105V248.24H115.643V254.199H114.399V253.312C114.19 253.593 113.905 253.828 113.545 254.015C113.184 254.202 112.773 254.296 112.312 254.296C111.8 254.296 111.331 254.166 110.906 253.907C110.48 253.64 110.142 253.272 109.889 252.804C109.644 252.328 109.522 251.791 109.522 251.192ZM114.399 251.214C114.399 250.803 114.312 250.446 114.139 250.143C113.974 249.841 113.754 249.61 113.48 249.451C113.206 249.293 112.91 249.213 112.593 249.213C112.276 249.213 111.98 249.293 111.706 249.451C111.432 249.603 111.209 249.83 111.036 250.133C110.87 250.428 110.787 250.782 110.787 251.192C110.787 251.603 110.87 251.964 111.036 252.274C111.209 252.584 111.432 252.822 111.706 252.988C111.987 253.146 112.283 253.226 112.593 253.226C112.91 253.226 113.206 253.146 113.48 252.988C113.754 252.829 113.974 252.598 114.139 252.296C114.312 251.986 114.399 251.625 114.399 251.214ZM118.495 246.196V254.199H117.262V246.196H118.495ZM121.552 249.246V252.544C121.552 252.768 121.602 252.93 121.703 253.031C121.811 253.125 121.991 253.171 122.244 253.171H123.001V254.199H122.027C121.472 254.199 121.047 254.069 120.751 253.81C120.456 253.55 120.308 253.128 120.308 252.544V249.246H119.605V248.24H120.308V246.759H121.552V248.24H123.001V249.246H121.552ZM132.753 250.814H130.569V253.053H129.423V250.814H127.238V249.776H129.423V247.537H130.569V249.776H132.753V250.814ZM139.638 254.296C139.169 254.296 138.748 254.213 138.373 254.047C138.005 253.874 137.713 253.644 137.497 253.355C137.281 253.06 137.165 252.732 137.151 252.371H138.427C138.448 252.624 138.567 252.836 138.784 253.009C139.007 253.175 139.285 253.258 139.616 253.258C139.962 253.258 140.229 253.193 140.417 253.063C140.611 252.926 140.709 252.753 140.709 252.544C140.709 252.321 140.601 252.155 140.384 252.047C140.175 251.939 139.84 251.82 139.379 251.69C138.932 251.567 138.567 251.448 138.286 251.333C138.005 251.218 137.76 251.041 137.551 250.803C137.349 250.565 137.248 250.252 137.248 249.862C137.248 249.545 137.342 249.257 137.529 248.997C137.717 248.73 137.983 248.521 138.33 248.37C138.683 248.219 139.087 248.143 139.541 248.143C140.218 248.143 140.763 248.316 141.174 248.662C141.592 249.001 141.815 249.466 141.844 250.057H140.611C140.59 249.79 140.482 249.578 140.287 249.419C140.092 249.26 139.829 249.181 139.497 249.181C139.173 249.181 138.924 249.242 138.751 249.365C138.578 249.487 138.492 249.65 138.492 249.852C138.492 250.01 138.549 250.143 138.665 250.252C138.78 250.36 138.921 250.446 139.087 250.511C139.252 250.569 139.497 250.645 139.822 250.738C140.254 250.854 140.608 250.973 140.882 251.095C141.163 251.211 141.404 251.384 141.606 251.614C141.808 251.845 141.913 252.151 141.92 252.533C141.92 252.872 141.826 253.175 141.639 253.442C141.451 253.709 141.184 253.918 140.838 254.069C140.5 254.22 140.099 254.296 139.638 254.296ZM146.334 248.143C146.788 248.143 147.192 248.24 147.545 248.435C147.906 248.629 148.187 248.918 148.389 249.3C148.598 249.682 148.702 250.143 148.702 250.684V254.199H147.48V250.868C147.48 250.335 147.347 249.927 147.08 249.646C146.813 249.358 146.449 249.213 145.988 249.213C145.527 249.213 145.159 249.358 144.885 249.646C144.618 249.927 144.485 250.335 144.485 250.868V254.199H143.252V246.196H144.485V248.932C144.694 248.68 144.957 248.485 145.274 248.348C145.599 248.211 145.952 248.143 146.334 248.143ZM152.773 249.246H151.67V254.199H150.426V249.246H149.723V248.24H150.426V247.818C150.426 247.134 150.607 246.636 150.967 246.326C151.335 246.009 151.908 245.85 152.687 245.85V246.878C152.312 246.878 152.048 246.95 151.897 247.094C151.746 247.231 151.67 247.472 151.67 247.818V248.24H152.773V249.246ZM155.304 249.246V252.544C155.304 252.768 155.354 252.93 155.455 253.031C155.563 253.125 155.744 253.171 155.996 253.171H156.753V254.199H155.78C155.225 254.199 154.799 254.069 154.504 253.81C154.208 253.55 154.06 253.128 154.06 252.544V249.246H153.357V248.24H154.06V246.759H155.304V248.24H156.753V249.246H155.304ZM163.002 253.096L164.689 248.24H165.997L163.726 254.199H162.256L159.996 248.24H161.315L163.002 253.096Z" fill="black"/>
</g>
<rect x="32.5059" y="50.9173" width="178.436" height="378.951" rx="16.2214" stroke="black" stroke-width="5.40714"/>
<path d="M85.9402 48.2137H157.076V55.4233C157.076 57.663 155.261 59.4786 153.021 59.4786H89.9955C87.7558 59.4786 85.9402 57.663 85.9402 55.4233V48.2137Z" fill="black"/>
<rect x="28.9012" y="46.4113" width="185.645" height="387.061" rx="15.7708" stroke="#656566" stroke-width="6.30833"/>
</g>
<rect x="26.8736" y="44.3836" width="189.701" height="391.117" rx="17.7985" stroke="black" stroke-width="2.25298"/>
<path d="M217.25 74.7987C218.494 74.7987 219.503 75.8074 219.503 77.0517V130.673C219.503 131.917 218.494 132.925 217.25 132.925V74.7987Z" fill="black"/>
<path d="M217.25 146.894C218.494 146.894 219.503 147.903 219.503 149.147V176.183C219.503 177.427 218.494 178.436 217.25 178.436V146.894Z" fill="black"/>
<path d="M23.4939 96.8779C23.4939 95.6336 24.5026 94.6249 25.7469 94.6249V126.167C24.5026 126.167 23.4939 125.158 23.4939 123.914V96.8779Z" fill="black"/>
<path d="M23.4939 132.926C23.4939 131.681 24.5026 130.673 25.7469 130.673V162.214C24.5026 162.214 23.4939 161.206 23.4939 159.961V132.926Z" fill="black"/>
</g>
<defs>
<filter id="filter0_ddd_489_774" x="0.96414" y="-20.7274" width="250.08" height="488.896" filterUnits="userSpaceOnUse" color-interpolation-filters="sRGB">
<feFlood flood-opacity="0" result="BackgroundImageFix"/>
<feColorMatrix in="SourceAlpha" type="matrix" values="0 0 0 0 0 0 0 0 0 0 0 0 0 0 0 0 0 0 127 0" result="hardAlpha"/>
<feOffset dy="9.0119"/>
<feGaussianBlur stdDeviation="11.2649"/>
<feComposite in2="hardAlpha" operator="out"/>
<feColorMatrix type="matrix" values="0 0 0 0 0 0 0 0 0 0 0 0 0 0 0 0 0 0 0.25 0"/>
<feBlend mode="normal" in2="BackgroundImageFix" result="effect1_dropShadow_489_774"/>
<feColorMatrix in="SourceAlpha" type="matrix" values="0 0 0 0 0 0 0 0 0 0 0 0 0 0 0 0 0 0 127 0" result="hardAlpha"/>
<feOffset dx="9.0119" dy="1.80238"/>
<feGaussianBlur stdDeviation="11.2649"/>
<feComposite in2="hardAlpha" operator="out"/>
<feColorMatrix type="matrix" values="0 0 0 0 0 0 0 0 0 0 0 0 0 0 0 0 0 0 0.25 0"/>
<feBlend mode="normal" in2="effect1_dropShadow_489_774" result="effect2_dropShadow_489_774"/>
<feColorMatrix in="SourceAlpha" type="matrix" values="0 0 0 0 0 0 0 0 0 0 0 0 0 0 0 0 0 0 127 0" result="hardAlpha"/>
<feOffset dy="1.80238"/>
<feGaussianBlur stdDeviation="0.90119"/>
<feComposite in2="hardAlpha" operator="out"/>
<feColorMatrix type="matrix" values="0 0 0 0 0 0 0 0 0 0 0 0 0 0 0 0 0 0 0.25 0"/>
<feBlend mode="normal" in2="effect2_dropShadow_489_774" result="effect3_dropShadow_489_774"/>
<feBlend mode="normal" in="SourceGraphic" in2="effect3_dropShadow_489_774" result="shape"/>
</filter>
<clipPath id="clip0_489_774">
<rect x="25.7471" y="43.2571" width="191.954" height="393.37" rx="18.925" fill="white"/>
</clipPath>
<clipPath id="clip1_489_774">
<rect x="29.8024" y="48.2137" width="183.843" height="384.358" rx="18.925" fill="white"/>
</clipPath>
</defs>
</svg>
