<svg width="369" height="432" viewBox="0 0 369 432" fill="none" xmlns="http://www.w3.org/2000/svg">
<g filter="url(#filter0_ddd_489_700)">
<g clip-path="url(#clip0_489_700)">
<g clip-path="url(#clip1_489_700)">
<g clip-path="url(#clip2_489_700)">
<rect width="154.935" height="335.296" transform="translate(30.4453 107.132) rotate(-30)" fill="white"/>
<path d="M136.053 229.402C136.222 229.694 136.312 230.009 136.323 230.347C136.335 230.685 136.237 231.024 136.03 231.364C135.819 231.699 135.477 232.003 135.004 232.276L133.964 232.877L135.308 235.205L134.367 235.749L131.053 230.01L133.035 228.866C133.475 228.612 133.892 228.474 134.283 228.453C134.677 228.424 135.023 228.496 135.321 228.669C135.625 228.838 135.869 229.083 136.053 229.402ZM134.561 231.508C134.918 231.301 135.139 231.067 135.223 230.806C135.304 230.539 135.259 230.257 135.087 229.96C134.725 229.332 134.189 229.224 133.478 229.634L132.438 230.234L133.52 232.109L134.561 231.508ZM137.638 230.799C137.374 230.342 137.234 229.884 137.218 229.423C137.207 228.96 137.309 228.538 137.522 228.158C137.738 227.769 138.044 227.46 138.441 227.231C138.799 227.024 139.151 226.916 139.498 226.907C139.847 226.889 140.162 226.938 140.442 227.055L140.061 226.395L141.01 225.847L143.637 230.396L142.688 230.945L142.297 230.267C142.261 230.574 142.147 230.879 141.954 231.181C141.762 231.483 141.489 231.735 141.137 231.939C140.746 232.165 140.331 232.272 139.892 232.261C139.449 232.245 139.029 232.114 138.629 231.867C138.232 231.612 137.902 231.256 137.638 230.799ZM141.372 228.666C141.191 228.352 140.967 228.117 140.702 227.963C140.442 227.804 140.172 227.725 139.893 227.725C139.614 227.725 139.353 227.794 139.111 227.934C138.869 228.074 138.678 228.265 138.539 228.507C138.396 228.743 138.326 229.015 138.327 229.322C138.331 229.621 138.423 229.928 138.604 230.241C138.785 230.555 139.008 230.794 139.271 230.957C139.54 231.118 139.815 231.201 140.098 231.207C140.382 231.204 140.643 231.134 140.88 230.997C141.122 230.858 141.312 230.667 141.452 230.425C141.591 230.183 141.657 229.91 141.65 229.606C141.646 229.293 141.553 228.979 141.372 228.666ZM146.568 228.803C146.21 229.01 145.851 229.133 145.492 229.171C145.135 229.201 144.81 229.154 144.518 229.029C144.223 228.899 143.99 228.699 143.82 228.43L144.794 227.867C144.922 228.051 145.107 228.161 145.348 228.197C145.592 228.225 145.84 228.166 146.094 228.02C146.358 227.868 146.533 227.7 146.619 227.519C146.707 227.328 146.705 227.153 146.613 226.994C146.514 226.823 146.359 226.744 146.146 226.757C145.939 226.767 145.63 226.823 145.221 226.928C144.825 227.031 144.495 227.101 144.229 227.137C143.964 227.173 143.699 227.146 143.434 227.056C143.175 226.964 142.96 226.769 142.788 226.471C142.649 226.229 142.593 225.968 142.622 225.687C142.647 225.401 142.759 225.123 142.956 224.855C143.159 224.584 143.434 224.348 143.781 224.148C144.298 223.849 144.79 223.741 145.257 223.824C145.725 223.899 146.101 224.155 146.383 224.594L145.442 225.137C145.308 224.943 145.132 224.829 144.913 224.793C144.695 224.758 144.459 224.813 144.206 224.96C143.958 225.103 143.795 225.259 143.717 225.429C143.639 225.599 143.644 225.761 143.733 225.915C143.803 226.036 143.906 226.112 144.042 226.144C144.177 226.176 144.323 226.18 144.478 226.156C144.63 226.127 144.851 226.077 145.14 226.006C145.521 225.903 145.843 225.838 146.106 225.811C146.372 225.775 146.632 225.801 146.888 225.888C147.144 225.975 147.359 226.163 147.533 226.452C147.682 226.71 147.744 226.983 147.719 227.269C147.693 227.555 147.582 227.833 147.384 228.101C147.192 228.366 146.92 228.6 146.568 228.803ZM148.199 222.72L149.653 225.239C149.752 225.409 149.862 225.511 149.983 225.543C150.107 225.567 150.265 225.524 150.458 225.412L151.036 225.079L151.489 225.863L150.746 226.292C150.322 226.537 149.94 226.625 149.6 226.557C149.26 226.49 148.961 226.233 148.703 225.787L147.249 223.268L146.713 223.578L146.269 222.81L146.806 222.5L146.153 221.369L147.103 220.821L147.756 221.952L148.862 221.313L149.305 222.081L148.199 222.72ZM155.149 220.568C155.247 220.739 155.325 220.9 155.382 221.05L151.906 223.057C152.144 223.404 152.447 223.618 152.816 223.699C153.186 223.779 153.546 223.717 153.899 223.514C154.405 223.222 154.641 222.803 154.605 222.258L155.621 221.672C155.725 222.17 155.673 222.658 155.465 223.138C155.26 223.609 154.89 223.998 154.356 224.307C153.921 224.558 153.475 224.687 153.017 224.695C152.561 224.693 152.133 224.574 151.731 224.336C151.332 224.089 150.997 223.732 150.727 223.264C150.457 222.796 150.314 222.332 150.297 221.872C150.283 221.403 150.391 220.974 150.622 220.584C150.857 220.191 151.198 219.866 151.644 219.608C152.073 219.36 152.51 219.233 152.954 219.226C153.397 219.22 153.811 219.333 154.196 219.566C154.577 219.794 154.894 220.128 155.149 220.568ZM153.994 220.838C153.789 220.495 153.504 220.288 153.141 220.219C152.778 220.15 152.418 220.218 152.06 220.425C151.735 220.612 151.518 220.877 151.407 221.22C151.294 221.557 151.317 221.915 151.476 222.292L153.994 220.838ZM158.512 216.766L159.966 219.284C160.065 219.455 160.175 219.556 160.296 219.589C160.42 219.613 160.579 219.569 160.771 219.458L161.349 219.124L161.802 219.909L161.059 220.338C160.635 220.582 160.253 220.671 159.913 220.603C159.573 220.535 159.274 220.278 159.017 219.832L157.563 217.314L157.026 217.624L156.583 216.856L157.119 216.546L156.466 215.415L157.416 214.867L158.069 215.998L159.175 215.359L159.619 216.127L158.512 216.766ZM164.686 218.343C164.257 218.591 163.813 218.718 163.355 218.726C162.894 218.728 162.462 218.61 162.061 218.372C161.656 218.129 161.319 217.773 161.048 217.305C160.782 216.843 160.647 216.374 160.644 215.898C160.641 215.423 160.76 214.987 161.001 214.591C161.242 214.195 161.58 213.872 162.015 213.621C162.45 213.369 162.899 213.239 163.362 213.228C163.826 213.217 164.263 213.332 164.673 213.572C165.083 213.812 165.422 214.164 165.689 214.626C165.956 215.088 166.088 215.559 166.086 216.037C166.083 216.516 165.957 216.959 165.708 217.367C165.462 217.766 165.121 218.092 164.686 218.343ZM164.214 217.525C164.456 217.385 164.649 217.197 164.791 216.961C164.939 216.721 165.012 216.448 165.011 216.14C165.01 215.833 164.914 215.514 164.723 215.184C164.532 214.853 164.308 214.612 164.051 214.459C163.791 214.301 163.523 214.225 163.247 214.23C162.972 214.235 162.712 214.308 162.47 214.448C162.228 214.587 162.036 214.775 161.893 215.012C161.756 215.245 161.694 215.512 161.706 215.813C161.716 216.109 161.816 216.422 162.006 216.752C162.289 217.242 162.632 217.55 163.036 217.677C163.442 217.795 163.834 217.745 164.214 217.525ZM173.061 213.408L170.415 211.876L169.696 212.29L171.021 214.586L170.08 215.129L166.767 209.391L168.749 208.247C169.189 207.992 169.605 207.855 169.997 207.834C170.394 207.81 170.742 207.885 171.04 208.058C171.343 208.227 171.587 208.472 171.771 208.791C171.988 209.166 172.075 209.57 172.032 210.006C171.992 210.433 171.779 210.831 171.391 211.202L174.184 212.76L173.061 213.408ZM169.262 211.539L170.303 210.938C170.655 210.735 170.868 210.494 170.943 210.216C171.023 209.935 170.977 209.646 170.805 209.349C170.634 209.052 170.412 208.871 170.141 208.808C169.866 208.739 169.55 208.808 169.192 209.014L168.152 209.615L169.262 211.539ZM178.089 207.323C178.188 207.494 178.266 207.655 178.323 207.805L174.847 209.812C175.084 210.159 175.388 210.373 175.757 210.454C176.126 210.534 176.487 210.472 176.839 210.269C177.346 209.977 177.581 209.558 177.546 209.013L178.561 208.427C178.665 208.925 178.614 209.414 178.406 209.893C178.201 210.364 177.831 210.753 177.297 211.062C176.862 211.313 176.416 211.442 175.958 211.45C175.502 211.449 175.073 211.329 174.672 211.091C174.273 210.845 173.938 210.487 173.668 210.019C173.398 209.552 173.254 209.087 173.238 208.627C173.224 208.158 173.332 207.729 173.562 207.339C173.798 206.946 174.139 206.621 174.585 206.363C175.014 206.116 175.451 205.988 175.894 205.982C176.338 205.975 176.752 206.088 177.136 206.321C177.518 206.549 177.835 206.883 178.089 207.323ZM176.935 207.594C176.729 207.25 176.445 207.043 176.082 206.974C175.719 206.905 175.359 206.973 175.001 207.18C174.676 207.367 174.459 207.633 174.348 207.975C174.235 208.312 174.257 208.67 174.417 209.048L176.935 207.594ZM179.094 204.751C179.133 204.449 179.249 204.148 179.441 203.846C179.634 203.544 179.904 203.292 180.251 203.092C180.647 202.863 181.065 202.754 181.504 202.765C181.945 202.767 182.361 202.89 182.752 203.134C183.142 203.379 183.47 203.729 183.733 204.186C183.997 204.643 184.14 205.107 184.163 205.578C184.182 206.044 184.086 206.474 183.873 206.869C183.663 207.254 183.359 207.562 182.963 207.79C182.616 207.991 182.268 208.1 181.919 208.118C181.567 208.131 181.245 208.082 180.953 207.971L182.584 210.795L181.643 211.338L177.767 204.625L178.708 204.082L179.094 204.751ZM182.776 204.739C182.594 204.425 182.373 204.194 182.11 204.044C181.85 203.886 181.579 203.811 181.298 203.82C181.019 203.819 180.758 203.889 180.516 204.029C180.279 204.165 180.089 204.356 179.944 204.601C179.805 204.843 179.736 205.118 179.737 205.425C179.744 205.73 179.838 206.039 180.019 206.353C180.2 206.666 180.422 206.905 180.686 207.069C180.951 207.224 181.224 207.301 181.503 207.301C181.787 207.299 182.048 207.229 182.285 207.092C182.527 206.952 182.718 206.762 182.857 206.52C182.998 206.269 183.064 205.989 183.054 205.679C183.05 205.366 182.957 205.053 182.776 204.739ZM183.403 199.29L186.931 205.401L185.99 205.944L182.462 199.834L183.403 199.29ZM186.528 202.573C186.264 202.116 186.124 201.657 186.108 201.197C186.097 200.733 186.198 200.311 186.412 199.931C186.628 199.542 186.934 199.234 187.33 199.005C187.688 198.798 188.04 198.69 188.387 198.681C188.736 198.663 189.051 198.712 189.332 198.829L188.95 198.169L189.9 197.62L192.527 202.17L191.577 202.718L191.186 202.041C191.15 202.348 191.036 202.652 190.844 202.954C190.651 203.256 190.379 203.509 190.026 203.713C189.635 203.938 189.22 204.046 188.781 204.035C188.339 204.019 187.918 203.888 187.519 203.641C187.122 203.386 186.792 203.03 186.528 202.573ZM190.261 200.439C190.08 200.125 189.857 199.891 189.591 199.736C189.331 199.578 189.061 199.499 188.782 199.499C188.503 199.498 188.243 199.568 188 199.708C187.758 199.848 187.567 200.038 187.428 200.28C187.286 200.517 187.215 200.789 187.217 201.096C187.22 201.395 187.313 201.701 187.494 202.015C187.675 202.329 187.897 202.567 188.16 202.731C188.429 202.891 188.705 202.975 188.987 202.98C189.272 202.978 189.532 202.908 189.769 202.771C190.011 202.631 190.202 202.44 190.341 202.199C190.48 201.957 190.547 201.684 190.54 201.379C190.535 201.066 190.442 200.753 190.261 200.439ZM192.133 199.358C191.863 198.89 191.72 198.426 191.704 197.966C191.69 197.497 191.795 197.069 192.02 196.683C192.244 196.296 192.574 195.977 193.009 195.726C193.559 195.408 194.09 195.278 194.6 195.336C195.113 195.385 195.572 195.615 195.979 196.026L194.963 196.613C194.75 196.435 194.516 196.335 194.262 196.313C194.007 196.291 193.742 196.36 193.467 196.519C193.081 196.741 192.852 197.057 192.78 197.466C192.71 197.866 192.817 198.311 193.099 198.801C193.382 199.29 193.716 199.608 194.101 199.753C194.491 199.895 194.878 199.854 195.264 199.632C195.809 199.317 196.031 198.869 195.931 198.289L196.946 197.703C197.081 198.241 197.046 198.753 196.842 199.238C196.634 199.717 196.261 200.113 195.721 200.424C195.287 200.676 194.846 200.802 194.399 200.803C193.948 200.799 193.525 200.676 193.129 200.435C192.735 200.185 192.404 199.826 192.133 199.358ZM201.506 193.804C201.605 193.975 201.683 194.135 201.74 194.285L198.264 196.292C198.501 196.64 198.804 196.854 199.174 196.934C199.543 197.014 199.904 196.953 200.256 196.749C200.763 196.457 200.998 196.039 200.962 195.494L201.978 194.908C202.082 195.405 202.03 195.894 201.823 196.373C201.617 196.844 201.248 197.234 200.714 197.542C200.279 197.793 199.832 197.923 199.374 197.93C198.919 197.929 198.49 197.809 198.088 197.572C197.689 197.325 197.355 196.968 197.084 196.5C196.814 196.032 196.671 195.568 196.655 195.107C196.641 194.638 196.749 194.209 196.979 193.819C197.215 193.426 197.555 193.101 198.001 192.844C198.431 192.596 198.867 192.469 199.311 192.462C199.755 192.455 200.169 192.568 200.553 192.802C200.934 193.029 201.252 193.363 201.506 193.804ZM200.352 194.074C200.146 193.73 199.862 193.524 199.499 193.454C199.136 193.385 198.775 193.454 198.418 193.66C198.093 193.848 197.875 194.113 197.765 194.456C197.651 194.793 197.674 195.15 197.833 195.528L200.352 194.074ZM205.639 188.434C205.985 188.234 206.337 188.13 206.692 188.123C207.053 188.113 207.395 188.209 207.718 188.412C208.046 188.612 208.329 188.918 208.567 189.331L210.117 192.014L209.184 192.553L207.715 190.01C207.48 189.602 207.199 189.35 206.871 189.253C206.54 189.151 206.199 189.201 205.846 189.404C205.494 189.608 205.277 189.88 205.195 190.221C205.115 190.553 205.193 190.923 205.428 191.33L206.896 193.874L205.955 194.417L202.427 188.307L203.369 187.763L204.575 189.852C204.623 189.567 204.738 189.303 204.92 189.058C205.107 188.811 205.347 188.603 205.639 188.434ZM214.109 186.527C214.208 186.698 214.286 186.858 214.343 187.009L210.867 189.016C211.104 189.363 211.408 189.577 211.777 189.657C212.146 189.738 212.507 189.676 212.859 189.473C213.366 189.18 213.601 188.762 213.566 188.217L214.581 187.631C214.685 188.129 214.634 188.617 214.426 189.097C214.221 189.568 213.851 189.957 213.317 190.266C212.882 190.517 212.436 190.646 211.978 190.654C211.522 190.652 211.093 190.533 210.692 190.295C210.293 190.048 209.958 189.691 209.688 189.223C209.418 188.755 209.274 188.291 209.258 187.831C209.244 187.362 209.352 186.932 209.582 186.543C209.818 186.15 210.159 185.825 210.605 185.567C211.034 185.319 211.471 185.192 211.914 185.185C212.358 185.179 212.772 185.292 213.156 185.525C213.538 185.753 213.855 186.087 214.109 186.527ZM212.955 186.797C212.749 186.454 212.465 186.247 212.102 186.178C211.739 186.109 211.379 186.177 211.021 186.384C210.696 186.571 210.479 186.836 210.368 187.179C210.255 187.516 210.277 187.874 210.437 188.251L212.955 186.797ZM215.109 183.946C215.114 183.636 215.192 183.352 215.345 183.095C215.499 182.829 215.734 182.606 216.048 182.425L216.61 183.399L216.371 183.537C216.002 183.75 215.775 184.006 215.691 184.304C215.611 184.6 215.705 184.978 215.972 185.441L217.355 187.835L216.413 188.379L213.787 183.829L214.728 183.286L215.109 183.946ZM222.375 181.755C222.473 181.926 222.551 182.087 222.609 182.237L219.132 184.244C219.37 184.591 219.673 184.805 220.042 184.886C220.412 184.966 220.772 184.904 221.125 184.701C221.631 184.409 221.867 183.99 221.831 183.445L222.847 182.859C222.951 183.357 222.899 183.846 222.691 184.325C222.486 184.796 222.116 185.185 221.582 185.494C221.147 185.745 220.701 185.874 220.243 185.882C219.787 185.88 219.359 185.761 218.957 185.523C218.558 185.277 218.223 184.919 217.953 184.451C217.683 183.983 217.54 183.519 217.523 183.059C217.509 182.59 217.618 182.161 217.848 181.771C218.083 181.378 218.424 181.053 218.87 180.795C219.299 180.547 219.736 180.42 220.18 180.413C220.623 180.407 221.037 180.52 221.422 180.753C221.803 180.981 222.12 181.315 222.375 181.755ZM221.22 182.025C221.015 181.682 220.73 181.475 220.367 181.406C220.004 181.337 219.644 181.405 219.286 181.612C218.961 181.799 218.744 182.064 218.633 182.407C218.52 182.744 218.543 183.102 218.702 183.479L221.22 182.025ZM151.357 239.067C151.087 238.599 150.943 238.135 150.927 237.674C150.913 237.205 151.019 236.777 151.243 236.391C151.468 236.004 151.797 235.685 152.232 235.434C152.783 235.117 153.313 234.986 153.823 235.044C154.336 235.093 154.796 235.323 155.202 235.735L154.186 236.321C153.973 236.143 153.74 236.043 153.485 236.021C153.23 236 152.965 236.068 152.69 236.227C152.305 236.45 152.076 236.765 152.003 237.174C151.933 237.574 152.04 238.019 152.323 238.509C152.606 238.999 152.939 239.316 153.324 239.461C153.714 239.603 154.102 239.562 154.487 239.34C155.032 239.025 155.254 238.578 155.154 237.997L156.17 237.411C156.305 237.949 156.27 238.461 156.065 238.946C155.858 239.426 155.484 239.821 154.945 240.133C154.51 240.384 154.069 240.51 153.622 240.511C153.172 240.507 152.749 240.384 152.353 240.143C151.959 239.893 151.627 239.534 151.357 239.067ZM156.852 233.89L158.306 236.408C158.405 236.579 158.515 236.681 158.636 236.713C158.76 236.737 158.918 236.694 159.111 236.582L159.689 236.249L160.142 237.033L159.399 237.462C158.975 237.707 158.593 237.795 158.253 237.727C157.913 237.659 157.614 237.403 157.356 236.957L155.902 234.438L155.366 234.748L154.922 233.98L155.459 233.67L154.806 232.539L155.756 231.991L156.409 233.122L157.515 232.483L157.959 233.251L156.852 233.89ZM159.705 232.1C159.71 231.789 159.788 231.505 159.941 231.248C160.095 230.983 160.33 230.759 160.644 230.578L161.206 231.552L160.967 231.691C160.598 231.904 160.371 232.159 160.286 232.458C160.207 232.753 160.301 233.132 160.568 233.594L161.951 235.989L161.009 236.532L158.383 231.982L159.324 231.439L159.705 232.1ZM161.592 228.049L165.12 234.159L164.178 234.703L160.651 228.592L161.592 228.049ZM171.442 227.063L169.775 228.026L170.761 229.735L169.886 230.24L168.899 228.531L167.231 229.494L166.774 228.701L168.442 227.738L167.455 226.029L168.33 225.524L169.317 227.233L170.985 226.27L171.442 227.063ZM174.901 225.451C174.637 224.994 174.497 224.536 174.481 224.075C174.47 223.612 174.571 223.19 174.785 222.81C175.001 222.421 175.307 222.112 175.703 221.883C176.061 221.677 176.413 221.569 176.76 221.559C177.11 221.541 177.424 221.591 177.705 221.708L177.323 221.047L178.273 220.499L180.9 225.049L179.95 225.597L179.559 224.92C179.523 225.227 179.409 225.531 179.217 225.833C179.024 226.135 178.752 226.388 178.399 226.591C178.009 226.817 177.594 226.924 177.154 226.914C176.712 226.897 176.291 226.766 175.892 226.52C175.495 226.264 175.165 225.908 174.901 225.451ZM178.634 223.318C178.453 223.004 178.23 222.77 177.964 222.615C177.704 222.457 177.435 222.377 177.155 222.377C176.876 222.377 176.616 222.447 176.373 222.586C176.131 222.726 175.941 222.917 175.801 223.159C175.659 223.395 175.588 223.667 175.59 223.975C175.593 224.273 175.686 224.58 175.867 224.894C176.048 225.207 176.27 225.446 176.534 225.61C176.802 225.77 177.078 225.853 177.36 225.859C177.645 225.856 177.905 225.786 178.142 225.65C178.384 225.51 178.575 225.319 178.714 225.077C178.854 224.835 178.92 224.562 178.913 224.258C178.908 223.945 178.815 223.632 178.634 223.318ZM179.55 217.681L183.077 223.791L182.136 224.335L178.608 218.224L179.55 217.681ZM183.228 218.662L184.682 221.18C184.781 221.351 184.891 221.453 185.012 221.485C185.136 221.509 185.294 221.465 185.487 221.354L186.065 221.02L186.518 221.805L185.775 222.234C185.351 222.479 184.969 222.567 184.629 222.499C184.289 222.431 183.99 222.174 183.732 221.729L182.278 219.21L181.742 219.52L181.298 218.752L181.835 218.442L181.182 217.311L182.132 216.763L182.785 217.894L183.891 217.255L184.334 218.023L183.228 218.662ZM192.472 214.921L190.804 215.884L191.791 217.593L190.916 218.099L189.929 216.389L188.261 217.352L187.803 216.56L189.471 215.597L188.485 213.888L189.36 213.382L190.347 215.091L192.015 214.128L192.472 214.921ZM199.264 214.545C198.906 214.751 198.548 214.874 198.188 214.913C197.831 214.943 197.507 214.895 197.214 214.77C196.919 214.64 196.686 214.441 196.516 214.172L197.491 213.609C197.618 213.792 197.803 213.902 198.044 213.939C198.288 213.967 198.537 213.908 198.79 213.762C199.054 213.609 199.229 213.442 199.315 213.26C199.403 213.07 199.401 212.895 199.309 212.735C199.211 212.565 199.055 212.486 198.842 212.499C198.635 212.508 198.326 212.565 197.917 212.669C197.522 212.773 197.191 212.843 196.926 212.878C196.66 212.914 196.395 212.887 196.131 212.798C195.872 212.705 195.656 212.51 195.485 212.213C195.345 211.971 195.289 211.709 195.318 211.429C195.343 211.142 195.455 210.865 195.652 210.597C195.855 210.326 196.13 210.09 196.477 209.89C196.995 209.591 197.487 209.483 197.953 209.566C198.421 209.64 198.797 209.897 199.08 210.336L198.138 210.879C198.004 210.685 197.828 210.57 197.609 210.535C197.391 210.5 197.155 210.555 196.902 210.701C196.654 210.844 196.491 211.001 196.413 211.171C196.335 211.34 196.34 211.502 196.429 211.657C196.499 211.778 196.602 211.854 196.738 211.886C196.874 211.918 197.019 211.922 197.174 211.898C197.326 211.869 197.547 211.819 197.836 211.747C198.217 211.645 198.539 211.58 198.803 211.553C199.068 211.517 199.329 211.542 199.585 211.63C199.84 211.717 200.055 211.905 200.229 212.193C200.379 212.452 200.441 212.724 200.415 213.011C200.389 213.297 200.278 213.574 200.08 213.842C199.888 214.107 199.616 214.342 199.264 214.545ZM201.664 206.895C202.011 206.695 202.362 206.591 202.718 206.584C203.079 206.574 203.42 206.67 203.743 206.873C204.071 207.072 204.354 207.378 204.593 207.791L206.142 210.475L205.209 211.013L203.741 208.47C203.506 208.063 203.224 207.811 202.897 207.714C202.566 207.611 202.224 207.661 201.872 207.865C201.52 208.068 201.302 208.34 201.22 208.681C201.141 209.014 201.218 209.383 201.453 209.791L202.922 212.334L201.98 212.877L198.453 206.767L199.394 206.224L200.6 208.313C200.649 208.028 200.764 207.763 200.945 207.519C201.133 207.271 201.372 207.063 201.664 206.895ZM207.067 204.899L206.225 205.385L208.408 209.167L207.458 209.715L205.275 205.933L204.738 206.243L204.295 205.475L204.832 205.165L204.646 204.843C204.344 204.32 204.262 203.861 204.401 203.465C204.542 203.061 204.909 202.687 205.504 202.344L205.957 203.128C205.67 203.294 205.501 203.465 205.449 203.642C205.394 203.813 205.443 204.031 205.595 204.295L205.781 204.617L206.623 204.131L207.067 204.899ZM208.999 203.783L210.453 206.301C210.552 206.472 210.662 206.574 210.783 206.606C210.907 206.63 211.065 206.586 211.258 206.475L211.836 206.141L212.289 206.926L211.546 207.355C211.122 207.6 210.74 207.688 210.4 207.62C210.06 207.552 209.761 207.295 209.504 206.85L208.05 204.331L207.513 204.641L207.07 203.873L207.606 203.563L206.953 202.432L207.903 201.884L208.556 203.015L209.662 202.376L210.106 203.144L208.999 203.783ZM216.574 203.329L215.722 198.878L216.721 198.301L217.614 203.852L216.491 204.5L212.138 200.947L213.145 200.365L216.574 203.329Z" fill="black"/>
</g>
<rect x="28.8172" y="106.696" width="157.319" height="334.104" rx="14.3017" transform="rotate(-30 28.8172 106.696)" stroke="black" stroke-width="4.76724"/>
<path d="M68.4243 81.076L122.739 49.7171L125.918 55.2219C126.905 56.932 126.319 59.1187 124.609 60.106L76.4866 87.8894C74.7765 88.8767 72.5898 88.2908 71.6025 86.5807L68.4243 81.076Z" fill="black"/>
</g>
<rect x="24.0788" y="104.844" width="163.675" height="341.255" rx="13.9044" transform="rotate(-30 24.0788 104.844)" stroke="#656566" stroke-width="5.56178"/>
</g>
<rect x="21.6367" y="104.19" width="167.251" height="344.83" rx="15.6922" transform="rotate(-30 21.6367 104.19)" stroke="black" stroke-width="1.98635"/>
<path d="M199.473 76.5181V76.5181C200.423 75.9696 201.638 76.2951 202.187 77.2451L225.824 118.187C226.373 119.137 226.047 120.351 225.097 120.9V120.9L199.473 76.5181Z" fill="black"/>
<path d="M231.255 131.565V131.565C232.205 131.017 233.419 131.342 233.968 132.293L245.886 152.935C246.435 153.885 246.109 155.1 245.159 155.649V155.649L231.255 131.565Z" fill="black"/>
<path d="M61.2664 178.789C60.7179 177.839 61.0434 176.624 61.9934 176.076V176.076L75.8979 200.159V200.159C74.9478 200.708 73.733 200.382 73.1845 199.432L61.2664 178.789Z" fill="black"/>
<path d="M77.157 206.313C76.6085 205.363 76.934 204.148 77.884 203.6V203.6L91.7885 227.683V227.683C90.8384 228.231 89.6236 227.906 89.0751 226.956L77.157 206.313Z" fill="black"/>
</g>
<defs>
<filter id="filter0_ddd_489_700" x="0.416531" y="0.933345" width="367.644" height="431.054" filterUnits="userSpaceOnUse" color-interpolation-filters="sRGB">
<feFlood flood-opacity="0" result="BackgroundImageFix"/>
<feColorMatrix in="SourceAlpha" type="matrix" values="0 0 0 0 0 0 0 0 0 0 0 0 0 0 0 0 0 0 127 0" result="hardAlpha"/>
<feOffset dy="7.9454"/>
<feGaussianBlur stdDeviation="9.93175"/>
<feComposite in2="hardAlpha" operator="out"/>
<feColorMatrix type="matrix" values="0 0 0 0 0 0 0 0 0 0 0 0 0 0 0 0 0 0 0.25 0"/>
<feBlend mode="normal" in2="BackgroundImageFix" result="effect1_dropShadow_489_700"/>
<feColorMatrix in="SourceAlpha" type="matrix" values="0 0 0 0 0 0 0 0 0 0 0 0 0 0 0 0 0 0 127 0" result="hardAlpha"/>
<feOffset dx="7.9454" dy="1.58908"/>
<feGaussianBlur stdDeviation="9.93175"/>
<feComposite in2="hardAlpha" operator="out"/>
<feColorMatrix type="matrix" values="0 0 0 0 0 0 0 0 0 0 0 0 0 0 0 0 0 0 0.25 0"/>
<feBlend mode="normal" in2="effect1_dropShadow_489_700" result="effect2_dropShadow_489_700"/>
<feColorMatrix in="SourceAlpha" type="matrix" values="0 0 0 0 0 0 0 0 0 0 0 0 0 0 0 0 0 0 127 0" result="hardAlpha"/>
<feOffset dy="1.58908"/>
<feGaussianBlur stdDeviation="0.79454"/>
<feComposite in2="hardAlpha" operator="out"/>
<feColorMatrix type="matrix" values="0 0 0 0 0 0 0 0 0 0 0 0 0 0 0 0 0 0 0.25 0"/>
<feBlend mode="normal" in2="effect2_dropShadow_489_700" result="effect3_dropShadow_489_700"/>
<feBlend mode="normal" in="SourceGraphic" in2="effect3_dropShadow_489_700" result="shape"/>
</filter>
<clipPath id="clip0_489_700">
<rect x="20.28" y="103.826" width="169.237" height="346.817" rx="16.6853" transform="rotate(-30 20.28 103.826)" fill="white"/>
</clipPath>
<clipPath id="clip1_489_700">
<rect x="20.28" y="103.826" width="169.237" height="346.817" rx="16.6853" transform="rotate(-30 20.28 103.826)" fill="white"/>
</clipPath>
<clipPath id="clip2_489_700">
<rect x="25.5612" y="105.823" width="162.086" height="338.871" rx="16.6853" transform="rotate(-30 25.5612 105.823)" fill="white"/>
</clipPath>
</defs>
</svg>
