<svg width="369" height="432" viewBox="0 0 369 432" fill="none" xmlns="http://www.w3.org/2000/svg">
<g filter="url(#filter0_ddd_489_712)">
<g clip-path="url(#clip0_489_712)">
<g clip-path="url(#clip1_489_712)">
<g clip-path="url(#clip2_489_712)">
<rect width="154.935" height="335.296" transform="matrix(-0.866025 -0.5 -0.5 0.866025 330.555 107.132)" fill="white"/>
<path d="M224.947 229.402C224.778 229.694 224.688 230.009 224.677 230.347C224.665 230.685 224.763 231.024 224.97 231.364C225.181 231.699 225.523 232.003 225.996 232.276L227.036 232.877L225.692 235.205L226.633 235.749L229.947 230.01L227.965 228.866C227.525 228.612 227.108 228.474 226.717 228.453C226.323 228.424 225.977 228.496 225.679 228.669C225.375 228.838 225.131 229.083 224.947 229.402ZM226.439 231.508C226.082 231.301 225.861 231.067 225.777 230.806C225.696 230.539 225.741 230.257 225.913 229.96C226.275 229.332 226.811 229.224 227.522 229.634L228.562 230.234L227.48 232.109L226.439 231.508ZM223.362 230.799C223.626 230.342 223.766 229.884 223.782 229.423C223.793 228.96 223.691 228.538 223.478 228.158C223.262 227.769 222.956 227.46 222.559 227.231C222.201 227.024 221.849 226.916 221.502 226.907C221.153 226.889 220.838 226.938 220.558 227.055L220.939 226.395L219.99 225.847L217.363 230.396L218.312 230.945L218.703 230.267C218.739 230.574 218.853 230.879 219.046 231.181C219.238 231.483 219.511 231.735 219.863 231.939C220.254 232.165 220.669 232.272 221.108 232.261C221.551 232.245 221.971 232.114 222.371 231.867C222.768 231.612 223.098 231.256 223.362 230.799ZM219.628 228.666C219.809 228.352 220.033 228.117 220.298 227.963C220.558 227.804 220.828 227.725 221.107 227.725C221.386 227.725 221.647 227.794 221.889 227.934C222.131 228.074 222.322 228.265 222.461 228.507C222.604 228.743 222.674 229.015 222.673 229.322C222.669 229.621 222.577 229.928 222.396 230.241C222.215 230.555 221.992 230.794 221.729 230.957C221.46 231.118 221.185 231.201 220.902 231.207C220.618 231.204 220.357 231.134 220.12 230.997C219.878 230.858 219.688 230.667 219.548 230.425C219.409 230.183 219.343 229.91 219.35 229.606C219.354 229.293 219.447 228.979 219.628 228.666ZM214.432 228.803C214.79 229.01 215.149 229.133 215.508 229.171C215.865 229.201 216.19 229.154 216.482 229.029C216.777 228.899 217.01 228.699 217.18 228.43L216.206 227.867C216.078 228.051 215.893 228.161 215.652 228.197C215.408 228.225 215.16 228.166 214.906 228.02C214.642 227.868 214.467 227.7 214.381 227.519C214.293 227.328 214.295 227.153 214.387 226.994C214.486 226.823 214.641 226.744 214.854 226.757C215.061 226.767 215.37 226.823 215.779 226.928C216.175 227.031 216.505 227.101 216.771 227.137C217.036 227.173 217.301 227.146 217.566 227.056C217.825 226.964 218.04 226.769 218.212 226.471C218.351 226.229 218.407 225.968 218.378 225.687C218.353 225.401 218.241 225.123 218.044 224.855C217.841 224.584 217.566 224.348 217.219 224.148C216.702 223.849 216.21 223.741 215.743 223.824C215.275 223.899 214.899 224.155 214.617 224.594L215.558 225.137C215.692 224.943 215.868 224.829 216.087 224.793C216.305 224.758 216.541 224.813 216.794 224.96C217.042 225.103 217.205 225.259 217.283 225.429C217.361 225.599 217.356 225.761 217.267 225.915C217.197 226.036 217.094 226.112 216.958 226.144C216.823 226.176 216.677 226.18 216.522 226.156C216.37 226.127 216.149 226.077 215.86 226.006C215.479 225.903 215.157 225.838 214.894 225.811C214.628 225.775 214.368 225.801 214.112 225.888C213.856 225.975 213.641 226.163 213.467 226.452C213.318 226.71 213.256 226.983 213.281 227.269C213.307 227.555 213.418 227.833 213.616 228.101C213.808 228.366 214.08 228.6 214.432 228.803ZM212.801 222.72L211.347 225.239C211.248 225.409 211.138 225.511 211.017 225.543C210.893 225.567 210.735 225.524 210.542 225.412L209.964 225.079L209.511 225.863L210.254 226.292C210.678 226.537 211.06 226.625 211.4 226.557C211.74 226.49 212.039 226.233 212.297 225.787L213.751 223.268L214.287 223.578L214.731 222.81L214.194 222.5L214.847 221.369L213.897 220.821L213.244 221.952L212.138 221.313L211.695 222.081L212.801 222.72ZM205.851 220.568C205.753 220.739 205.675 220.9 205.618 221.05L209.094 223.057C208.856 223.404 208.553 223.618 208.184 223.699C207.814 223.779 207.454 223.717 207.101 223.514C206.595 223.222 206.359 222.803 206.395 222.258L205.379 221.672C205.275 222.17 205.327 222.658 205.535 223.138C205.74 223.609 206.11 223.998 206.644 224.307C207.079 224.558 207.525 224.687 207.983 224.695C208.439 224.693 208.867 224.574 209.269 224.336C209.668 224.089 210.003 223.732 210.273 223.264C210.543 222.796 210.686 222.332 210.703 221.872C210.717 221.403 210.609 220.974 210.378 220.584C210.143 220.191 209.802 219.866 209.356 219.608C208.927 219.36 208.49 219.233 208.046 219.226C207.603 219.22 207.189 219.333 206.804 219.566C206.423 219.794 206.106 220.128 205.851 220.568ZM207.006 220.838C207.211 220.495 207.496 220.288 207.859 220.219C208.222 220.15 208.582 220.218 208.94 220.425C209.265 220.612 209.482 220.877 209.593 221.22C209.706 221.557 209.683 221.915 209.524 222.292L207.006 220.838ZM202.488 216.766L201.034 219.284C200.935 219.455 200.825 219.556 200.704 219.589C200.58 219.613 200.421 219.569 200.229 219.458L199.651 219.124L199.198 219.909L199.941 220.338C200.365 220.582 200.747 220.671 201.087 220.603C201.427 220.535 201.726 220.278 201.983 219.832L203.437 217.314L203.974 217.624L204.417 216.856L203.881 216.546L204.534 215.415L203.584 214.867L202.931 215.998L201.825 215.359L201.381 216.127L202.488 216.766ZM196.314 218.343C196.743 218.591 197.187 218.718 197.645 218.726C198.106 218.728 198.538 218.61 198.939 218.372C199.344 218.129 199.681 217.773 199.952 217.305C200.218 216.843 200.353 216.374 200.356 215.898C200.359 215.423 200.24 214.987 199.999 214.591C199.758 214.195 199.42 213.872 198.985 213.621C198.55 213.369 198.101 213.239 197.638 213.228C197.174 213.217 196.737 213.332 196.327 213.572C195.917 213.812 195.578 214.164 195.311 214.626C195.044 215.088 194.912 215.559 194.914 216.037C194.917 216.516 195.043 216.959 195.292 217.367C195.538 217.766 195.879 218.092 196.314 218.343ZM196.786 217.525C196.544 217.385 196.351 217.197 196.209 216.961C196.061 216.721 195.988 216.448 195.989 216.14C195.99 215.833 196.086 215.514 196.277 215.184C196.468 214.853 196.692 214.612 196.949 214.459C197.209 214.301 197.477 214.225 197.753 214.23C198.028 214.235 198.288 214.308 198.53 214.448C198.772 214.587 198.964 214.775 199.107 215.012C199.244 215.245 199.306 215.512 199.294 215.813C199.284 216.109 199.184 216.422 198.994 216.752C198.711 217.242 198.368 217.55 197.964 217.677C197.558 217.795 197.166 217.745 196.786 217.525ZM187.939 213.408L190.585 211.876L191.304 212.29L189.979 214.586L190.92 215.129L194.233 209.391L192.251 208.247C191.811 207.992 191.395 207.855 191.003 207.834C190.606 207.81 190.258 207.885 189.96 208.058C189.657 208.227 189.413 208.472 189.229 208.791C189.012 209.166 188.925 209.57 188.968 210.006C189.008 210.433 189.221 210.831 189.609 211.202L186.816 212.76L187.939 213.408ZM191.738 211.539L190.697 210.938C190.345 210.735 190.132 210.494 190.057 210.216C189.977 209.935 190.023 209.646 190.195 209.349C190.366 209.052 190.588 208.871 190.859 208.808C191.134 208.739 191.45 208.808 191.808 209.014L192.848 209.615L191.738 211.539ZM182.911 207.323C182.812 207.494 182.734 207.655 182.677 207.805L186.153 209.812C185.916 210.159 185.612 210.373 185.243 210.454C184.874 210.534 184.513 210.472 184.161 210.269C183.654 209.977 183.419 209.558 183.454 209.013L182.439 208.427C182.335 208.925 182.386 209.414 182.594 209.893C182.799 210.364 183.169 210.753 183.703 211.062C184.138 211.313 184.584 211.442 185.042 211.45C185.498 211.449 185.927 211.329 186.328 211.091C186.727 210.845 187.062 210.487 187.332 210.019C187.602 209.552 187.746 209.087 187.762 208.627C187.776 208.158 187.668 207.729 187.438 207.339C187.202 206.946 186.861 206.621 186.415 206.363C185.986 206.116 185.549 205.988 185.106 205.982C184.662 205.975 184.248 206.088 183.864 206.321C183.482 206.549 183.165 206.883 182.911 207.323ZM184.065 207.594C184.271 207.25 184.555 207.043 184.918 206.974C185.281 206.905 185.641 206.973 185.999 207.18C186.324 207.367 186.541 207.633 186.652 207.975C186.765 208.312 186.743 208.67 186.583 209.048L184.065 207.594ZM181.906 204.751C181.867 204.449 181.751 204.148 181.559 203.846C181.366 203.544 181.096 203.292 180.749 203.092C180.353 202.863 179.935 202.754 179.496 202.765C179.055 202.767 178.639 202.89 178.248 203.134C177.858 203.379 177.53 203.729 177.267 204.186C177.003 204.643 176.86 205.107 176.837 205.578C176.818 206.044 176.914 206.474 177.127 206.869C177.337 207.254 177.641 207.562 178.037 207.79C178.384 207.991 178.732 208.1 179.081 208.118C179.433 208.131 179.755 208.082 180.047 207.971L178.416 210.795L179.357 211.338L183.233 204.625L182.292 204.082L181.906 204.751ZM178.224 204.739C178.406 204.425 178.627 204.194 178.89 204.044C179.15 203.886 179.421 203.811 179.702 203.82C179.981 203.819 180.242 203.889 180.484 204.029C180.721 204.165 180.911 204.356 181.056 204.601C181.195 204.843 181.264 205.118 181.263 205.425C181.256 205.73 181.162 206.039 180.981 206.353C180.8 206.666 180.578 206.905 180.314 207.069C180.049 207.224 179.776 207.301 179.497 207.301C179.213 207.299 178.952 207.229 178.715 207.092C178.473 206.952 178.282 206.762 178.143 206.52C178.002 206.269 177.936 205.989 177.946 205.679C177.95 205.366 178.043 205.053 178.224 204.739ZM177.597 199.29L174.069 205.401L175.01 205.944L178.538 199.834L177.597 199.29ZM174.472 202.573C174.736 202.116 174.876 201.657 174.892 201.197C174.903 200.733 174.802 200.311 174.588 199.931C174.372 199.542 174.066 199.234 173.67 199.005C173.312 198.798 172.96 198.69 172.613 198.681C172.264 198.663 171.949 198.712 171.668 198.829L172.05 198.169L171.1 197.62L168.473 202.17L169.423 202.718L169.814 202.041C169.85 202.348 169.964 202.652 170.156 202.954C170.349 203.256 170.621 203.509 170.974 203.713C171.365 203.938 171.78 204.046 172.219 204.035C172.661 204.019 173.082 203.888 173.481 203.641C173.878 203.386 174.208 203.03 174.472 202.573ZM170.739 200.439C170.92 200.125 171.143 199.891 171.409 199.736C171.669 199.578 171.939 199.499 172.218 199.499C172.497 199.498 172.757 199.568 173 199.708C173.242 199.848 173.433 200.038 173.572 200.28C173.714 200.517 173.785 200.789 173.783 201.096C173.78 201.395 173.687 201.701 173.506 202.015C173.325 202.329 173.103 202.567 172.84 202.731C172.571 202.891 172.295 202.975 172.013 202.98C171.728 202.978 171.468 202.908 171.231 202.771C170.989 202.631 170.798 202.44 170.659 202.199C170.52 201.957 170.453 201.684 170.46 201.379C170.465 201.066 170.558 200.753 170.739 200.439ZM168.867 199.358C169.137 198.89 169.28 198.426 169.296 197.966C169.31 197.497 169.205 197.069 168.98 196.683C168.756 196.296 168.426 195.977 167.991 195.726C167.441 195.408 166.91 195.278 166.4 195.336C165.887 195.385 165.428 195.615 165.021 196.026L166.037 196.613C166.25 196.435 166.484 196.335 166.738 196.313C166.993 196.291 167.258 196.36 167.533 196.519C167.919 196.741 168.148 197.057 168.22 197.466C168.29 197.866 168.183 198.311 167.901 198.801C167.618 199.29 167.284 199.608 166.899 199.753C166.509 199.895 166.122 199.854 165.736 199.632C165.191 199.317 164.969 198.869 165.069 198.289L164.054 197.703C163.919 198.241 163.954 198.753 164.158 199.238C164.366 199.717 164.739 200.113 165.279 200.424C165.713 200.676 166.154 200.802 166.601 200.803C167.052 200.799 167.475 200.676 167.871 200.435C168.265 200.185 168.596 199.826 168.867 199.358ZM159.494 193.804C159.395 193.975 159.317 194.135 159.26 194.285L162.736 196.292C162.499 196.64 162.196 196.854 161.826 196.934C161.457 197.014 161.096 196.953 160.744 196.749C160.237 196.457 160.002 196.039 160.038 195.494L159.022 194.908C158.918 195.405 158.97 195.894 159.177 196.373C159.383 196.844 159.752 197.234 160.286 197.542C160.721 197.793 161.168 197.923 161.626 197.93C162.081 197.929 162.51 197.809 162.912 197.572C163.311 197.325 163.645 196.968 163.916 196.5C164.186 196.032 164.329 195.568 164.345 195.107C164.359 194.638 164.251 194.209 164.021 193.819C163.785 193.426 163.445 193.101 162.999 192.844C162.569 192.596 162.133 192.469 161.689 192.462C161.245 192.455 160.831 192.568 160.447 192.802C160.066 193.029 159.748 193.363 159.494 193.804ZM160.648 194.074C160.854 193.73 161.138 193.524 161.501 193.454C161.864 193.385 162.225 193.454 162.582 193.66C162.907 193.848 163.125 194.113 163.235 194.456C163.349 194.793 163.326 195.15 163.167 195.528L160.648 194.074ZM155.361 188.434C155.015 188.234 154.663 188.13 154.308 188.123C153.947 188.113 153.605 188.209 153.282 188.412C152.954 188.612 152.671 188.918 152.433 189.331L150.883 192.014L151.816 192.553L153.285 190.01C153.52 189.602 153.801 189.35 154.129 189.253C154.46 189.151 154.801 189.201 155.154 189.404C155.506 189.608 155.723 189.88 155.805 190.221C155.885 190.553 155.807 190.923 155.572 191.33L154.104 193.874L155.045 194.417L158.573 188.307L157.631 187.763L156.425 189.852C156.377 189.567 156.262 189.303 156.08 189.058C155.893 188.811 155.653 188.603 155.361 188.434ZM146.891 186.527C146.792 186.698 146.714 186.858 146.657 187.009L150.133 189.016C149.896 189.363 149.592 189.577 149.223 189.657C148.854 189.738 148.493 189.676 148.141 189.473C147.634 189.18 147.399 188.762 147.434 188.217L146.419 187.631C146.315 188.129 146.366 188.617 146.574 189.097C146.779 189.568 147.149 189.957 147.683 190.266C148.118 190.517 148.564 190.646 149.022 190.654C149.478 190.652 149.907 190.533 150.308 190.295C150.707 190.048 151.042 189.691 151.312 189.223C151.582 188.755 151.726 188.291 151.742 187.831C151.756 187.362 151.648 186.932 151.418 186.543C151.182 186.15 150.841 185.825 150.395 185.567C149.966 185.319 149.529 185.192 149.086 185.185C148.642 185.179 148.228 185.292 147.844 185.525C147.462 185.753 147.145 186.087 146.891 186.527ZM148.045 186.797C148.251 186.454 148.535 186.247 148.898 186.178C149.261 186.109 149.621 186.177 149.979 186.384C150.304 186.571 150.521 186.836 150.632 187.179C150.745 187.516 150.723 187.874 150.563 188.251L148.045 186.797ZM145.891 183.946C145.886 183.636 145.808 183.352 145.655 183.095C145.501 182.829 145.266 182.606 144.952 182.425L144.39 183.399L144.629 183.537C144.998 183.75 145.225 184.006 145.309 184.304C145.389 184.6 145.295 184.978 145.028 185.441L143.645 187.835L144.587 188.379L147.213 183.829L146.272 183.286L145.891 183.946ZM138.625 181.755C138.527 181.926 138.449 182.087 138.391 182.237L141.868 184.244C141.63 184.591 141.327 184.805 140.958 184.886C140.588 184.966 140.228 184.904 139.875 184.701C139.369 184.409 139.133 183.99 139.169 183.445L138.153 182.859C138.049 183.357 138.101 183.846 138.309 184.325C138.514 184.796 138.884 185.185 139.418 185.494C139.853 185.745 140.299 185.874 140.757 185.882C141.213 185.88 141.641 185.761 142.043 185.523C142.442 185.277 142.777 184.919 143.047 184.451C143.317 183.983 143.46 183.519 143.477 183.059C143.491 182.59 143.382 182.161 143.152 181.771C142.917 181.378 142.576 181.053 142.13 180.795C141.701 180.547 141.264 180.42 140.82 180.413C140.377 180.407 139.963 180.52 139.578 180.753C139.197 180.981 138.88 181.315 138.625 181.755ZM139.78 182.025C139.985 181.682 140.27 181.475 140.633 181.406C140.996 181.337 141.356 181.405 141.714 181.612C142.039 181.799 142.256 182.064 142.367 182.407C142.48 182.744 142.457 183.102 142.298 183.479L139.78 182.025ZM209.643 239.067C209.913 238.599 210.057 238.135 210.073 237.674C210.087 237.205 209.981 236.777 209.757 236.391C209.532 236.004 209.203 235.685 208.768 235.434C208.217 235.117 207.687 234.986 207.177 235.044C206.664 235.093 206.204 235.323 205.798 235.735L206.814 236.321C207.027 236.143 207.26 236.043 207.515 236.021C207.77 236 208.035 236.068 208.31 236.227C208.695 236.45 208.924 236.765 208.997 237.174C209.067 237.574 208.96 238.019 208.677 238.509C208.394 238.999 208.061 239.316 207.676 239.461C207.286 239.603 206.898 239.562 206.513 239.34C205.968 239.025 205.746 238.578 205.846 237.997L204.83 237.411C204.695 237.949 204.73 238.461 204.935 238.946C205.142 239.426 205.516 239.821 206.055 240.133C206.49 240.384 206.931 240.51 207.378 240.511C207.828 240.507 208.251 240.384 208.647 240.143C209.041 239.893 209.373 239.534 209.643 239.067ZM204.148 233.89L202.694 236.408C202.595 236.579 202.485 236.681 202.364 236.713C202.24 236.737 202.082 236.694 201.889 236.582L201.311 236.249L200.858 237.033L201.601 237.462C202.025 237.707 202.407 237.795 202.747 237.727C203.087 237.659 203.386 237.403 203.644 236.957L205.098 234.438L205.634 234.748L206.078 233.98L205.541 233.67L206.194 232.539L205.244 231.991L204.591 233.122L203.485 232.483L203.041 233.251L204.148 233.89ZM201.295 232.1C201.29 231.789 201.212 231.505 201.059 231.248C200.905 230.983 200.67 230.759 200.356 230.578L199.794 231.552L200.033 231.691C200.402 231.904 200.629 232.159 200.714 232.458C200.793 232.753 200.699 233.132 200.432 233.594L199.049 235.989L199.991 236.532L202.617 231.982L201.676 231.439L201.295 232.1ZM199.408 228.049L195.88 234.159L196.822 234.703L200.349 228.592L199.408 228.049ZM189.558 227.063L191.225 228.026L190.239 229.735L191.114 230.24L192.101 228.531L193.769 229.494L194.226 228.701L192.558 227.738L193.545 226.029L192.67 225.524L191.683 227.233L190.015 226.27L189.558 227.063ZM186.099 225.451C186.363 224.994 186.503 224.536 186.519 224.075C186.53 223.612 186.429 223.19 186.215 222.81C185.999 222.421 185.693 222.112 185.297 221.883C184.939 221.677 184.587 221.569 184.24 221.559C183.89 221.541 183.576 221.591 183.295 221.708L183.677 221.047L182.727 220.499L180.1 225.049L181.05 225.597L181.441 224.92C181.477 225.227 181.591 225.531 181.783 225.833C181.976 226.135 182.248 226.388 182.601 226.591C182.991 226.817 183.406 226.924 183.846 226.914C184.288 226.897 184.709 226.766 185.108 226.52C185.505 226.264 185.835 225.908 186.099 225.451ZM182.366 223.318C182.547 223.004 182.77 222.77 183.036 222.615C183.296 222.457 183.565 222.377 183.845 222.377C184.124 222.377 184.384 222.447 184.627 222.586C184.869 222.726 185.059 222.917 185.199 223.159C185.341 223.395 185.412 223.667 185.41 223.975C185.407 224.273 185.314 224.58 185.133 224.894C184.952 225.207 184.73 225.446 184.466 225.61C184.198 225.77 183.922 225.853 183.64 225.859C183.355 225.856 183.095 225.786 182.858 225.65C182.616 225.51 182.425 225.319 182.286 225.077C182.146 224.835 182.08 224.562 182.087 224.258C182.092 223.945 182.185 223.632 182.366 223.318ZM181.45 217.681L177.923 223.791L178.864 224.335L182.392 218.224L181.45 217.681ZM177.772 218.662L176.318 221.18C176.219 221.351 176.109 221.453 175.988 221.485C175.864 221.509 175.706 221.465 175.513 221.354L174.935 221.02L174.482 221.805L175.225 222.234C175.649 222.479 176.031 222.567 176.371 222.499C176.711 222.431 177.01 222.174 177.268 221.729L178.722 219.21L179.258 219.52L179.702 218.752L179.165 218.442L179.818 217.311L178.868 216.763L178.215 217.894L177.109 217.255L176.666 218.023L177.772 218.662ZM168.528 214.921L170.196 215.884L169.209 217.593L170.084 218.099L171.071 216.389L172.739 217.352L173.197 216.56L171.529 215.597L172.515 213.888L171.64 213.382L170.653 215.091L168.985 214.128L168.528 214.921ZM161.736 214.545C162.094 214.751 162.452 214.874 162.812 214.913C163.169 214.943 163.493 214.895 163.786 214.77C164.081 214.64 164.314 214.441 164.484 214.172L163.509 213.609C163.382 213.792 163.197 213.902 162.956 213.939C162.712 213.967 162.463 213.908 162.21 213.762C161.946 213.609 161.771 213.442 161.685 213.26C161.597 213.07 161.599 212.895 161.691 212.735C161.789 212.565 161.945 212.486 162.158 212.499C162.365 212.508 162.674 212.565 163.083 212.669C163.478 212.773 163.809 212.843 164.074 212.878C164.34 212.914 164.605 212.887 164.869 212.798C165.128 212.705 165.344 212.51 165.515 212.213C165.655 211.971 165.711 211.709 165.682 211.429C165.657 211.142 165.545 210.865 165.348 210.597C165.145 210.326 164.87 210.09 164.523 209.89C164.005 209.591 163.513 209.483 163.047 209.566C162.579 209.64 162.203 209.897 161.92 210.336L162.862 210.879C162.996 210.685 163.172 210.57 163.391 210.535C163.609 210.5 163.845 210.555 164.098 210.701C164.346 210.844 164.509 211.001 164.587 211.171C164.665 211.34 164.66 211.502 164.571 211.657C164.501 211.778 164.398 211.854 164.262 211.886C164.126 211.918 163.981 211.922 163.826 211.898C163.674 211.869 163.453 211.819 163.164 211.747C162.783 211.645 162.461 211.58 162.197 211.553C161.932 211.517 161.671 211.542 161.415 211.63C161.16 211.717 160.945 211.905 160.771 212.193C160.621 212.452 160.559 212.724 160.585 213.011C160.611 213.297 160.722 213.574 160.92 213.842C161.112 214.107 161.384 214.342 161.736 214.545ZM159.336 206.895C158.989 206.695 158.638 206.591 158.282 206.584C157.921 206.574 157.58 206.67 157.257 206.873C156.929 207.072 156.646 207.378 156.407 207.791L154.858 210.475L155.791 211.013L157.259 208.47C157.494 208.063 157.776 207.811 158.103 207.714C158.434 207.611 158.776 207.661 159.128 207.865C159.48 208.068 159.698 208.34 159.78 208.681C159.859 209.014 159.782 209.383 159.547 209.791L158.078 212.334L159.02 212.877L162.547 206.767L161.606 206.224L160.4 208.313C160.351 208.028 160.236 207.763 160.055 207.519C159.867 207.271 159.628 207.063 159.336 206.895ZM153.933 204.899L154.775 205.385L152.592 209.167L153.542 209.715L155.725 205.933L156.262 206.243L156.705 205.475L156.168 205.165L156.354 204.843C156.656 204.32 156.738 203.861 156.599 203.465C156.458 203.061 156.091 202.687 155.496 202.344L155.043 203.128C155.33 203.294 155.499 203.465 155.551 203.642C155.606 203.813 155.557 204.031 155.405 204.295L155.219 204.617L154.377 204.131L153.933 204.899ZM152.001 203.783L150.547 206.301C150.448 206.472 150.338 206.574 150.217 206.606C150.093 206.63 149.935 206.586 149.742 206.475L149.164 206.141L148.711 206.926L149.454 207.355C149.878 207.6 150.26 207.688 150.6 207.62C150.94 207.552 151.239 207.295 151.496 206.85L152.95 204.331L153.487 204.641L153.93 203.873L153.394 203.563L154.047 202.432L153.097 201.884L152.444 203.015L151.338 202.376L150.894 203.144L152.001 203.783ZM144.426 203.329L145.278 198.878L144.279 198.301L143.386 203.852L144.509 204.5L148.862 200.947L147.855 200.365L144.426 203.329Z" fill="black"/>
</g>
<rect x="-3.25609" y="0.872465" width="157.319" height="334.104" rx="14.3017" transform="matrix(-0.866025 -0.5 -0.5 0.866025 329.799 104.312)" stroke="black" stroke-width="4.76724"/>
<path d="M292.576 81.076L238.261 49.7171L235.082 55.2219C234.095 56.932 234.681 59.1187 236.391 60.106L284.513 87.8894C286.223 88.8768 288.41 88.2908 289.398 86.5807L292.576 81.076Z" fill="black"/>
</g>
<rect x="-3.79877" y="1.01788" width="163.675" height="341.255" rx="13.9044" transform="matrix(-0.866025 -0.5 -0.5 0.866025 334.14 102.063)" stroke="#656566" stroke-width="5.56178"/>
</g>
<rect x="-1.3567" y="0.363527" width="167.251" height="344.83" rx="15.6922" transform="matrix(-0.866025 -0.5 -0.5 0.866025 338.37 103.197)" stroke="black" stroke-width="1.98635"/>
<path d="M161.527 76.5181C160.577 75.9696 159.362 76.2951 158.813 77.2451L135.176 118.187C134.627 119.137 134.953 120.351 135.903 120.9L161.527 76.5181Z" fill="black"/>
<path d="M129.745 131.565C128.795 131.017 127.58 131.342 127.032 132.293L115.114 152.935C114.565 153.885 114.891 155.1 115.841 155.649L129.745 131.565Z" fill="black"/>
<path d="M299.734 178.789C300.282 177.839 299.957 176.624 299.007 176.076L285.102 200.159C286.052 200.708 287.267 200.382 287.816 199.432L299.734 178.789Z" fill="black"/>
<path d="M283.843 206.313C284.391 205.363 284.066 204.148 283.116 203.6L269.211 227.683C270.161 228.231 271.376 227.906 271.925 226.956L283.843 206.313Z" fill="black"/>
</g>
<defs>
<filter id="filter0_ddd_489_712" x="0.884548" y="0.933375" width="367.644" height="431.054" filterUnits="userSpaceOnUse" color-interpolation-filters="sRGB">
<feFlood flood-opacity="0" result="BackgroundImageFix"/>
<feColorMatrix in="SourceAlpha" type="matrix" values="0 0 0 0 0 0 0 0 0 0 0 0 0 0 0 0 0 0 127 0" result="hardAlpha"/>
<feOffset dy="7.9454"/>
<feGaussianBlur stdDeviation="9.93175"/>
<feComposite in2="hardAlpha" operator="out"/>
<feColorMatrix type="matrix" values="0 0 0 0 0 0 0 0 0 0 0 0 0 0 0 0 0 0 0.25 0"/>
<feBlend mode="normal" in2="BackgroundImageFix" result="effect1_dropShadow_489_712"/>
<feColorMatrix in="SourceAlpha" type="matrix" values="0 0 0 0 0 0 0 0 0 0 0 0 0 0 0 0 0 0 127 0" result="hardAlpha"/>
<feOffset dx="7.9454" dy="1.58908"/>
<feGaussianBlur stdDeviation="9.93175"/>
<feComposite in2="hardAlpha" operator="out"/>
<feColorMatrix type="matrix" values="0 0 0 0 0 0 0 0 0 0 0 0 0 0 0 0 0 0 0.25 0"/>
<feBlend mode="normal" in2="effect1_dropShadow_489_712" result="effect2_dropShadow_489_712"/>
<feColorMatrix in="SourceAlpha" type="matrix" values="0 0 0 0 0 0 0 0 0 0 0 0 0 0 0 0 0 0 127 0" result="hardAlpha"/>
<feOffset dy="1.58908"/>
<feGaussianBlur stdDeviation="0.79454"/>
<feComposite in2="hardAlpha" operator="out"/>
<feColorMatrix type="matrix" values="0 0 0 0 0 0 0 0 0 0 0 0 0 0 0 0 0 0 0.25 0"/>
<feBlend mode="normal" in2="effect2_dropShadow_489_712" result="effect3_dropShadow_489_712"/>
<feBlend mode="normal" in="SourceGraphic" in2="effect3_dropShadow_489_712" result="shape"/>
</filter>
<clipPath id="clip0_489_712">
<rect width="169.237" height="346.817" rx="16.6853" transform="matrix(-0.866025 -0.5 -0.5 0.866025 340.72 103.826)" fill="white"/>
</clipPath>
<clipPath id="clip1_489_712">
<rect width="169.237" height="346.817" rx="16.6853" transform="matrix(-0.866025 -0.5 -0.5 0.866025 340.72 103.826)" fill="white"/>
</clipPath>
<clipPath id="clip2_489_712">
<rect width="162.086" height="338.871" rx="16.6853" transform="matrix(-0.866025 -0.5 -0.5 0.866025 335.439 105.823)" fill="white"/>
</clipPath>
</defs>
</svg>
