<svg width="927" height="1086" viewBox="0 0 927 1086" fill="none" xmlns="http://www.w3.org/2000/svg">
<g filter="url(#filter0_ddd_360_326)">
<g clip-path="url(#clip0_360_326)">
<g clip-path="url(#clip1_360_326)">
<g clip-path="url(#clip2_360_326)">
<rect width="390" height="844" transform="matrix(-0.866025 -0.5 -0.5 0.866025 830.742 267.32)" fill="white"/>
<path d="M563.295 575.123C562.871 575.857 562.645 576.65 562.615 577.501C562.586 578.353 562.832 579.206 563.354 580.062C563.884 580.904 564.745 581.669 565.937 582.357L568.555 583.869L565.171 589.73L567.541 591.098L575.881 576.653L570.893 573.773C569.784 573.133 568.737 572.787 567.751 572.735C566.759 572.661 565.888 572.841 565.137 573.277C564.373 573.704 563.759 574.319 563.295 575.123ZM567.053 580.424C566.152 579.904 565.596 579.315 565.384 578.657C565.181 577.985 565.295 577.275 565.727 576.527C566.639 574.947 567.989 574.674 569.777 575.706L572.395 577.218L569.671 581.936L567.053 580.424ZM559.305 578.639C559.969 577.489 560.322 576.334 560.363 575.176C560.39 574.009 560.135 572.947 559.597 571.99C559.054 571.011 558.283 570.234 557.285 569.658C556.385 569.138 555.498 568.866 554.625 568.842C553.746 568.797 552.953 568.921 552.248 569.216L553.208 567.553L550.817 566.173L544.205 577.625L546.596 579.005L547.58 577.301C547.669 578.073 547.957 578.84 548.442 579.6C548.926 580.36 549.612 580.996 550.499 581.508C551.483 582.076 552.528 582.347 553.633 582.32C554.747 582.279 555.806 581.949 556.811 581.328C557.81 580.685 558.641 579.789 559.305 578.639ZM549.908 573.269C550.364 572.479 550.926 571.889 551.594 571.499C552.249 571.101 552.928 570.902 553.63 570.901C554.333 570.9 554.989 571.075 555.599 571.427C556.208 571.779 556.688 572.26 557.039 572.869C557.398 573.464 557.575 574.148 557.572 574.922C557.562 575.674 557.33 576.445 556.874 577.235C556.418 578.025 555.858 578.626 555.196 579.037C554.519 579.441 553.826 579.651 553.115 579.665C552.399 579.658 551.742 579.483 551.147 579.139C550.537 578.787 550.057 578.306 549.706 577.697C549.356 577.088 549.189 576.401 549.206 575.635C549.218 574.847 549.452 574.058 549.908 573.269ZM536.828 573.615C537.729 574.135 538.632 574.444 539.536 574.541C540.435 574.617 541.252 574.497 541.988 574.183C542.731 573.855 543.317 573.353 543.745 572.676L541.292 571.26C540.971 571.721 540.506 571.997 539.898 572.09C539.285 572.161 538.659 572.012 538.022 571.644C537.357 571.26 536.916 570.839 536.7 570.382C536.478 569.903 536.483 569.462 536.715 569.06C536.963 568.631 537.354 568.432 537.89 568.464C538.412 568.488 539.188 568.632 540.219 568.894C541.214 569.155 542.046 569.33 542.714 569.42C543.383 569.511 544.05 569.443 544.716 569.218C545.368 568.985 545.91 568.494 546.342 567.746C546.694 567.136 546.834 566.478 546.761 565.771C546.697 565.05 546.416 564.352 545.919 563.677C545.408 562.994 544.716 562.401 543.843 561.897C542.541 561.145 541.303 560.874 540.129 561.083C538.949 561.27 538.004 561.916 537.292 563.02L539.662 564.388C539.999 563.899 540.443 563.61 540.993 563.522C541.543 563.433 542.137 563.572 542.774 563.94C543.398 564.3 543.808 564.694 544.005 565.122C544.201 565.549 544.187 565.957 543.963 566.345C543.787 566.65 543.529 566.842 543.187 566.922C542.845 567.002 542.479 567.012 542.088 566.953C541.706 566.88 541.15 566.753 540.423 566.573C539.464 566.315 538.653 566.152 537.99 566.083C537.322 565.993 536.665 566.057 536.021 566.277C535.378 566.496 534.837 566.969 534.399 567.695C534.023 568.347 533.867 569.033 533.931 569.753C533.995 570.474 534.276 571.172 534.773 571.847C535.256 572.514 535.941 573.103 536.828 573.615ZM532.722 558.303L529.062 564.642C528.814 565.072 528.537 565.327 528.231 565.409C527.919 565.47 527.521 565.36 527.036 565.08L525.581 564.24L524.441 566.214L526.312 567.294C527.379 567.91 528.34 568.133 529.196 567.962C530.052 567.791 530.804 567.144 531.452 566.022L535.112 559.683L536.463 560.463L537.579 558.53L536.228 557.75L537.872 554.902L535.482 553.522L533.838 556.37L531.053 554.762L529.937 556.695L532.722 558.303ZM515.229 552.887C514.981 553.316 514.785 553.72 514.64 554.099L523.39 559.151C522.793 560.025 522.03 560.563 521.1 560.766C520.17 560.968 519.262 560.813 518.375 560.301C517.1 559.565 516.508 558.512 516.597 557.141L514.041 555.665C513.779 556.918 513.91 558.148 514.432 559.355C514.949 560.54 515.879 561.52 517.223 562.296C518.318 562.928 519.442 563.254 520.595 563.273C521.742 563.27 522.821 562.969 523.832 562.37C524.836 561.75 525.679 560.851 526.359 559.673C527.039 558.495 527.399 557.327 527.44 556.168C527.475 554.987 527.203 553.906 526.624 552.925C526.031 551.936 525.174 551.118 524.051 550.47C522.97 549.846 521.871 549.526 520.754 549.509C519.637 549.492 518.595 549.777 517.628 550.364C516.668 550.937 515.869 551.778 515.229 552.887ZM518.134 553.566C518.652 552.701 519.368 552.182 520.282 552.007C521.195 551.833 522.102 552.005 523.003 552.525C523.821 552.997 524.368 553.665 524.646 554.527C524.932 555.376 524.875 556.276 524.474 557.226L518.134 553.566ZM506.762 543.315L503.102 549.654C502.854 550.083 502.577 550.339 502.271 550.421C501.959 550.481 501.56 550.371 501.075 550.091L499.621 549.251L498.481 551.226L500.351 552.306C501.418 552.922 502.38 553.144 503.236 552.974C504.092 552.803 504.844 552.156 505.492 551.034L509.152 544.695L510.503 545.475L511.619 543.542L510.268 542.762L511.912 539.914L509.522 538.534L507.878 541.382L505.093 539.774L503.977 541.707L506.762 543.315ZM491.221 547.284C492.302 547.908 493.419 548.23 494.572 548.249C495.733 548.254 496.819 547.957 497.829 547.358C498.848 546.746 499.698 545.85 500.378 544.672C501.05 543.509 501.389 542.328 501.397 541.132C501.404 539.935 501.104 538.838 500.497 537.841C499.891 536.844 499.04 536.03 497.945 535.398C496.851 534.766 495.72 534.436 494.553 534.409C493.386 534.382 492.286 534.671 491.254 535.276C490.221 535.88 489.369 536.765 488.697 537.928C488.025 539.092 487.692 540.277 487.699 541.481C487.705 542.686 488.022 543.802 488.648 544.829C489.269 545.834 490.127 546.652 491.221 547.284ZM492.409 545.226C491.799 544.874 491.315 544.401 490.957 543.806C490.584 543.203 490.4 542.514 490.403 541.741C490.407 540.967 490.649 540.164 491.129 539.332C491.609 538.501 492.172 537.893 492.819 537.509C493.473 537.111 494.148 536.919 494.842 536.932C495.537 536.945 496.189 537.127 496.799 537.479C497.408 537.831 497.893 538.305 498.251 538.9C498.596 539.487 498.753 540.159 498.721 540.917C498.698 541.661 498.447 542.449 497.967 543.28C497.255 544.514 496.391 545.29 495.375 545.609C494.354 545.906 493.365 545.778 492.409 545.226ZM470.14 534.864L476.802 531.005L478.61 532.049L475.274 537.828L477.643 539.196L485.983 524.75L480.995 521.87C479.886 521.23 478.839 520.884 477.853 520.832C476.853 520.772 475.978 520.96 475.228 521.395C474.464 521.822 473.85 522.438 473.386 523.241C472.842 524.184 472.623 525.203 472.729 526.299C472.83 527.373 473.368 528.376 474.344 529.31L467.313 533.232L470.14 534.864ZM479.702 530.158L477.083 528.646C476.196 528.134 475.659 527.528 475.472 526.829C475.27 526.121 475.386 525.394 475.818 524.645C476.25 523.897 476.807 523.443 477.491 523.284C478.182 523.11 478.978 523.283 479.879 523.803L482.498 525.315L479.702 530.158ZM457.483 519.547C457.235 519.976 457.038 520.38 456.894 520.759L465.644 525.811C465.047 526.685 464.283 527.224 463.354 527.426C462.424 527.628 461.516 527.473 460.629 526.961C459.354 526.225 458.761 525.172 458.851 523.801L456.294 522.325C456.033 523.578 456.163 524.808 456.686 526.015C457.202 527.2 458.133 528.181 459.477 528.957C460.572 529.589 461.695 529.914 462.848 529.933C463.995 529.93 465.074 529.629 466.085 529.031C467.09 528.41 467.933 527.511 468.613 526.333C469.293 525.155 469.653 523.987 469.694 522.828C469.729 521.647 469.457 520.567 468.878 519.586C468.285 518.597 467.427 517.778 466.305 517.13C465.224 516.506 464.125 516.186 463.008 516.169C461.891 516.152 460.848 516.437 459.881 517.024C458.922 517.597 458.123 518.438 457.483 519.547ZM460.388 520.226C460.906 519.362 461.622 518.842 462.535 518.667C463.449 518.493 464.356 518.665 465.257 519.185C466.074 519.657 466.622 520.325 466.9 521.187C467.186 522.036 467.128 522.936 466.727 523.886L460.388 520.226ZM454.953 513.07C454.856 512.312 454.564 511.553 454.079 510.792C453.595 510.032 452.916 509.4 452.043 508.896C451.045 508.32 449.994 508.045 448.888 508.072C447.777 508.077 446.729 508.387 445.746 509.002C444.763 509.617 443.94 510.499 443.276 511.649C442.612 512.799 442.251 513.967 442.194 515.154C442.145 516.327 442.389 517.409 442.924 518.402C443.454 519.373 444.217 520.146 445.215 520.722C446.088 521.226 446.964 521.501 447.843 521.547C448.73 521.578 449.54 521.455 450.273 521.176L446.169 528.285L448.539 529.653L458.295 512.755L455.925 511.387L454.953 513.07ZM445.687 513.041C446.143 512.251 446.701 511.668 447.361 511.292C448.016 510.894 448.698 510.706 449.406 510.727C450.109 510.726 450.765 510.902 451.374 511.254C451.97 511.598 452.45 512.078 452.815 512.695C453.165 513.304 453.339 513.995 453.335 514.769C453.318 515.535 453.081 516.313 452.625 517.103C452.169 517.892 451.61 518.493 450.947 518.905C450.279 519.295 449.593 519.491 448.891 519.491C448.174 519.484 447.518 519.309 446.922 518.965C446.313 518.613 445.833 518.132 445.482 517.523C445.126 516.893 444.96 516.187 444.985 515.408C444.997 514.62 445.231 513.831 445.687 513.041ZM444.107 499.326L435.227 514.706L437.596 516.074L446.476 500.694L444.107 499.326ZM436.242 507.588C436.906 506.438 437.258 505.284 437.299 504.125C437.326 502.958 437.071 501.896 436.533 500.939C435.99 499.96 435.22 499.183 434.222 498.607C433.321 498.087 432.434 497.815 431.561 497.791C430.682 497.746 429.89 497.87 429.184 498.165L430.144 496.502L427.754 495.122L421.142 506.574L423.532 507.954L424.516 506.25C424.606 507.022 424.893 507.789 425.378 508.549C425.863 509.309 426.549 509.945 427.435 510.457C428.419 511.025 429.464 511.296 430.569 511.269C431.683 511.228 432.742 510.898 433.747 510.277C434.746 509.635 435.578 508.738 436.242 507.588ZM426.844 502.218C427.3 501.428 427.862 500.838 428.531 500.448C429.186 500.05 429.864 499.851 430.567 499.85C431.269 499.849 431.925 500.025 432.535 500.377C433.145 500.729 433.625 501.209 433.975 501.818C434.334 502.413 434.512 503.097 434.508 503.871C434.499 504.623 434.266 505.394 433.81 506.184C433.354 506.974 432.795 507.575 432.132 507.987C431.456 508.391 430.762 508.6 430.051 508.614C429.335 508.607 428.679 508.432 428.083 508.088C427.473 507.736 426.993 507.255 426.643 506.646C426.292 506.038 426.126 505.35 426.143 504.584C426.154 503.796 426.388 503.008 426.844 502.218ZM422.131 499.497C422.811 498.319 423.172 497.151 423.213 495.992C423.248 494.811 422.983 493.735 422.417 492.762C421.852 491.789 421.022 490.986 419.928 490.354C418.542 489.554 417.207 489.227 415.922 489.372C414.632 489.495 413.475 490.074 412.452 491.11L415.009 492.586C415.545 492.138 416.133 491.886 416.774 491.832C417.416 491.777 418.083 491.949 418.776 492.349C419.746 492.909 420.322 493.704 420.503 494.733C420.68 495.74 420.412 496.86 419.7 498.093C418.988 499.326 418.148 500.125 417.179 500.49C416.198 500.847 415.222 500.745 414.252 500.185C412.88 499.393 412.32 498.267 412.573 496.805L410.016 495.329C409.677 496.685 409.764 497.973 410.279 499.194C410.801 500.401 411.742 501.397 413.1 502.181C414.194 502.813 415.304 503.13 416.429 503.133C417.563 503.122 418.628 502.813 419.625 502.207C420.616 501.578 421.451 500.675 422.131 499.497ZM398.539 485.515C398.291 485.945 398.094 486.349 397.95 486.727L406.7 491.779C406.103 492.654 405.339 493.192 404.41 493.395C403.48 493.597 402.572 493.442 401.685 492.93C400.41 492.194 399.818 491.141 399.907 489.77L397.351 488.294C397.089 489.547 397.219 490.777 397.742 491.984C398.259 493.169 399.189 494.149 400.533 494.925C401.628 495.557 402.752 495.883 403.904 495.902C405.052 495.899 406.131 495.598 407.141 494.999C408.146 494.379 408.989 493.479 409.669 492.302C410.349 491.124 410.709 489.956 410.75 488.797C410.785 487.616 410.513 486.535 409.934 485.554C409.341 484.565 408.483 483.747 407.361 483.099C406.28 482.475 405.181 482.154 404.064 482.138C402.947 482.121 401.905 482.406 400.937 482.993C399.978 483.566 399.179 484.407 398.539 485.515ZM401.444 486.195C401.962 485.33 402.678 484.811 403.591 484.636C404.505 484.461 405.412 484.634 406.313 485.154C407.13 485.626 407.678 486.293 407.956 487.156C408.242 488.005 408.185 488.904 407.783 489.855L401.444 486.195ZM388.136 471.999C387.263 471.495 386.379 471.234 385.484 471.217C384.576 471.191 383.715 471.433 382.903 471.943C382.077 472.446 381.364 473.217 380.764 474.256L376.864 481.011L379.213 482.367L382.909 475.965C383.501 474.94 384.209 474.305 385.034 474.06C385.867 473.802 386.727 473.929 387.613 474.441C388.5 474.953 389.047 475.638 389.253 476.496C389.454 477.333 389.258 478.264 388.666 479.289L384.97 485.691L387.34 487.059L396.22 471.678L393.85 470.31L390.814 475.569C390.693 474.852 390.403 474.186 389.945 473.57C389.474 472.947 388.871 472.423 388.136 471.999ZM366.814 467.199C366.566 467.629 366.37 468.033 366.225 468.411L374.975 473.463C374.378 474.338 373.615 474.876 372.685 475.078C371.755 475.28 370.847 475.126 369.96 474.614C368.685 473.878 368.093 472.824 368.182 471.453L365.626 469.977C365.364 471.23 365.494 472.46 366.017 473.667C366.534 474.852 367.464 475.833 368.808 476.609C369.903 477.241 371.027 477.566 372.18 477.585C373.327 477.583 374.406 477.282 375.416 476.683C376.421 476.062 377.264 475.163 377.944 473.985C378.624 472.807 378.984 471.639 379.025 470.48C379.06 469.3 378.788 468.219 378.209 467.238C377.616 466.249 376.758 465.43 375.636 464.782C374.555 464.158 373.456 463.838 372.339 463.821C371.222 463.804 370.18 464.089 369.213 464.676C368.253 465.25 367.454 466.091 366.814 467.199ZM369.719 467.879C370.237 467.014 370.953 466.494 371.867 466.32C372.78 466.145 373.687 466.318 374.588 466.838C375.406 467.31 375.953 467.977 376.231 468.84C376.517 469.688 376.46 470.588 376.059 471.539L369.719 467.879ZM364.297 460.702C364.286 459.92 364.089 459.206 363.705 458.559C363.315 457.89 362.725 457.328 361.935 456.872L360.519 459.325L361.122 459.673C362.05 460.209 362.621 460.852 362.834 461.603C363.033 462.347 362.797 463.3 362.125 464.464L358.645 470.492L361.014 471.86L367.626 460.407L365.257 459.039L364.297 460.702ZM346.009 455.187C345.761 455.617 345.565 456.021 345.42 456.399L354.17 461.451C353.573 462.326 352.81 462.864 351.88 463.066C350.95 463.269 350.042 463.114 349.155 462.602C347.88 461.866 347.288 460.812 347.377 459.441L344.821 457.965C344.559 459.219 344.69 460.449 345.212 461.656C345.729 462.841 346.659 463.821 348.003 464.597C349.098 465.229 350.222 465.555 351.375 465.574C352.522 465.571 353.601 465.27 354.612 464.671C355.616 464.051 356.459 463.151 357.139 461.974C357.819 460.796 358.179 459.627 358.22 458.469C358.255 457.288 357.983 456.207 357.404 455.226C356.811 454.237 355.954 453.419 354.831 452.771C353.75 452.147 352.651 451.826 351.534 451.809C350.417 451.793 349.375 452.078 348.408 452.665C347.448 453.238 346.649 454.079 346.009 455.187ZM348.914 455.867C349.432 455.002 350.148 454.482 351.062 454.308C351.975 454.133 352.882 454.306 353.783 454.826C354.601 455.298 355.148 455.965 355.426 456.828C355.712 457.677 355.655 458.576 355.254 459.527L348.914 455.867ZM524.394 600.108C525.074 598.93 525.434 597.761 525.475 596.603C525.51 595.422 525.245 594.345 524.68 593.372C524.115 592.399 523.285 591.597 522.19 590.965C520.804 590.165 519.469 589.837 518.185 589.982C516.894 590.106 515.738 590.685 514.715 591.72L517.271 593.196C517.807 592.748 518.396 592.497 519.037 592.442C519.678 592.387 520.345 592.56 521.038 592.96C522.008 593.52 522.584 594.314 522.766 595.343C522.942 596.35 522.674 597.47 521.962 598.704C521.25 599.937 520.41 600.736 519.442 601.101C518.46 601.457 517.484 601.356 516.514 600.796C515.142 600.004 514.583 598.877 514.835 597.416L512.279 595.94C511.939 597.295 512.027 598.584 512.541 599.805C513.064 601.012 514.004 602.007 515.362 602.791C516.457 603.423 517.567 603.741 518.692 603.744C519.825 603.733 520.89 603.424 521.887 602.817C522.878 602.189 523.714 601.285 524.394 600.108ZM510.561 587.077L506.901 593.417C506.653 593.846 506.376 594.102 506.07 594.184C505.758 594.244 505.36 594.134 504.875 593.854L503.42 593.014L502.28 594.989L504.151 596.069C505.218 596.685 506.179 596.907 507.035 596.736C507.891 596.566 508.643 595.919 509.291 594.797L512.951 588.457L514.302 589.237L515.418 587.304L514.067 586.524L515.711 583.677L513.321 582.297L511.677 585.144L508.892 583.536L507.776 585.469L510.561 587.077ZM503.379 582.57C503.368 581.788 503.171 581.074 502.787 580.427C502.397 579.759 501.807 579.197 501.017 578.741L499.601 581.193L500.204 581.541C501.132 582.077 501.703 582.721 501.916 583.472C502.115 584.215 501.879 585.168 501.207 586.332L497.727 592.36L500.096 593.728L506.708 582.276L504.339 580.908L503.379 582.57ZM498.63 572.374L489.75 587.754L492.119 589.122L500.999 573.742L498.63 572.374ZM473.834 569.892L478.033 572.316L475.549 576.618L477.752 577.89L480.236 573.588L484.435 576.012L485.587 574.016L481.388 571.592L483.872 567.29L481.669 566.018L479.185 570.32L474.986 567.896L473.834 569.892ZM465.129 565.835C465.793 564.685 466.146 563.531 466.186 562.372C466.213 561.205 465.958 560.143 465.421 559.186C464.877 558.208 464.107 557.43 463.109 556.854C462.208 556.334 461.322 556.062 460.448 556.039C459.569 555.993 458.777 556.117 458.071 556.412L459.031 554.749L456.641 553.369L450.029 564.822L452.419 566.202L453.403 564.497C453.493 565.27 453.78 566.036 454.265 566.796C454.75 567.557 455.436 568.193 456.323 568.705C457.306 569.273 458.351 569.543 459.457 569.516C460.57 569.476 461.629 569.145 462.634 568.524C463.634 567.882 464.465 566.986 465.129 565.835ZM455.731 560.465C456.187 559.675 456.749 559.085 457.418 558.695C458.073 558.297 458.751 558.098 459.454 558.097C460.156 558.096 460.813 558.272 461.422 558.624C462.032 558.976 462.512 559.456 462.863 560.065C463.221 560.66 463.399 561.345 463.395 562.119C463.386 562.871 463.153 563.642 462.697 564.431C462.241 565.221 461.682 565.822 461.019 566.234C460.343 566.638 459.649 566.847 458.939 566.862C458.222 566.855 457.566 566.679 456.97 566.335C456.361 565.983 455.88 565.503 455.53 564.894C455.179 564.285 455.013 563.597 455.03 562.831C455.041 562.044 455.275 561.255 455.731 560.465ZM453.427 546.276L444.547 561.657L446.917 563.025L455.797 547.644L453.427 546.276ZM444.168 548.745L440.508 555.085C440.26 555.514 439.983 555.77 439.677 555.852C439.365 555.912 438.967 555.802 438.482 555.522L437.027 554.682L435.887 556.657L437.758 557.737C438.825 558.353 439.786 558.575 440.642 558.404C441.498 558.234 442.25 557.587 442.898 556.465L446.558 550.125L447.909 550.905L449.025 548.972L447.674 548.192L449.318 545.345L446.928 543.965L445.284 546.812L442.499 545.204L441.383 547.137L444.168 548.745ZM420.899 539.329L425.097 541.753L422.613 546.056L424.816 547.328L427.3 543.025L431.499 545.449L432.651 543.454L428.452 541.03L430.936 536.727L428.733 535.455L426.249 539.758L422.051 537.334L420.899 539.329ZM403.803 538.382C404.703 538.902 405.606 539.211 406.51 539.308C407.409 539.384 408.226 539.264 408.962 538.95C409.706 538.622 410.291 538.119 410.719 537.442L408.266 536.026C407.945 536.487 407.48 536.764 406.873 536.857C406.259 536.927 405.633 536.779 404.996 536.411C404.331 536.027 403.89 535.606 403.674 535.149C403.452 534.669 403.457 534.229 403.689 533.827C403.937 533.397 404.329 533.199 404.864 533.231C405.386 533.255 406.163 533.398 407.193 533.661C408.188 533.921 409.02 534.097 409.689 534.187C410.357 534.277 411.024 534.21 411.69 533.985C412.342 533.751 412.884 533.261 413.316 532.512C413.668 531.903 413.808 531.245 413.736 530.538C413.671 529.817 413.391 529.119 412.893 528.444C412.382 527.761 411.691 527.168 410.818 526.664C409.515 525.912 408.277 525.64 407.103 525.849C405.923 526.037 404.978 526.682 404.266 527.787L406.636 529.155C406.973 528.666 407.417 528.377 407.967 528.288C408.518 528.199 409.111 528.339 409.749 528.707C410.372 529.067 410.782 529.461 410.979 529.888C411.175 530.316 411.162 530.724 410.938 531.112C410.762 531.417 410.503 531.609 410.161 531.689C409.819 531.769 409.453 531.779 409.063 531.72C408.68 531.646 408.125 531.52 407.397 531.34C406.438 531.082 405.627 530.918 404.964 530.85C404.296 530.76 403.64 530.824 402.996 531.044C402.352 531.263 401.811 531.736 401.373 532.462C400.997 533.114 400.841 533.799 400.905 534.52C400.97 535.241 401.25 535.939 401.747 536.614C402.231 537.281 402.916 537.87 403.803 538.382ZM397.761 519.126C396.888 518.622 396.004 518.361 395.109 518.343C394.2 518.317 393.34 518.559 392.528 519.07C391.702 519.572 390.989 520.343 390.389 521.382L386.489 528.137L388.838 529.493L392.534 523.091C393.126 522.066 393.834 521.431 394.659 521.187C395.492 520.928 396.351 521.055 397.238 521.567C398.125 522.079 398.672 522.764 398.878 523.623C399.079 524.459 398.883 525.39 398.291 526.415L394.595 532.817L396.965 534.185L405.845 518.804L403.475 517.436L400.439 522.695C400.317 521.978 400.028 521.312 399.57 520.696C399.098 520.073 398.496 519.55 397.761 519.126ZM384.162 514.101L386.282 515.325L380.786 524.844L383.176 526.224L388.672 516.705L390.023 517.485L391.139 515.552L389.788 514.772L390.256 513.961C391.016 512.645 391.222 511.489 390.873 510.493C390.518 509.475 389.592 508.534 388.096 507.67L386.956 509.645C387.676 510.061 388.102 510.491 388.233 510.936C388.372 511.368 388.25 511.916 387.866 512.581L387.398 513.392L385.278 512.168L384.162 514.101ZM379.297 511.292L375.637 517.632C375.389 518.061 375.112 518.317 374.806 518.399C374.495 518.459 374.096 518.349 373.611 518.069L372.156 517.229L371.016 519.204L372.887 520.284C373.954 520.9 374.915 521.122 375.771 520.951C376.628 520.781 377.38 520.134 378.028 519.012L381.688 512.672L383.039 513.452L384.155 511.519L382.804 510.739L384.448 507.892L382.057 506.512L380.413 509.359L377.628 507.751L376.512 509.684L379.297 511.292ZM360.23 510.15L362.376 498.945L359.861 497.493L357.614 511.466L360.44 513.098L371.396 504.153L368.861 502.689L360.23 510.15Z" fill="black"/>
</g>
<rect x="-8.19615" y="2.19615" width="396" height="841" rx="36" transform="matrix(-0.866025 -0.5 -0.5 0.866025 828.84 260.222)" stroke="black" stroke-width="12"/>
<path d="M735.141 201.733L598.421 122.798L590.421 136.654C587.935 140.959 589.41 146.463 593.715 148.948L714.847 218.884C719.152 221.369 724.656 219.894 727.141 215.59L735.141 201.733Z" fill="black"/>
</g>
<rect x="-9.56218" y="2.56218" width="412" height="859" rx="35" transform="matrix(-0.866025 -0.5 -0.5 0.866025 839.768 254.562)" stroke="#656566" stroke-width="14"/>
</g>
<rect x="-3.41506" y="0.915063" width="421" height="868" rx="39.5" transform="matrix(-0.866025 -0.5 -0.5 0.866025 850.415 257.415)" stroke="black" stroke-width="5"/>
<path d="M405.269 190.26C402.878 188.88 399.82 189.699 398.439 192.09L338.939 295.147C337.558 297.539 338.378 300.597 340.769 301.978L405.269 190.26Z" fill="black"/>
<path d="M325.269 328.824C322.878 327.444 319.82 328.263 318.439 330.654L288.439 382.616C287.058 385.007 287.878 388.065 290.269 389.446L325.269 328.824Z" fill="black"/>
<path d="M753.16 447.696C754.541 445.304 753.722 442.246 751.33 440.865L716.33 501.487C718.722 502.868 721.78 502.049 723.16 499.657L753.16 447.696Z" fill="black"/>
<path d="M713.16 516.978C714.541 514.586 713.722 511.528 711.33 510.147L676.33 570.769C678.722 572.15 681.78 571.331 683.16 568.939L713.16 516.978Z" fill="black"/>
</g>
<defs>
<filter id="filter0_ddd_360_326" x="0.90332" y="0" width="925.427" height="1085.04" filterUnits="userSpaceOnUse" color-interpolation-filters="sRGB">
<feFlood flood-opacity="0" result="BackgroundImageFix"/>
<feColorMatrix in="SourceAlpha" type="matrix" values="0 0 0 0 0 0 0 0 0 0 0 0 0 0 0 0 0 0 127 0" result="hardAlpha"/>
<feOffset dy="20"/>
<feGaussianBlur stdDeviation="25"/>
<feComposite in2="hardAlpha" operator="out"/>
<feColorMatrix type="matrix" values="0 0 0 0 0 0 0 0 0 0 0 0 0 0 0 0 0 0 0.25 0"/>
<feBlend mode="normal" in2="BackgroundImageFix" result="effect1_dropShadow_360_326"/>
<feColorMatrix in="SourceAlpha" type="matrix" values="0 0 0 0 0 0 0 0 0 0 0 0 0 0 0 0 0 0 127 0" result="hardAlpha"/>
<feOffset dx="20" dy="4"/>
<feGaussianBlur stdDeviation="25"/>
<feComposite in2="hardAlpha" operator="out"/>
<feColorMatrix type="matrix" values="0 0 0 0 0 0 0 0 0 0 0 0 0 0 0 0 0 0 0.25 0"/>
<feBlend mode="normal" in2="effect1_dropShadow_360_326" result="effect2_dropShadow_360_326"/>
<feColorMatrix in="SourceAlpha" type="matrix" values="0 0 0 0 0 0 0 0 0 0 0 0 0 0 0 0 0 0 127 0" result="hardAlpha"/>
<feOffset dy="4"/>
<feGaussianBlur stdDeviation="2"/>
<feComposite in2="hardAlpha" operator="out"/>
<feColorMatrix type="matrix" values="0 0 0 0 0 0 0 0 0 0 0 0 0 0 0 0 0 0 0.25 0"/>
<feBlend mode="normal" in2="effect2_dropShadow_360_326" result="effect3_dropShadow_360_326"/>
<feBlend mode="normal" in="SourceGraphic" in2="effect3_dropShadow_360_326" result="shape"/>
</filter>
<clipPath id="clip0_360_326">
<rect width="426" height="873" rx="42" transform="matrix(-0.866025 -0.5 -0.5 0.866025 856.33 259)" fill="white"/>
</clipPath>
<clipPath id="clip1_360_326">
<rect width="426" height="873" rx="42" transform="matrix(-0.866025 -0.5 -0.5 0.866025 856.33 259)" fill="white"/>
</clipPath>
<clipPath id="clip2_360_326">
<rect width="408" height="853" rx="42" transform="matrix(-0.866025 -0.5 -0.5 0.866025 843.036 264.026)" fill="white"/>
</clipPath>
</defs>
</svg>
