<svg width="555" height="1039" viewBox="0 0 555 1039" fill="none" xmlns="http://www.w3.org/2000/svg">
<g filter="url(#filter0_ddd_360_339)">
<g clip-path="url(#clip0_360_339)">
<rect width="390" height="844" transform="translate(73 116)" fill="white"/>
<path d="M150.714 516.288C150.714 517.136 150.514 517.936 150.114 518.688C149.714 519.44 149.074 520.056 148.194 520.536C147.314 521 146.186 521.232 144.81 521.232H141.786V528H139.05V511.32H144.81C146.09 511.32 147.17 511.544 148.05 511.992C148.946 512.424 149.61 513.016 150.042 513.768C150.49 514.52 150.714 515.36 150.714 516.288ZM144.81 519C145.85 519 146.626 518.768 147.138 518.304C147.65 517.824 147.906 517.152 147.906 516.288C147.906 514.464 146.874 513.552 144.81 513.552H141.786V519H144.81ZM152.411 521.328C152.411 520 152.683 518.824 153.227 517.8C153.787 516.776 154.539 515.984 155.483 515.424C156.443 514.848 157.499 514.56 158.651 514.56C159.691 514.56 160.595 514.768 161.363 515.184C162.147 515.584 162.771 516.088 163.235 516.696V514.776H165.995V528H163.235V526.032C162.771 526.656 162.139 527.176 161.339 527.592C160.539 528.008 159.627 528.216 158.603 528.216C157.467 528.216 156.427 527.928 155.483 527.352C154.539 526.76 153.787 525.944 153.227 524.904C152.683 523.848 152.411 522.656 152.411 521.328ZM163.235 521.376C163.235 520.464 163.043 519.672 162.659 519C162.291 518.328 161.803 517.816 161.195 517.464C160.587 517.112 159.931 516.936 159.227 516.936C158.523 516.936 157.867 517.112 157.259 517.464C156.651 517.8 156.155 518.304 155.771 518.976C155.403 519.632 155.219 520.416 155.219 521.328C155.219 522.24 155.403 523.04 155.771 523.728C156.155 524.416 156.651 524.944 157.259 525.312C157.883 525.664 158.539 525.84 159.227 525.84C159.931 525.84 160.587 525.664 161.195 525.312C161.803 524.96 162.291 524.448 162.659 523.776C163.043 523.088 163.235 522.288 163.235 521.376ZM174.389 528.216C173.349 528.216 172.413 528.032 171.581 527.664C170.765 527.28 170.117 526.768 169.637 526.128C169.157 525.472 168.901 524.744 168.869 523.944H171.701C171.749 524.504 172.013 524.976 172.493 525.36C172.989 525.728 173.605 525.912 174.341 525.912C175.109 525.912 175.701 525.768 176.117 525.48C176.549 525.176 176.765 524.792 176.765 524.328C176.765 523.832 176.525 523.464 176.045 523.224C175.581 522.984 174.837 522.72 173.813 522.432C172.821 522.16 172.013 521.896 171.389 521.64C170.765 521.384 170.221 520.992 169.757 520.464C169.309 519.936 169.085 519.24 169.085 518.376C169.085 517.672 169.293 517.032 169.709 516.456C170.125 515.864 170.717 515.4 171.485 515.064C172.269 514.728 173.165 514.56 174.173 514.56C175.677 514.56 176.885 514.944 177.797 515.712C178.725 516.464 179.221 517.496 179.285 518.808H176.549C176.501 518.216 176.261 517.744 175.829 517.392C175.397 517.04 174.813 516.864 174.077 516.864C173.357 516.864 172.805 517 172.421 517.272C172.037 517.544 171.845 517.904 171.845 518.352C171.845 518.704 171.973 519 172.229 519.24C172.485 519.48 172.797 519.672 173.165 519.816C173.533 519.944 174.077 520.112 174.797 520.32C175.757 520.576 176.541 520.84 177.149 521.112C177.773 521.368 178.309 521.752 178.757 522.264C179.205 522.776 179.437 523.456 179.453 524.304C179.453 525.056 179.245 525.728 178.829 526.32C178.413 526.912 177.821 527.376 177.053 527.712C176.301 528.048 175.413 528.216 174.389 528.216ZM185.601 517.008V524.328C185.601 524.824 185.713 525.184 185.937 525.408C186.177 525.616 186.577 525.72 187.137 525.72H188.817V528H186.657C185.425 528 184.481 527.712 183.825 527.136C183.169 526.56 182.841 525.624 182.841 524.328V517.008H181.281V514.776H182.841V511.488H185.601V514.776H188.817V517.008H185.601ZM203.459 521.064C203.459 521.56 203.427 522.008 203.363 522.408H193.259C193.339 523.464 193.731 524.312 194.435 524.952C195.139 525.592 196.003 525.912 197.027 525.912C198.499 525.912 199.539 525.296 200.147 524.064H203.099C202.699 525.28 201.971 526.28 200.915 527.064C199.875 527.832 198.579 528.216 197.027 528.216C195.763 528.216 194.627 527.936 193.619 527.376C192.627 526.8 191.843 526 191.267 524.976C190.707 523.936 190.427 522.736 190.427 521.376C190.427 520.016 190.699 518.824 191.243 517.8C191.803 516.76 192.579 515.96 193.571 515.4C194.579 514.84 195.731 514.56 197.027 514.56C198.275 514.56 199.387 514.832 200.363 515.376C201.339 515.92 202.099 516.688 202.643 517.68C203.187 518.656 203.459 519.784 203.459 521.064ZM200.603 520.2C200.587 519.192 200.227 518.384 199.523 517.776C198.819 517.168 197.947 516.864 196.907 516.864C195.963 516.864 195.155 517.168 194.483 517.776C193.811 518.368 193.411 519.176 193.283 520.2H200.603ZM215.578 517.008V524.328C215.578 524.824 215.69 525.184 215.914 525.408C216.154 525.616 216.554 525.72 217.114 525.72H218.794V528H216.634C215.402 528 214.458 527.712 213.802 527.136C213.146 526.56 212.818 525.624 212.818 524.328V517.008H211.258V514.776H212.818V511.488H215.578V514.776H218.794V517.008H215.578ZM227.052 528.216C225.804 528.216 224.676 527.936 223.668 527.376C222.66 526.8 221.868 526 221.292 524.976C220.716 523.936 220.428 522.736 220.428 521.376C220.428 520.032 220.724 518.84 221.316 517.8C221.908 516.76 222.716 515.96 223.74 515.4C224.764 514.84 225.908 514.56 227.172 514.56C228.436 514.56 229.58 514.84 230.604 515.4C231.628 515.96 232.436 516.76 233.028 517.8C233.62 518.84 233.916 520.032 233.916 521.376C233.916 522.72 233.612 523.912 233.004 524.952C232.396 525.992 231.564 526.8 230.508 527.376C229.468 527.936 228.316 528.216 227.052 528.216ZM227.052 525.84C227.756 525.84 228.412 525.672 229.02 525.336C229.644 525 230.148 524.496 230.532 523.824C230.916 523.152 231.108 522.336 231.108 521.376C231.108 520.416 230.924 519.608 230.556 518.952C230.188 518.28 229.7 517.776 229.092 517.44C228.484 517.104 227.828 516.936 227.124 516.936C226.42 516.936 225.764 517.104 225.156 517.44C224.564 517.776 224.092 518.28 223.74 518.952C223.388 519.608 223.212 520.416 223.212 521.376C223.212 522.8 223.572 523.904 224.292 524.688C225.028 525.456 225.948 525.84 227.052 525.84ZM251.519 528L247.679 521.328H245.591V528H242.855V511.32H248.615C249.895 511.32 250.975 511.544 251.855 511.992C252.751 512.44 253.415 513.04 253.847 513.792C254.295 514.544 254.519 515.384 254.519 516.312C254.519 517.4 254.199 518.392 253.559 519.288C252.935 520.168 251.967 520.768 250.655 521.088L254.783 528H251.519ZM245.591 519.144H248.615C249.639 519.144 250.407 518.888 250.919 518.376C251.447 517.864 251.711 517.176 251.711 516.312C251.711 515.448 251.455 514.776 250.943 514.296C250.431 513.8 249.655 513.552 248.615 513.552H245.591V519.144ZM270.139 521.064C270.139 521.56 270.107 522.008 270.043 522.408H259.939C260.019 523.464 260.411 524.312 261.115 524.952C261.819 525.592 262.683 525.912 263.707 525.912C265.179 525.912 266.219 525.296 266.827 524.064H269.779C269.379 525.28 268.651 526.28 267.595 527.064C266.555 527.832 265.259 528.216 263.707 528.216C262.443 528.216 261.307 527.936 260.299 527.376C259.307 526.8 258.523 526 257.947 524.976C257.387 523.936 257.107 522.736 257.107 521.376C257.107 520.016 257.379 518.824 257.923 517.8C258.483 516.76 259.259 515.96 260.251 515.4C261.259 514.84 262.411 514.56 263.707 514.56C264.955 514.56 266.067 514.832 267.043 515.376C268.019 515.92 268.779 516.688 269.323 517.68C269.867 518.656 270.139 519.784 270.139 521.064ZM267.283 520.2C267.267 519.192 266.907 518.384 266.203 517.776C265.499 517.168 264.627 516.864 263.587 516.864C262.643 516.864 261.835 517.168 261.163 517.776C260.491 518.368 260.091 519.176 259.963 520.2H267.283ZM275.567 516.72C276.031 516.112 276.663 515.6 277.463 515.184C278.263 514.768 279.167 514.56 280.175 514.56C281.327 514.56 282.375 514.848 283.319 515.424C284.279 515.984 285.031 516.776 285.575 517.8C286.119 518.824 286.391 520 286.391 521.328C286.391 522.656 286.119 523.848 285.575 524.904C285.031 525.944 284.279 526.76 283.319 527.352C282.375 527.928 281.327 528.216 280.175 528.216C279.167 528.216 278.271 528.016 277.487 527.616C276.703 527.2 276.063 526.688 275.567 526.08V534.288H272.831V514.776H275.567V516.72ZM283.607 521.328C283.607 520.416 283.415 519.632 283.031 518.976C282.663 518.304 282.167 517.8 281.543 517.464C280.935 517.112 280.279 516.936 279.575 516.936C278.887 516.936 278.231 517.112 277.607 517.464C276.999 517.816 276.503 518.328 276.119 519C275.751 519.672 275.567 520.464 275.567 521.376C275.567 522.288 275.751 523.088 276.119 523.776C276.503 524.448 276.999 524.96 277.607 525.312C278.231 525.664 278.887 525.84 279.575 525.84C280.279 525.84 280.935 525.664 281.543 525.312C282.167 524.944 282.663 524.416 283.031 523.728C283.415 523.04 283.607 522.24 283.607 521.328ZM291.833 510.24V528H289.097V510.24H291.833ZM294.513 521.328C294.513 520 294.785 518.824 295.329 517.8C295.889 516.776 296.641 515.984 297.585 515.424C298.545 514.848 299.601 514.56 300.753 514.56C301.793 514.56 302.697 514.768 303.465 515.184C304.249 515.584 304.873 516.088 305.337 516.696V514.776H308.097V528H305.337V526.032C304.873 526.656 304.241 527.176 303.441 527.592C302.641 528.008 301.729 528.216 300.705 528.216C299.569 528.216 298.529 527.928 297.585 527.352C296.641 526.76 295.889 525.944 295.329 524.904C294.785 523.848 294.513 522.656 294.513 521.328ZM305.337 521.376C305.337 520.464 305.145 519.672 304.761 519C304.393 518.328 303.905 517.816 303.297 517.464C302.689 517.112 302.033 516.936 301.329 516.936C300.625 516.936 299.969 517.112 299.361 517.464C298.753 517.8 298.257 518.304 297.873 518.976C297.505 519.632 297.321 520.416 297.321 521.328C297.321 522.24 297.505 523.04 297.873 523.728C298.257 524.416 298.753 524.944 299.361 525.312C299.985 525.664 300.641 525.84 301.329 525.84C302.033 525.84 302.689 525.664 303.297 525.312C303.905 524.96 304.393 524.448 304.761 523.776C305.145 523.088 305.337 522.288 305.337 521.376ZM310.779 521.376C310.779 520.016 311.051 518.824 311.595 517.8C312.155 516.76 312.923 515.96 313.899 515.4C314.875 514.84 315.995 514.56 317.259 514.56C318.859 514.56 320.179 514.944 321.219 515.712C322.275 516.464 322.987 517.544 323.355 518.952H320.403C320.163 518.296 319.779 517.784 319.251 517.416C318.723 517.048 318.059 516.864 317.259 516.864C316.139 516.864 315.243 517.264 314.571 518.064C313.915 518.848 313.587 519.952 313.587 521.376C313.587 522.8 313.915 523.912 314.571 524.712C315.243 525.512 316.139 525.912 317.259 525.912C318.843 525.912 319.891 525.216 320.403 523.824H323.355C322.971 525.168 322.251 526.24 321.195 527.04C320.139 527.824 318.827 528.216 317.259 528.216C315.995 528.216 314.875 527.936 313.899 527.376C312.923 526.8 312.155 526 311.595 524.976C311.051 523.936 310.779 522.736 310.779 521.376ZM338.201 521.064C338.201 521.56 338.169 522.008 338.105 522.408H328.001C328.081 523.464 328.473 524.312 329.177 524.952C329.881 525.592 330.745 525.912 331.769 525.912C333.241 525.912 334.281 525.296 334.889 524.064H337.841C337.441 525.28 336.713 526.28 335.657 527.064C334.617 527.832 333.321 528.216 331.769 528.216C330.505 528.216 329.369 527.936 328.361 527.376C327.369 526.8 326.585 526 326.009 524.976C325.449 523.936 325.169 522.736 325.169 521.376C325.169 520.016 325.441 518.824 325.985 517.8C326.545 516.76 327.321 515.96 328.313 515.4C329.321 514.84 330.473 514.56 331.769 514.56C333.017 514.56 334.129 514.832 335.105 515.376C336.081 515.92 336.841 516.688 337.385 517.68C337.929 518.656 338.201 519.784 338.201 521.064ZM335.345 520.2C335.329 519.192 334.969 518.384 334.265 517.776C333.561 517.168 332.689 516.864 331.649 516.864C330.705 516.864 329.897 517.168 329.225 517.776C328.553 518.368 328.153 519.176 328.025 520.2H335.345ZM353.968 514.56C354.976 514.56 355.872 514.776 356.656 515.208C357.456 515.64 358.08 516.28 358.528 517.128C358.992 517.976 359.224 519 359.224 520.2V528H356.512V520.608C356.512 519.424 356.216 518.52 355.624 517.896C355.032 517.256 354.224 516.936 353.2 516.936C352.176 516.936 351.36 517.256 350.752 517.896C350.16 518.52 349.864 519.424 349.864 520.608V528H347.128V510.24H349.864V516.312C350.328 515.752 350.912 515.32 351.616 515.016C352.336 514.712 353.12 514.56 353.968 514.56ZM374.834 521.064C374.834 521.56 374.802 522.008 374.738 522.408H364.634C364.714 523.464 365.106 524.312 365.81 524.952C366.514 525.592 367.378 525.912 368.402 525.912C369.874 525.912 370.914 525.296 371.522 524.064H374.474C374.074 525.28 373.346 526.28 372.29 527.064C371.25 527.832 369.954 528.216 368.402 528.216C367.138 528.216 366.002 527.936 364.994 527.376C364.002 526.8 363.218 526 362.642 524.976C362.082 523.936 361.802 522.736 361.802 521.376C361.802 520.016 362.074 518.824 362.618 517.8C363.178 516.76 363.954 515.96 364.946 515.4C365.954 514.84 367.106 514.56 368.402 514.56C369.65 514.56 370.762 514.832 371.738 515.376C372.714 515.92 373.474 516.688 374.018 517.68C374.562 518.656 374.834 519.784 374.834 521.064ZM371.978 520.2C371.962 519.192 371.602 518.384 370.898 517.776C370.194 517.168 369.322 516.864 368.282 516.864C367.338 516.864 366.53 517.168 365.858 517.776C365.186 518.368 364.786 519.176 364.658 520.2H371.978ZM380.263 516.696C380.663 516.024 381.191 515.504 381.847 515.136C382.519 514.752 383.311 514.56 384.223 514.56V517.392H383.527C382.455 517.392 381.639 517.664 381.079 518.208C380.535 518.752 380.263 519.696 380.263 521.04V528H377.527V514.776H380.263V516.696ZM398.858 521.064C398.858 521.56 398.826 522.008 398.762 522.408H388.658C388.738 523.464 389.13 524.312 389.834 524.952C390.538 525.592 391.402 525.912 392.426 525.912C393.898 525.912 394.938 525.296 395.546 524.064H398.497C398.098 525.28 397.37 526.28 396.314 527.064C395.274 527.832 393.978 528.216 392.426 528.216C391.162 528.216 390.026 527.936 389.018 527.376C388.026 526.8 387.242 526 386.666 524.976C386.106 523.936 385.826 522.736 385.826 521.376C385.826 520.016 386.098 518.824 386.642 517.8C387.202 516.76 387.978 515.96 388.97 515.4C389.978 514.84 391.13 514.56 392.426 514.56C393.674 514.56 394.786 514.832 395.762 515.376C396.738 515.92 397.498 516.688 398.042 517.68C398.586 518.656 398.858 519.784 398.858 521.064ZM396.002 520.2C395.986 519.192 395.626 518.384 394.922 517.776C394.218 517.168 393.346 516.864 392.306 516.864C391.362 516.864 390.554 517.168 389.882 517.776C389.21 518.368 388.81 519.176 388.682 520.2H396.002ZM171.911 557.376C171.911 556.016 172.183 554.824 172.727 553.8C173.287 552.76 174.055 551.96 175.031 551.4C176.007 550.84 177.127 550.56 178.391 550.56C179.991 550.56 181.311 550.944 182.351 551.712C183.407 552.464 184.119 553.544 184.487 554.952H181.535C181.295 554.296 180.911 553.784 180.383 553.416C179.855 553.048 179.191 552.864 178.391 552.864C177.271 552.864 176.375 553.264 175.703 554.064C175.047 554.848 174.719 555.952 174.719 557.376C174.719 558.8 175.047 559.912 175.703 560.712C176.375 561.512 177.271 561.912 178.391 561.912C179.975 561.912 181.023 561.216 181.535 559.824H184.487C184.103 561.168 183.383 562.24 182.327 563.04C181.271 563.824 179.959 564.216 178.391 564.216C177.127 564.216 176.007 563.936 175.031 563.376C174.055 562.8 173.287 562 172.727 560.976C172.183 559.936 171.911 558.736 171.911 557.376ZM190.406 553.008V560.328C190.406 560.824 190.518 561.184 190.742 561.408C190.982 561.616 191.382 561.72 191.942 561.72H193.622V564H191.462C190.23 564 189.286 563.712 188.63 563.136C187.974 562.56 187.646 561.624 187.646 560.328V553.008H186.086V550.776H187.646V547.488H190.406V550.776H193.622V553.008H190.406ZM198.88 552.696C199.28 552.024 199.808 551.504 200.464 551.136C201.136 550.752 201.928 550.56 202.84 550.56V553.392H202.144C201.072 553.392 200.256 553.664 199.696 554.208C199.152 554.752 198.88 555.696 198.88 557.04V564H196.144V550.776H198.88V552.696ZM208.091 546.24V564H205.355V546.24H208.091ZM230.805 556.488H225.957V561.456H223.413V556.488H218.565V554.184H223.413V549.216H225.957V554.184H230.805V556.488ZM240.372 557.328C240.372 556 240.644 554.824 241.188 553.8C241.748 552.776 242.5 551.984 243.444 551.424C244.404 550.848 245.46 550.56 246.612 550.56C247.652 550.56 248.556 550.768 249.324 551.184C250.108 551.584 250.732 552.088 251.196 552.696V550.776H253.956V564H251.196V562.032C250.732 562.656 250.1 563.176 249.3 563.592C248.5 564.008 247.588 564.216 246.564 564.216C245.428 564.216 244.388 563.928 243.444 563.352C242.5 562.76 241.748 561.944 241.188 560.904C240.644 559.848 240.372 558.656 240.372 557.328ZM251.196 557.376C251.196 556.464 251.004 555.672 250.62 555C250.252 554.328 249.764 553.816 249.156 553.464C248.548 553.112 247.892 552.936 247.188 552.936C246.484 552.936 245.828 553.112 245.22 553.464C244.612 553.8 244.116 554.304 243.732 554.976C243.364 555.632 243.18 556.416 243.18 557.328C243.18 558.24 243.364 559.04 243.732 559.728C244.116 560.416 244.612 560.944 245.22 561.312C245.844 561.664 246.5 561.84 247.188 561.84C247.892 561.84 248.548 561.664 249.156 561.312C249.764 560.96 250.252 560.448 250.62 559.776C251.004 559.088 251.196 558.288 251.196 557.376ZM260.286 546.24V564H257.55V546.24H260.286ZM267.07 553.008V560.328C267.07 560.824 267.182 561.184 267.406 561.408C267.646 561.616 268.046 561.72 268.606 561.72H270.286V564H268.126C266.894 564 265.95 563.712 265.294 563.136C264.638 562.56 264.31 561.624 264.31 560.328V553.008H262.75V550.776H264.31V547.488H267.07V550.776H270.286V553.008H267.07ZM291.93 556.488H287.082V561.456H284.538V556.488H279.69V554.184H284.538V549.216H287.082V554.184H291.93V556.488ZM307.209 564.216C306.169 564.216 305.233 564.032 304.401 563.664C303.585 563.28 302.937 562.768 302.457 562.128C301.977 561.472 301.721 560.744 301.689 559.944H304.521C304.569 560.504 304.833 560.976 305.313 561.36C305.809 561.728 306.425 561.912 307.161 561.912C307.929 561.912 308.521 561.768 308.937 561.48C309.369 561.176 309.585 560.792 309.585 560.328C309.585 559.832 309.345 559.464 308.865 559.224C308.401 558.984 307.657 558.72 306.633 558.432C305.641 558.16 304.833 557.896 304.209 557.64C303.585 557.384 303.041 556.992 302.577 556.464C302.129 555.936 301.905 555.24 301.905 554.376C301.905 553.672 302.113 553.032 302.529 552.456C302.945 551.864 303.537 551.4 304.305 551.064C305.089 550.728 305.985 550.56 306.993 550.56C308.497 550.56 309.705 550.944 310.617 551.712C311.545 552.464 312.041 553.496 312.105 554.808H309.369C309.321 554.216 309.081 553.744 308.649 553.392C308.217 553.04 307.633 552.864 306.897 552.864C306.177 552.864 305.625 553 305.241 553.272C304.857 553.544 304.665 553.904 304.665 554.352C304.665 554.704 304.793 555 305.049 555.24C305.305 555.48 305.617 555.672 305.985 555.816C306.353 555.944 306.897 556.112 307.617 556.32C308.577 556.576 309.361 556.84 309.969 557.112C310.593 557.368 311.129 557.752 311.577 558.264C312.025 558.776 312.257 559.456 312.273 560.304C312.273 561.056 312.065 561.728 311.649 562.32C311.233 562.912 310.641 563.376 309.873 563.712C309.121 564.048 308.233 564.216 307.209 564.216ZM322.07 550.56C323.078 550.56 323.974 550.776 324.758 551.208C325.558 551.64 326.182 552.28 326.63 553.128C327.094 553.976 327.326 555 327.326 556.2V564H324.614V556.608C324.614 555.424 324.318 554.52 323.726 553.896C323.134 553.256 322.326 552.936 321.302 552.936C320.278 552.936 319.462 553.256 318.854 553.896C318.262 554.52 317.966 555.424 317.966 556.608V564H315.23V546.24H317.966V552.312C318.43 551.752 319.014 551.32 319.718 551.016C320.438 550.712 321.222 550.56 322.07 550.56ZM336.36 553.008H333.912V564H331.152V553.008H329.592V550.776H331.152V549.84C331.152 548.32 331.552 547.216 332.352 546.528C333.168 545.824 334.44 545.472 336.168 545.472V547.752C335.336 547.752 334.752 547.912 334.416 548.232C334.08 548.536 333.912 549.072 333.912 549.84V550.776H336.36V553.008ZM341.976 553.008V560.328C341.976 560.824 342.088 561.184 342.312 561.408C342.552 561.616 342.952 561.72 343.512 561.72H345.192V564H343.032C341.8 564 340.856 563.712 340.2 563.136C339.544 562.56 339.216 561.624 339.216 560.328V553.008H337.656V550.776H339.216V547.488H341.976V550.776H345.192V553.008H341.976ZM359.06 561.552L362.804 550.776H365.708L360.668 564H357.404L352.388 550.776H355.316L359.06 561.552Z" fill="black"/>
<rect x="70" y="113" width="396" height="841" rx="36" stroke="black" stroke-width="12"/>
<path d="M188.586 107H346.457V123C346.457 127.971 342.428 132 337.457 132H197.586C192.615 132 188.586 127.971 188.586 123V107Z" fill="black"/>
<rect x="62" y="103" width="412" height="859" rx="35" stroke="#656566" stroke-width="14"/>
</g>
<rect x="57.5" y="98.5" width="421" height="868" rx="39.5" stroke="black" stroke-width="5"/>
<path d="M480 166C482.761 166 485 168.239 485 171V290C485 292.761 482.761 295 480 295V166Z" fill="black"/>
<path d="M480 326C482.761 326 485 328.239 485 331V391C485 393.761 482.761 396 480 396V326Z" fill="black"/>
<path d="M50 215C50 212.239 52.2386 210 55 210V280C52.2386 280 50 277.761 50 275V215Z" fill="black"/>
<path d="M50 295C50 292.239 52.2386 290 55 290V360C52.2386 360 50 357.761 50 355V295Z" fill="black"/>
</g>
<defs>
<filter id="filter0_ddd_360_339" x="0" y="-46" width="555" height="1085" filterUnits="userSpaceOnUse" color-interpolation-filters="sRGB">
<feFlood flood-opacity="0" result="BackgroundImageFix"/>
<feColorMatrix in="SourceAlpha" type="matrix" values="0 0 0 0 0 0 0 0 0 0 0 0 0 0 0 0 0 0 127 0" result="hardAlpha"/>
<feOffset dy="20"/>
<feGaussianBlur stdDeviation="25"/>
<feComposite in2="hardAlpha" operator="out"/>
<feColorMatrix type="matrix" values="0 0 0 0 0 0 0 0 0 0 0 0 0 0 0 0 0 0 0.25 0"/>
<feBlend mode="normal" in2="BackgroundImageFix" result="effect1_dropShadow_360_339"/>
<feColorMatrix in="SourceAlpha" type="matrix" values="0 0 0 0 0 0 0 0 0 0 0 0 0 0 0 0 0 0 127 0" result="hardAlpha"/>
<feOffset dx="20" dy="4"/>
<feGaussianBlur stdDeviation="25"/>
<feComposite in2="hardAlpha" operator="out"/>
<feColorMatrix type="matrix" values="0 0 0 0 0 0 0 0 0 0 0 0 0 0 0 0 0 0 0.25 0"/>
<feBlend mode="normal" in2="effect1_dropShadow_360_339" result="effect2_dropShadow_360_339"/>
<feColorMatrix in="SourceAlpha" type="matrix" values="0 0 0 0 0 0 0 0 0 0 0 0 0 0 0 0 0 0 127 0" result="hardAlpha"/>
<feOffset dy="4"/>
<feGaussianBlur stdDeviation="2"/>
<feComposite in2="hardAlpha" operator="out"/>
<feColorMatrix type="matrix" values="0 0 0 0 0 0 0 0 0 0 0 0 0 0 0 0 0 0 0.25 0"/>
<feBlend mode="normal" in2="effect2_dropShadow_360_339" result="effect3_dropShadow_360_339"/>
<feBlend mode="normal" in="SourceGraphic" in2="effect3_dropShadow_360_339" result="shape"/>
</filter>
<clipPath id="clip0_360_339">
<rect x="55" y="96" width="426" height="873" rx="42" fill="white"/>
</clipPath>
</defs>
</svg>
