<svg width="927" height="1086" viewBox="0 0 927 1086" fill="none" xmlns="http://www.w3.org/2000/svg">
<g filter="url(#filter0_ddd_360_302)">
<g clip-path="url(#clip0_360_302)">
<g clip-path="url(#clip1_360_302)">
<g clip-path="url(#clip2_360_302)">
<rect width="390" height="844" transform="translate(76.2583 267.321) rotate(-30)" fill="white"/>
<path d="M343.705 575.123C344.129 575.858 344.355 576.65 344.385 577.502C344.414 578.353 344.168 579.206 343.646 580.062C343.116 580.904 342.255 581.669 341.063 582.357L338.445 583.869L341.829 589.73L339.459 591.098L331.119 576.653L336.107 573.773C337.216 573.133 338.263 572.787 339.249 572.735C340.241 572.661 341.112 572.842 341.863 573.277C342.627 573.704 343.241 574.319 343.705 575.123ZM339.947 580.424C340.848 579.904 341.404 579.315 341.616 578.657C341.819 577.985 341.705 577.275 341.273 576.527C340.361 574.948 339.011 574.674 337.223 575.706L334.605 577.218L337.329 581.936L339.947 580.424ZM347.695 578.639C347.031 577.489 346.678 576.335 346.637 575.176C346.61 574.009 346.865 572.947 347.403 571.99C347.946 571.011 348.717 570.234 349.715 569.658C350.615 569.138 351.502 568.866 352.375 568.842C353.254 568.797 354.047 568.921 354.752 569.216L353.792 567.553L356.183 566.173L362.795 577.625L360.404 579.005L359.42 577.301C359.331 578.073 359.043 578.84 358.558 579.6C358.074 580.36 357.388 580.996 356.501 581.508C355.517 582.076 354.472 582.347 353.367 582.32C352.253 582.279 351.194 581.949 350.189 581.328C349.19 580.686 348.359 579.789 347.695 578.639ZM357.092 573.269C356.636 572.479 356.074 571.889 355.406 571.499C354.751 571.101 354.072 570.902 353.37 570.901C352.667 570.9 352.011 571.076 351.401 571.428C350.792 571.78 350.312 572.26 349.961 572.869C349.602 573.464 349.425 574.148 349.428 574.922C349.438 575.674 349.67 576.445 350.126 577.235C350.582 578.025 351.142 578.626 351.804 579.038C352.481 579.441 353.174 579.651 353.885 579.665C354.601 579.658 355.258 579.483 355.853 579.139C356.463 578.787 356.943 578.306 357.294 577.697C357.644 577.089 357.811 576.401 357.794 575.635C357.782 574.847 357.548 574.059 357.092 573.269ZM370.172 573.616C369.271 574.136 368.368 574.444 367.464 574.542C366.565 574.617 365.748 574.498 365.012 574.183C364.269 573.855 363.683 573.353 363.255 572.676L365.708 571.26C366.029 571.721 366.494 571.998 367.102 572.09C367.715 572.161 368.341 572.012 368.978 571.644C369.643 571.26 370.084 570.84 370.3 570.382C370.522 569.903 370.517 569.462 370.285 569.06C370.037 568.631 369.646 568.432 369.11 568.464C368.588 568.489 367.812 568.632 366.781 568.894C365.786 569.155 364.954 569.33 364.286 569.421C363.617 569.511 362.95 569.443 362.284 569.218C361.632 568.985 361.09 568.494 360.658 567.746C360.306 567.136 360.166 566.478 360.239 565.771C360.303 565.05 360.584 564.353 361.081 563.678C361.592 562.995 362.284 562.401 363.157 561.897C364.459 561.145 365.697 560.874 366.871 561.083C368.051 561.27 368.996 561.916 369.708 563.02L367.338 564.388C367.001 563.899 366.557 563.611 366.007 563.522C365.457 563.433 364.863 563.572 364.226 563.94C363.602 564.3 363.192 564.694 362.995 565.122C362.799 565.549 362.813 565.957 363.037 566.345C363.213 566.65 363.471 566.842 363.813 566.922C364.155 567.002 364.521 567.012 364.912 566.953C365.294 566.88 365.85 566.753 366.577 566.573C367.536 566.315 368.347 566.152 369.01 566.083C369.678 565.993 370.335 566.058 370.979 566.277C371.622 566.496 372.163 566.969 372.601 567.696C372.977 568.347 373.133 569.033 373.069 569.754C373.005 570.474 372.724 571.172 372.227 571.847C371.744 572.514 371.059 573.104 370.172 573.616ZM374.278 558.303L377.938 564.642C378.186 565.072 378.463 565.328 378.769 565.41C379.081 565.47 379.479 565.36 379.964 565.08L381.419 564.24L382.559 566.214L380.688 567.294C379.621 567.91 378.66 568.133 377.804 567.962C376.948 567.791 376.196 567.145 375.548 566.022L371.888 559.683L370.537 560.463L369.421 558.53L370.772 557.75L369.128 554.903L371.518 553.523L373.162 556.37L375.947 554.762L377.063 556.695L374.278 558.303ZM391.771 552.887C392.019 553.316 392.215 553.72 392.36 554.099L383.61 559.151C384.207 560.025 384.97 560.564 385.9 560.766C386.83 560.968 387.738 560.813 388.625 560.301C389.9 559.565 390.492 558.512 390.403 557.141L392.959 555.665C393.221 556.918 393.09 558.148 392.568 559.355C392.051 560.54 391.121 561.521 389.777 562.297C388.682 562.929 387.558 563.254 386.405 563.273C385.258 563.27 384.179 562.969 383.168 562.371C382.164 561.75 381.321 560.851 380.641 559.673C379.961 558.495 379.601 557.327 379.56 556.168C379.525 554.987 379.797 553.907 380.376 552.926C380.969 551.937 381.826 551.118 382.949 550.47C384.03 549.846 385.129 549.526 386.246 549.509C387.363 549.492 388.405 549.777 389.372 550.364C390.332 550.937 391.131 551.778 391.771 552.887ZM388.866 553.567C388.348 552.702 387.632 552.182 386.718 552.007C385.805 551.833 384.898 552.005 383.997 552.525C383.179 552.997 382.632 553.665 382.354 554.527C382.068 555.376 382.125 556.276 382.526 557.227L388.866 553.567ZM400.238 543.315L403.898 549.654C404.146 550.084 404.423 550.339 404.729 550.421C405.041 550.481 405.44 550.372 405.925 550.092L407.379 549.252L408.519 551.226L406.649 552.306C405.582 552.922 404.62 553.145 403.764 552.974C402.908 552.803 402.156 552.156 401.508 551.034L397.848 544.695L396.497 545.475L395.381 543.542L396.732 542.762L395.088 539.914L397.478 538.534L399.122 541.382L401.907 539.774L403.023 541.707L400.238 543.315ZM415.779 547.284C414.698 547.908 413.581 548.23 412.428 548.249C411.267 548.254 410.181 547.957 409.171 547.358C408.152 546.746 407.302 545.85 406.622 544.673C405.95 543.509 405.611 542.328 405.603 541.132C405.596 539.935 405.896 538.838 406.503 537.841C407.109 536.844 407.96 536.03 409.055 535.398C410.149 534.766 411.28 534.436 412.447 534.409C413.614 534.382 414.714 534.671 415.746 535.276C416.779 535.88 417.631 536.765 418.303 537.929C418.975 539.093 419.308 540.277 419.301 541.482C419.295 542.686 418.978 543.802 418.352 544.829C417.731 545.834 416.873 546.652 415.779 547.284ZM414.591 545.227C415.201 544.875 415.685 544.401 416.043 543.806C416.416 543.203 416.6 542.515 416.597 541.741C416.593 540.967 416.351 540.164 415.871 539.333C415.391 538.501 414.828 537.894 414.181 537.509C413.527 537.111 412.852 536.919 412.158 536.932C411.463 536.945 410.811 537.128 410.201 537.48C409.592 537.832 409.107 538.305 408.749 538.9C408.404 539.487 408.247 540.159 408.279 540.917C408.302 541.662 408.553 542.449 409.033 543.281C409.745 544.514 410.609 545.29 411.625 545.609C412.646 545.906 413.635 545.779 414.591 545.227ZM436.86 534.864L430.198 531.006L428.39 532.05L431.726 537.828L429.357 539.196L421.017 524.75L426.005 521.87C427.114 521.23 428.161 520.884 429.147 520.832C430.147 520.772 431.022 520.96 431.772 521.395C432.536 521.822 433.15 522.438 433.614 523.242C434.158 524.184 434.377 525.203 434.271 526.299C434.17 527.373 433.632 528.377 432.656 529.31L439.687 533.232L436.86 534.864ZM427.298 530.158L429.917 528.646C430.804 528.134 431.341 527.528 431.528 526.829C431.73 526.122 431.614 525.394 431.182 524.646C430.75 523.897 430.193 523.443 429.509 523.284C428.818 523.11 428.022 523.283 427.121 523.803L424.502 525.315L427.298 530.158ZM449.517 519.547C449.765 519.976 449.962 520.38 450.106 520.759L441.356 525.811C441.953 526.685 442.717 527.224 443.646 527.426C444.576 527.628 445.484 527.473 446.371 526.961C447.646 526.225 448.239 525.172 448.149 523.801L450.706 522.325C450.967 523.578 450.837 524.808 450.314 526.015C449.798 527.2 448.867 528.181 447.523 528.957C446.428 529.589 445.305 529.914 444.152 529.933C443.005 529.93 441.926 529.63 440.915 529.031C439.91 528.41 439.067 527.511 438.387 526.333C437.707 525.155 437.347 523.987 437.306 522.828C437.271 521.648 437.543 520.567 438.122 519.586C438.715 518.597 439.573 517.778 440.695 517.13C441.776 516.506 442.875 516.186 443.992 516.169C445.109 516.152 446.152 516.437 447.119 517.024C448.078 517.598 448.877 518.438 449.517 519.547ZM446.612 520.227C446.094 519.362 445.378 518.842 444.465 518.667C443.551 518.493 442.644 518.666 441.743 519.186C440.926 519.658 440.378 520.325 440.1 521.187C439.814 522.036 439.872 522.936 440.273 523.887L446.612 520.227ZM452.047 513.071C452.144 512.312 452.436 511.553 452.921 510.792C453.405 510.032 454.084 509.4 454.957 508.896C455.955 508.32 457.006 508.045 458.112 508.072C459.223 508.077 460.271 508.387 461.254 509.002C462.237 509.617 463.06 510.499 463.724 511.649C464.388 512.799 464.749 513.968 464.806 515.154C464.855 516.327 464.611 517.41 464.076 518.402C463.546 519.373 462.783 520.146 461.785 520.722C460.912 521.226 460.036 521.501 459.157 521.547C458.27 521.579 457.46 521.455 456.727 521.177L460.831 528.285L458.461 529.653L448.705 512.755L451.075 511.387L452.047 513.071ZM461.313 513.041C460.857 512.251 460.299 511.669 459.639 511.292C458.984 510.894 458.302 510.706 457.594 510.727C456.891 510.726 456.235 510.902 455.626 511.254C455.03 511.598 454.55 512.078 454.185 512.695C453.835 513.304 453.661 513.995 453.665 514.769C453.682 515.535 453.919 516.313 454.375 517.103C454.831 517.893 455.39 518.494 456.053 518.905C456.721 519.295 457.407 519.491 458.109 519.492C458.826 519.484 459.482 519.309 460.078 518.965C460.687 518.613 461.167 518.132 461.518 517.524C461.874 516.893 462.04 516.188 462.015 515.408C462.003 514.62 461.769 513.831 461.313 513.041ZM462.893 499.326L471.773 514.707L469.404 516.075L460.524 500.694L462.893 499.326ZM470.758 507.588C470.094 506.438 469.742 505.284 469.701 504.125C469.674 502.958 469.929 501.896 470.467 500.939C471.01 499.961 471.78 499.183 472.778 498.607C473.679 498.087 474.566 497.815 475.439 497.792C476.318 497.746 477.11 497.87 477.816 498.165L476.856 496.502L479.246 495.122L485.858 506.575L483.468 507.955L482.484 506.25C482.394 507.023 482.107 507.789 481.622 508.549C481.137 509.309 480.451 509.946 479.565 510.458C478.581 511.026 477.536 511.296 476.431 511.269C475.317 511.229 474.258 510.898 473.253 510.277C472.254 509.635 471.422 508.739 470.758 507.588ZM480.156 502.218C479.7 501.428 479.138 500.838 478.469 500.448C477.814 500.05 477.136 499.851 476.433 499.85C475.731 499.849 475.075 500.025 474.465 500.377C473.855 500.729 473.375 501.209 473.025 501.818C472.666 502.413 472.488 503.098 472.492 503.872C472.501 504.624 472.734 505.395 473.19 506.184C473.646 506.974 474.205 507.575 474.868 507.987C475.544 508.391 476.238 508.6 476.949 508.615C477.665 508.608 478.321 508.432 478.917 508.088C479.527 507.736 480.007 507.256 480.357 506.647C480.708 506.038 480.874 505.35 480.857 504.584C480.846 503.797 480.612 503.008 480.156 502.218ZM484.869 499.497C484.189 498.319 483.828 497.151 483.787 495.992C483.752 494.812 484.017 493.735 484.583 492.762C485.148 491.789 485.978 490.986 487.072 490.354C488.458 489.554 489.793 489.227 491.078 489.372C492.368 489.495 493.525 490.075 494.548 491.11L491.991 492.586C491.455 492.138 490.867 491.886 490.226 491.832C489.584 491.777 488.917 491.95 488.224 492.35C487.254 492.91 486.678 493.704 486.497 494.733C486.32 495.74 486.588 496.86 487.3 498.093C488.012 499.326 488.852 500.125 489.821 500.49C490.802 500.847 491.778 500.745 492.748 500.185C494.12 499.393 494.68 498.267 494.427 496.805L496.984 495.329C497.323 496.685 497.236 497.974 496.721 499.194C496.199 500.401 495.258 501.397 493.9 502.181C492.806 502.813 491.696 503.13 490.571 503.133C489.437 503.123 488.372 502.814 487.375 502.207C486.384 501.578 485.549 500.675 484.869 499.497ZM508.461 485.516C508.709 485.945 508.906 486.349 509.05 486.728L500.3 491.78C500.897 492.654 501.661 493.193 502.59 493.395C503.52 493.597 504.428 493.442 505.315 492.93C506.59 492.194 507.182 491.141 507.093 489.77L509.649 488.294C509.911 489.547 509.781 490.777 509.258 491.984C508.741 493.169 507.811 494.149 506.467 494.925C505.372 495.557 504.248 495.883 503.096 495.902C501.948 495.899 500.869 495.598 499.859 495C498.854 494.379 498.011 493.48 497.331 492.302C496.651 491.124 496.291 489.956 496.25 488.797C496.215 487.616 496.487 486.535 497.066 485.554C497.659 484.566 498.517 483.747 499.639 483.099C500.72 482.475 501.819 482.155 502.936 482.138C504.053 482.121 505.095 482.406 506.063 482.993C507.022 483.566 507.821 484.407 508.461 485.516ZM505.556 486.195C505.038 485.33 504.322 484.811 503.409 484.636C502.495 484.462 501.588 484.634 500.687 485.154C499.87 485.626 499.322 486.294 499.044 487.156C498.758 488.005 498.815 488.905 499.217 489.855L505.556 486.195ZM518.864 472C519.737 471.496 520.621 471.235 521.516 471.217C522.424 471.191 523.285 471.433 524.097 471.944C524.923 472.446 525.636 473.217 526.236 474.256L530.136 481.011L527.787 482.367L524.091 475.965C523.499 474.94 522.791 474.305 521.966 474.061C521.133 473.802 520.273 473.929 519.387 474.441C518.5 474.953 517.953 475.638 517.747 476.497C517.546 477.333 517.742 478.264 518.334 479.289L522.03 485.691L519.66 487.059L510.78 471.678L513.15 470.31L516.186 475.569C516.307 474.852 516.597 474.186 517.055 473.571C517.526 472.947 518.129 472.424 518.864 472ZM540.186 467.199C540.434 467.629 540.63 468.033 540.775 468.411L532.025 473.463C532.622 474.338 533.385 474.876 534.315 475.078C535.245 475.281 536.153 475.126 537.04 474.614C538.315 473.878 538.907 472.824 538.818 471.453L541.374 469.977C541.636 471.23 541.506 472.46 540.983 473.667C540.466 474.853 539.536 475.833 538.192 476.609C537.097 477.241 535.973 477.567 534.82 477.586C533.673 477.583 532.594 477.282 531.584 476.683C530.579 476.062 529.736 475.163 529.056 473.985C528.376 472.808 528.016 471.639 527.975 470.481C527.94 469.3 528.212 468.219 528.791 467.238C529.384 466.249 530.242 465.431 531.364 464.783C532.445 464.159 533.544 463.838 534.661 463.821C535.778 463.804 536.82 464.09 537.787 464.677C538.747 465.25 539.546 466.091 540.186 467.199ZM537.281 467.879C536.763 467.014 536.047 466.494 535.133 466.32C534.22 466.145 533.313 466.318 532.412 466.838C531.594 467.31 531.047 467.977 530.769 468.84C530.483 469.688 530.54 470.588 530.941 471.539L537.281 467.879ZM542.703 460.702C542.714 459.92 542.911 459.206 543.295 458.559C543.685 457.891 544.275 457.328 545.065 456.872L546.481 459.325L545.878 459.673C544.95 460.209 544.379 460.853 544.166 461.604C543.967 462.347 544.203 463.3 544.875 464.464L548.355 470.492L545.986 471.86L539.374 460.407L541.743 459.039L542.703 460.702ZM560.991 455.188C561.239 455.617 561.435 456.021 561.58 456.399L552.83 461.451C553.427 462.326 554.19 462.864 555.12 463.067C556.05 463.269 556.958 463.114 557.845 462.602C559.12 461.866 559.712 460.813 559.623 459.442L562.179 457.966C562.441 459.219 562.31 460.449 561.788 461.656C561.271 462.841 560.341 463.821 558.997 464.597C557.902 465.229 556.778 465.555 555.625 465.574C554.478 465.571 553.399 465.27 552.388 464.671C551.384 464.051 550.541 463.152 549.861 461.974C549.181 460.796 548.821 459.628 548.78 458.469C548.745 457.288 549.017 456.207 549.596 455.226C550.189 454.237 551.046 453.419 552.169 452.771C553.25 452.147 554.349 451.826 555.466 451.81C556.583 451.793 557.625 452.078 558.592 452.665C559.552 453.238 560.351 454.079 560.991 455.188ZM558.086 455.867C557.568 455.002 556.852 454.483 555.938 454.308C555.025 454.134 554.118 454.306 553.217 454.826C552.399 455.298 551.852 455.966 551.574 456.828C551.288 457.677 551.345 458.576 551.746 459.527L558.086 455.867ZM382.606 600.108C381.926 598.93 381.566 597.762 381.525 596.603C381.49 595.422 381.755 594.345 382.32 593.372C382.885 592.399 383.715 591.597 384.81 590.965C386.196 590.165 387.531 589.837 388.815 589.983C390.106 590.106 391.262 590.685 392.285 591.72L389.729 593.196C389.193 592.748 388.604 592.497 387.963 592.442C387.322 592.388 386.655 592.56 385.962 592.96C384.992 593.52 384.416 594.315 384.234 595.343C384.058 596.35 384.326 597.47 385.038 598.704C385.75 599.937 386.59 600.736 387.558 601.101C388.54 601.458 389.516 601.356 390.486 600.796C391.858 600.004 392.417 598.877 392.165 597.416L394.721 595.94C395.061 597.296 394.973 598.584 394.459 599.805C393.936 601.012 392.996 602.007 391.638 602.791C390.543 603.423 389.433 603.741 388.308 603.744C387.175 603.733 386.11 603.424 385.113 602.817C384.122 602.189 383.286 601.285 382.606 600.108ZM396.439 587.078L400.099 593.417C400.347 593.846 400.624 594.102 400.93 594.184C401.242 594.244 401.64 594.134 402.125 593.854L403.58 593.014L404.72 594.989L402.849 596.069C401.782 596.685 400.821 596.908 399.965 596.737C399.109 596.566 398.357 595.919 397.709 594.797L394.049 588.458L392.698 589.238L391.582 587.305L392.933 586.525L391.289 583.677L393.679 582.297L395.323 585.145L398.108 583.537L399.224 585.47L396.439 587.078ZM403.621 582.571C403.632 581.789 403.829 581.074 404.213 580.428C404.603 579.759 405.193 579.197 405.983 578.741L407.399 581.193L406.796 581.541C405.868 582.077 405.297 582.721 405.084 583.472C404.885 584.215 405.121 585.169 405.793 586.333L409.273 592.36L406.904 593.728L400.292 582.276L402.661 580.908L403.621 582.571ZM408.37 572.374L417.25 587.755L414.881 589.123L406.001 573.742L408.37 572.374ZM433.166 569.892L428.967 572.316L431.451 576.618L429.248 577.89L426.764 573.588L422.565 576.012L421.413 574.016L425.612 571.592L423.128 567.29L425.331 566.018L427.815 570.32L432.014 567.896L433.166 569.892ZM441.871 565.836C441.207 564.686 440.854 563.531 440.814 562.372C440.787 561.206 441.042 560.144 441.579 559.187C442.123 558.208 442.893 557.43 443.891 556.854C444.792 556.334 445.678 556.063 446.552 556.039C447.431 555.993 448.223 556.118 448.929 556.412L447.969 554.749L450.359 553.369L456.971 564.822L454.581 566.202L453.597 564.497C453.507 565.27 453.22 566.036 452.735 566.796C452.25 567.557 451.564 568.193 450.677 568.705C449.694 569.273 448.649 569.543 447.543 569.517C446.43 569.476 445.371 569.145 444.366 568.525C443.366 567.882 442.535 566.986 441.871 565.836ZM451.269 560.465C450.813 559.675 450.251 559.086 449.582 558.696C448.927 558.298 448.249 558.098 447.546 558.097C446.844 558.096 446.187 558.272 445.578 558.624C444.968 558.976 444.488 559.456 444.137 560.065C443.779 560.66 443.601 561.345 443.605 562.119C443.614 562.871 443.847 563.642 444.303 564.432C444.759 565.221 445.318 565.822 445.981 566.234C446.657 566.638 447.351 566.847 448.061 566.862C448.778 566.855 449.434 566.679 450.03 566.335C450.639 565.983 451.12 565.503 451.47 564.894C451.821 564.285 451.987 563.598 451.97 562.832C451.959 562.044 451.725 561.255 451.269 560.465ZM453.573 546.276L462.453 561.657L460.083 563.025L451.203 547.644L453.573 546.276ZM462.832 548.746L466.492 555.085C466.74 555.514 467.017 555.77 467.323 555.852C467.635 555.912 468.033 555.802 468.518 555.522L469.973 554.682L471.113 556.657L469.242 557.737C468.175 558.353 467.214 558.575 466.358 558.405C465.502 558.234 464.75 557.587 464.102 556.465L460.442 550.126L459.091 550.906L457.975 548.973L459.326 548.193L457.682 545.345L460.072 543.965L461.716 546.813L464.501 545.205L465.617 547.138L462.832 548.746ZM486.101 539.329L481.903 541.753L484.387 546.056L482.184 547.328L479.7 543.025L475.501 545.449L474.349 543.454L478.548 541.03L476.064 536.728L478.267 535.456L480.751 539.758L484.949 537.334L486.101 539.329ZM503.197 538.382C502.297 538.902 501.394 539.211 500.49 539.308C499.591 539.384 498.774 539.264 498.038 538.95C497.294 538.622 496.709 538.119 496.281 537.443L498.734 536.027C499.055 536.488 499.52 536.764 500.127 536.857C500.741 536.928 501.367 536.779 502.004 536.411C502.669 536.027 503.11 535.606 503.326 535.149C503.548 534.67 503.543 534.229 503.311 533.827C503.063 533.398 502.671 533.199 502.136 533.231C501.614 533.255 500.837 533.399 499.807 533.661C498.812 533.922 497.98 534.097 497.311 534.187C496.643 534.278 495.976 534.21 495.31 533.985C494.658 533.752 494.116 533.261 493.684 532.513C493.332 531.903 493.192 531.245 493.264 530.538C493.329 529.817 493.609 529.119 494.107 528.444C494.618 527.761 495.309 527.168 496.182 526.664C497.485 525.912 498.723 525.64 499.897 525.85C501.077 526.037 502.022 526.683 502.734 527.787L500.364 529.155C500.027 528.666 499.583 528.377 499.033 528.288C498.482 528.2 497.889 528.339 497.251 528.707C496.628 529.067 496.218 529.461 496.021 529.889C495.825 530.316 495.838 530.724 496.062 531.112C496.238 531.417 496.497 531.609 496.839 531.689C497.181 531.769 497.547 531.779 497.937 531.72C498.32 531.647 498.875 531.52 499.603 531.34C500.562 531.082 501.373 530.919 502.036 530.85C502.704 530.76 503.36 530.824 504.004 531.044C504.648 531.263 505.189 531.736 505.627 532.462C506.003 533.114 506.159 533.8 506.095 534.52C506.03 535.241 505.75 535.939 505.253 536.614C504.769 537.281 504.084 537.87 503.197 538.382ZM509.239 519.126C510.112 518.622 510.996 518.361 511.891 518.343C512.8 518.317 513.66 518.559 514.472 519.07C515.298 519.572 516.011 520.343 516.611 521.382L520.511 528.137L518.162 529.493L514.466 523.091C513.874 522.066 513.166 521.431 512.341 521.187C511.508 520.929 510.649 521.055 509.762 521.567C508.875 522.079 508.328 522.765 508.122 523.623C507.921 524.459 508.117 525.39 508.709 526.415L512.405 532.817L510.035 534.185L501.155 518.805L503.525 517.437L506.561 522.695C506.683 521.978 506.972 521.312 507.43 520.697C507.902 520.073 508.504 519.55 509.239 519.126ZM522.838 514.101L520.718 515.325L526.214 524.844L523.824 526.224L518.328 516.705L516.977 517.485L515.861 515.552L517.212 514.772L516.744 513.961C515.984 512.645 515.778 511.489 516.127 510.493C516.482 509.475 517.408 508.534 518.904 507.67L520.044 509.645C519.324 510.061 518.898 510.492 518.767 510.937C518.628 511.368 518.75 511.916 519.134 512.581L519.602 513.392L521.722 512.168L522.838 514.101ZM527.703 511.292L531.363 517.632C531.611 518.061 531.888 518.317 532.194 518.399C532.505 518.459 532.904 518.349 533.389 518.069L534.844 517.229L535.984 519.204L534.113 520.284C533.046 520.9 532.085 521.122 531.229 520.952C530.372 520.781 529.62 520.134 528.972 519.012L525.312 512.672L523.961 513.452L522.845 511.519L524.196 510.739L522.552 507.892L524.943 506.512L526.587 509.359L529.372 507.751L530.488 509.684L527.703 511.292ZM546.77 510.15L544.624 498.945L547.139 497.493L549.386 511.466L546.56 513.098L535.604 504.153L538.139 502.689L546.77 510.15Z" fill="black"/>
</g>
<rect x="72.1603" y="266.222" width="396" height="841" rx="36" transform="rotate(-30 72.1603 266.222)" stroke="black" stroke-width="12"/>
<path d="M171.859 201.733L308.58 122.798L316.58 136.654C319.065 140.959 317.59 146.463 313.285 148.948L192.153 218.884C187.848 221.369 182.344 219.894 179.859 215.59L171.859 201.733Z" fill="black"/>
</g>
<rect x="60.2321" y="261.562" width="412" height="859" rx="35" transform="rotate(-30 60.2321 261.562)" stroke="#656566" stroke-width="14"/>
</g>
<rect x="54.085" y="259.915" width="421" height="868" rx="39.5" transform="rotate(-30 54.085 259.915)" stroke="black" stroke-width="5"/>
<path d="M501.731 190.26V190.26C504.122 188.879 507.18 189.699 508.561 192.09L568.061 295.147C569.442 297.539 568.622 300.597 566.231 301.977V301.977L501.731 190.26Z" fill="black"/>
<path d="M581.731 328.824V328.824C584.122 327.444 587.18 328.263 588.561 330.654L618.561 382.616C619.942 385.007 619.122 388.065 616.731 389.446V389.446L581.731 328.824Z" fill="black"/>
<path d="M153.84 447.695C152.459 445.304 153.279 442.246 155.67 440.865V440.865L190.67 501.487V501.487C188.279 502.868 185.221 502.048 183.84 499.657L153.84 447.695Z" fill="black"/>
<path d="M193.84 516.977C192.459 514.586 193.279 511.528 195.67 510.147V510.147L230.67 570.769V570.769C228.279 572.15 225.221 571.33 223.84 568.939L193.84 516.977Z" fill="black"/>
</g>
<defs>
<filter id="filter0_ddd_360_302" x="0.669922" y="0" width="925.427" height="1085.04" filterUnits="userSpaceOnUse" color-interpolation-filters="sRGB">
<feFlood flood-opacity="0" result="BackgroundImageFix"/>
<feColorMatrix in="SourceAlpha" type="matrix" values="0 0 0 0 0 0 0 0 0 0 0 0 0 0 0 0 0 0 127 0" result="hardAlpha"/>
<feOffset dy="20"/>
<feGaussianBlur stdDeviation="25"/>
<feComposite in2="hardAlpha" operator="out"/>
<feColorMatrix type="matrix" values="0 0 0 0 0 0 0 0 0 0 0 0 0 0 0 0 0 0 0.25 0"/>
<feBlend mode="normal" in2="BackgroundImageFix" result="effect1_dropShadow_360_302"/>
<feColorMatrix in="SourceAlpha" type="matrix" values="0 0 0 0 0 0 0 0 0 0 0 0 0 0 0 0 0 0 127 0" result="hardAlpha"/>
<feOffset dx="20" dy="4"/>
<feGaussianBlur stdDeviation="25"/>
<feComposite in2="hardAlpha" operator="out"/>
<feColorMatrix type="matrix" values="0 0 0 0 0 0 0 0 0 0 0 0 0 0 0 0 0 0 0.25 0"/>
<feBlend mode="normal" in2="effect1_dropShadow_360_302" result="effect2_dropShadow_360_302"/>
<feColorMatrix in="SourceAlpha" type="matrix" values="0 0 0 0 0 0 0 0 0 0 0 0 0 0 0 0 0 0 127 0" result="hardAlpha"/>
<feOffset dy="4"/>
<feGaussianBlur stdDeviation="2"/>
<feComposite in2="hardAlpha" operator="out"/>
<feColorMatrix type="matrix" values="0 0 0 0 0 0 0 0 0 0 0 0 0 0 0 0 0 0 0.25 0"/>
<feBlend mode="normal" in2="effect2_dropShadow_360_302" result="effect3_dropShadow_360_302"/>
<feBlend mode="normal" in="SourceGraphic" in2="effect3_dropShadow_360_302" result="shape"/>
</filter>
<clipPath id="clip0_360_302">
<rect x="50.6699" y="259" width="426" height="873" rx="42" transform="rotate(-30 50.6699 259)" fill="white"/>
</clipPath>
<clipPath id="clip1_360_302">
<rect x="50.6699" y="259" width="426" height="873" rx="42" transform="rotate(-30 50.6699 259)" fill="white"/>
</clipPath>
<clipPath id="clip2_360_302">
<rect x="63.9641" y="264.026" width="408" height="853" rx="42" transform="rotate(-30 63.9641 264.026)" fill="white"/>
</clipPath>
</defs>
</svg>
