<svg width="662" height="730" viewBox="0 0 662 730" fill="none" xmlns="http://www.w3.org/2000/svg">
<g clip-path="url(#clip0_396_230)">
<path opacity="0.1" d="M19.0225 625.28C13.1145 583.452 24.5696 538.049 57.6828 500.665C148.297 398.365 144.439 418.907 160.366 295.787C176.292 172.667 310.341 124.64 409.628 175.96C529.83 238.085 467.457 261.435 610.787 365.167C734.682 454.838 619.864 623.901 415.409 694.806C250.165 752.114 36.134 746.426 19.0225 625.28Z" fill="#FED217"/>
<path d="M121.805 265.401H504.915C513.621 265.402 521.969 268.861 528.125 275.018C534.28 281.175 537.738 289.526 537.738 298.234V589.206C537.738 597.913 534.28 606.264 528.124 612.421C521.968 618.578 513.619 622.037 504.914 622.037H107.18C98.4742 622.037 90.1253 618.578 83.9696 612.421C77.8139 606.264 74.3557 597.913 74.3557 589.206V312.862C74.3557 300.275 79.3548 288.203 88.2532 279.302C97.1516 270.402 109.221 265.401 121.805 265.401Z" fill="#262626"/>
<path d="M533.554 293.253H107.18C89.0515 293.253 74.3557 307.952 74.3557 326.084V617.056C74.3557 635.188 89.0515 649.887 107.18 649.887H533.554C551.682 649.887 566.378 635.188 566.378 617.056V326.084C566.378 307.952 551.682 293.253 533.554 293.253Z" fill="#FED217"/>
<path opacity="0.55" d="M533.554 293.253H107.18C89.0515 293.253 74.3557 307.952 74.3557 326.084V617.056C74.3557 635.188 89.0515 649.887 107.18 649.887H533.554C551.682 649.887 566.378 635.188 566.378 617.056V326.084C566.378 307.952 551.682 293.253 533.554 293.253Z" fill="white"/>
<path d="M533.554 651.066H107.18C98.1646 651.056 89.5216 647.469 83.1469 641.093C76.7723 634.717 73.1866 626.072 73.1766 617.055V326.084C73.1868 317.067 76.7725 308.422 83.1471 302.046C89.5217 295.67 98.1645 292.083 107.18 292.073H533.554C542.569 292.083 551.211 295.67 557.586 302.046C563.96 308.422 567.546 317.067 567.556 326.084V617.055C567.546 626.072 563.96 634.717 557.586 641.093C551.211 647.469 542.569 651.056 533.554 651.066ZM107.18 294.429C98.7895 294.438 90.7454 297.775 84.8127 303.71C78.88 309.644 75.5433 317.69 75.5348 326.082V617.052C75.5435 625.444 78.8803 633.49 84.813 639.424C90.7457 645.358 98.7896 648.696 107.18 648.705H533.554C541.944 648.696 549.987 645.358 555.92 639.424C561.852 633.49 565.189 625.444 565.198 617.052V326.084C565.189 317.692 561.853 309.647 555.92 303.712C549.988 297.778 541.944 294.44 533.554 294.431L107.18 294.429Z" fill="#262626"/>
<path d="M528.922 624.854H519.373V622.496H528.855L528.922 624.854ZM509.887 624.854H500.4V622.496H509.885L509.887 624.854ZM490.918 624.854H481.433V622.496H490.918V624.854ZM471.948 624.854H462.463V622.496H471.945L471.948 624.854ZM452.979 624.854H443.49V622.496H452.976L452.979 624.854ZM434.009 624.854H424.524V622.496H434.009V624.854ZM415.039 624.854H405.555V622.496H415.039V624.854ZM396.069 624.854H386.585V622.496H396.069V624.854ZM377.1 624.854H367.615V622.496H377.1V624.854ZM358.131 624.854H348.645V622.496H358.131V624.854ZM339.161 624.854H329.676V622.496H339.161V624.854ZM320.191 624.854H310.707V622.496H320.191V624.854ZM301.221 624.854H291.737V622.496H301.221V624.854ZM282.251 624.854H272.767V622.496H282.251V624.854ZM263.282 624.854H253.797V622.496H263.282V624.854ZM244.313 624.854H234.827V622.496H244.313V624.854ZM225.343 624.854H215.858V622.496H225.343V624.854ZM206.373 624.854H196.889V622.496H206.373V624.854ZM187.403 624.854H177.919V622.496H187.403V624.854ZM168.434 624.854H158.949V622.496H168.434V624.854ZM149.465 624.854H139.979V622.496H149.465V624.854ZM130.495 624.854H121.01V622.496H130.495V624.854ZM111.483 624.843C108.076 624.724 104.776 623.624 101.978 621.675L103.326 619.738C105.751 621.43 108.613 622.386 111.567 622.49L111.483 624.843ZM538.529 621.997L537.245 620.018C539.728 618.41 541.697 616.123 542.918 613.429L545.065 614.404C543.658 617.508 541.389 620.144 538.529 621.997ZM95.6908 613.873C94.7951 611.714 94.3361 609.399 94.3404 607.062V604.103H96.6985V607.062C96.6945 609.089 97.0926 611.098 97.8697 612.97L95.6908 613.873ZM546.649 604.641H544.29V595.154H546.649V604.641ZM96.6985 594.616H94.3404V585.129H96.6985V594.616ZM546.646 585.667H544.288V576.18H546.646V585.667ZM96.6985 575.641H94.3404V566.155H96.6985V575.641ZM546.646 566.693H544.288V557.206H546.646V566.693ZM96.6985 556.668H94.3404V547.18H96.6985V556.668ZM546.646 547.719H544.288V538.231H546.646V547.719ZM96.6985 537.694H94.3404V528.206H96.6985V537.694ZM546.646 528.744H544.288V519.258H546.646V528.744ZM96.6985 518.719H94.3404V509.233H96.6985V518.719ZM546.646 509.77H544.288V500.282H546.646V509.77ZM96.6985 499.745H94.3404V490.258H96.6985V499.745ZM546.646 490.796H544.288V481.309H546.646V490.796ZM96.6985 480.771H94.3404V471.284H96.6985V480.771ZM546.646 471.82H544.288V462.335H546.646V471.82ZM96.6985 461.797H94.3404V452.31H96.6985V461.797ZM546.646 452.849H544.288V443.359H546.646V452.849ZM96.6985 442.823H94.3404V433.336H96.6985V442.823ZM546.646 433.874H544.288V424.388H546.646V433.874ZM96.6985 423.849H94.3404V414.362H96.6985V423.849ZM546.646 414.897H544.288V405.413H546.646V414.897ZM96.6985 404.875H94.3404V395.388H96.6985V404.875ZM546.646 395.926H544.288V386.439H546.646V395.926ZM96.6985 385.901H94.3404V376.414H96.6985V385.901ZM546.646 376.952H544.288V367.465H546.646V376.952ZM96.6985 366.927H94.3404V357.44H96.6985V366.927ZM546.646 357.978H544.288V348.491H546.646V357.978ZM96.6985 347.953H94.3404V338.465H96.6985V347.953ZM546.646 339.004H544.288V336.077C544.293 334.04 543.893 332.023 543.109 330.142L545.286 329.234C546.19 331.401 546.654 333.726 546.65 336.074L546.646 339.004ZM98.0812 329.681L95.9353 328.703C97.3485 325.601 99.6225 322.97 102.487 321.123L103.767 323.104C101.281 324.707 99.3083 326.99 98.0812 329.681ZM537.636 323.384C535.207 321.699 532.343 320.751 529.388 320.653L529.467 318.294C532.875 318.406 536.177 319.5 538.978 321.444L537.636 323.384ZM519.944 320.644H510.462V318.285H519.946L519.944 320.644ZM500.974 320.644H491.49V318.285H500.974V320.644ZM482.005 320.644H472.52V318.285H482.007L482.005 320.644ZM463.035 320.644H453.552V318.285H463.037L463.035 320.644ZM444.066 320.644H434.581V318.285H444.066V320.644ZM425.096 320.644H415.611V318.285H425.097L425.096 320.644ZM406.126 320.644H396.642V318.285H406.126V320.644ZM387.157 320.644H377.672V318.285H387.157V320.644ZM368.187 320.644H358.702V318.285H368.187L368.187 320.644ZM349.218 320.644H339.731V318.285H349.217L349.218 320.644ZM330.248 320.644H320.763V318.285H330.248V320.644ZM311.278 320.644H301.794V318.285H311.276L311.278 320.644ZM292.308 320.644H282.821V318.285H292.306L292.308 320.644ZM273.339 320.644H263.854V318.285H273.339V320.644ZM254.369 320.644H244.884V318.285H254.366L254.369 320.644ZM235.4 320.644H225.911V318.285H235.396L235.4 320.644ZM216.43 320.644H206.945V318.285H216.43V320.644ZM197.46 320.644H187.976V318.285H197.46V320.644ZM178.491 320.644H169.006V318.285H178.491V320.644ZM159.521 320.644H150.036V318.285H159.521V320.644ZM140.552 320.644H131.067V318.285H140.552V320.644ZM121.582 320.644H112.129L112.097 318.285H121.582V320.644Z" fill="white"/>
<path d="M418.164 416.185H568.257C572.97 416.185 577.49 418.058 580.823 421.391C584.156 424.725 586.028 429.246 586.028 433.96V509.179C586.028 513.894 584.156 518.415 580.823 521.748C577.49 525.082 572.97 526.954 568.257 526.954H418.164C412.89 526.954 407.832 524.859 404.102 521.128C400.373 517.398 398.277 512.338 398.277 507.063V436.078C398.277 433.466 398.791 430.879 399.791 428.465C400.79 426.052 402.255 423.859 404.102 422.012C405.948 420.164 408.141 418.699 410.554 417.699C412.967 416.699 415.553 416.185 418.164 416.185Z" fill="white"/>
<path d="M568.257 528.135H418.165C412.58 528.128 407.225 525.906 403.276 521.955C399.327 518.005 397.105 512.65 397.098 507.063V436.079C397.105 430.493 399.327 425.137 403.276 421.187C407.225 417.237 412.58 415.014 418.165 415.008H568.257C573.281 415.014 578.098 417.013 581.65 420.566C585.203 424.119 587.201 428.937 587.207 433.962V509.182C587.201 514.207 585.202 519.024 581.65 522.577C578.097 526.13 573.281 528.129 568.257 528.135ZM418.165 417.364C413.205 417.37 408.45 419.344 404.943 422.852C401.436 426.36 399.463 431.116 399.457 436.077V507.059C399.463 512.02 401.436 516.776 404.943 520.284C408.45 523.791 413.205 525.765 418.165 525.771H568.257C572.656 525.766 576.874 524.016 579.984 520.905C583.095 517.793 584.845 513.575 584.849 509.175V433.955C584.844 429.555 583.095 425.337 579.984 422.226C576.874 419.114 572.656 417.364 568.257 417.359L418.165 417.364Z" fill="#262626"/>
<path d="M452.334 498.652C467.288 498.652 479.41 486.527 479.41 471.57C479.41 456.612 467.288 444.487 452.334 444.487C437.38 444.487 425.258 456.612 425.258 471.57C425.258 486.527 437.38 498.652 452.334 498.652Z" fill="white"/>
<path d="M452.333 499.832C446.745 499.832 441.282 498.174 436.636 495.068C431.989 491.962 428.368 487.548 426.23 482.384C424.092 477.219 423.532 471.537 424.623 466.054C425.713 460.572 428.405 455.536 432.356 451.584C436.308 447.632 441.343 444.94 446.824 443.85C452.305 442.759 457.987 443.319 463.15 445.458C468.313 447.598 472.725 451.22 475.83 455.868C478.935 460.516 480.592 465.98 480.592 471.57C480.584 479.063 477.604 486.248 472.306 491.546C467.008 496.845 459.825 499.825 452.333 499.832ZM452.333 445.666C447.211 445.667 442.204 447.186 437.946 450.033C433.687 452.88 430.368 456.926 428.408 461.659C426.449 466.393 425.936 471.601 426.936 476.626C427.935 481.651 430.402 486.266 434.024 489.888C437.646 493.511 442.261 495.978 447.285 496.977C452.308 497.976 457.516 497.463 462.248 495.502C466.98 493.541 471.024 490.221 473.87 485.961C476.715 481.701 478.234 476.693 478.234 471.57C478.226 464.701 475.495 458.117 470.639 453.26C465.784 448.404 459.2 445.673 452.333 445.666Z" fill="#262626"/>
<path d="M17.5368 416.745C17.3111 416.745 17.0877 416.7 16.8792 416.614C16.6707 416.527 16.4813 416.401 16.3218 416.241C16.1622 416.082 16.0356 415.892 15.9493 415.684C15.8629 415.475 15.8185 415.252 15.8185 415.026V366.533C15.8185 366.077 15.9995 365.64 16.3218 365.318C16.644 364.996 17.0811 364.814 17.5368 364.814C17.9925 364.814 18.4296 364.996 18.7518 365.318C19.0741 365.64 19.2551 366.077 19.2551 366.533V415.026C19.2551 415.482 19.0741 415.919 18.7518 416.241C18.4296 416.563 17.9925 416.745 17.5368 416.745Z" fill="#262626"/>
<path d="M33.3553 392.498H1.71832C1.48962 392.503 1.26226 392.462 1.04955 392.378C0.836838 392.294 0.643068 392.168 0.479601 392.008C0.316134 391.848 0.18626 391.657 0.0975941 391.446C0.00892865 391.235 -0.0367432 391.008 -0.0367432 390.78C-0.0367432 390.551 0.00892865 390.324 0.0975941 390.113C0.18626 389.902 0.316134 389.711 0.479601 389.551C0.643068 389.391 0.836838 389.265 1.04955 389.181C1.26226 389.097 1.48962 389.056 1.71832 389.061H33.3553C33.8046 389.071 34.2322 389.256 34.5465 389.577C34.8608 389.898 35.0369 390.33 35.0369 390.78C35.0369 391.229 34.8608 391.661 34.5465 391.982C34.2322 392.303 33.8046 392.488 33.3553 392.498Z" fill="#262626"/>
<path d="M626.062 485.786C625.741 485.786 625.432 485.659 625.205 485.431C624.978 485.204 624.85 484.896 624.85 484.575V458.565C624.846 458.404 624.875 458.243 624.934 458.092C624.993 457.941 625.081 457.804 625.194 457.688C625.307 457.572 625.442 457.48 625.591 457.417C625.74 457.354 625.9 457.322 626.062 457.322C626.224 457.322 626.384 457.354 626.533 457.417C626.682 457.48 626.817 457.572 626.93 457.688C627.043 457.804 627.132 457.941 627.191 458.092C627.25 458.243 627.278 458.404 627.274 458.565V484.575C627.274 484.734 627.243 484.892 627.182 485.039C627.121 485.186 627.031 485.319 626.919 485.432C626.806 485.544 626.673 485.633 626.526 485.694C626.379 485.755 626.221 485.786 626.062 485.786Z" fill="#262626"/>
<path d="M634.547 472.782H617.578C617.416 472.786 617.255 472.758 617.105 472.699C616.954 472.64 616.817 472.551 616.701 472.438C616.585 472.325 616.493 472.19 616.43 472.041C616.367 471.892 616.335 471.732 616.335 471.57C616.335 471.408 616.367 471.248 616.43 471.099C616.493 470.95 616.585 470.815 616.701 470.702C616.817 470.589 616.954 470.5 617.105 470.441C617.255 470.382 617.416 470.354 617.578 470.358H634.547C634.863 470.366 635.164 470.497 635.384 470.724C635.605 470.95 635.728 471.254 635.728 471.57C635.728 471.886 635.605 472.19 635.384 472.416C635.164 472.643 634.863 472.774 634.547 472.782Z" fill="#262626"/>
<path d="M606.669 265.401C606.51 265.401 606.353 265.37 606.206 265.309C606.058 265.248 605.925 265.159 605.812 265.047C605.7 264.934 605.61 264.8 605.549 264.653C605.489 264.506 605.457 264.349 605.457 264.19V238.18C605.453 238.018 605.481 237.857 605.54 237.707C605.599 237.556 605.688 237.419 605.801 237.303C605.914 237.187 606.049 237.095 606.198 237.032C606.347 236.969 606.507 236.937 606.669 236.937C606.831 236.937 606.991 236.969 607.14 237.032C607.289 237.095 607.424 237.187 607.537 237.303C607.65 237.419 607.738 237.556 607.797 237.707C607.856 237.857 607.885 238.018 607.881 238.18V264.19C607.881 264.511 607.753 264.819 607.526 265.046C607.299 265.274 606.991 265.401 606.669 265.401Z" fill="#262626"/>
<path d="M615.154 252.397H598.185C598.024 252.401 597.863 252.373 597.712 252.314C597.561 252.255 597.424 252.166 597.308 252.053C597.193 251.94 597.1 251.805 597.038 251.656C596.975 251.507 596.942 251.347 596.942 251.185C596.942 251.023 596.975 250.863 597.038 250.714C597.1 250.565 597.193 250.43 597.308 250.317C597.424 250.204 597.561 250.115 597.712 250.056C597.863 249.997 598.024 249.969 598.185 249.973H615.155C615.471 249.981 615.771 250.112 615.992 250.339C616.212 250.565 616.336 250.869 616.336 251.185C616.336 251.501 616.212 251.805 615.992 252.031C615.771 252.258 615.471 252.389 615.155 252.397H615.154Z" fill="#262626"/>
<path d="M142.86 99.5981C140.602 99.6486 138.413 98.8153 136.759 97.2756C135.106 95.736 134.119 93.6115 134.008 91.3547C133.897 89.0979 134.672 86.887 136.166 85.1927C137.661 83.4985 139.758 82.4548 142.01 82.2838C144.263 82.1129 146.493 82.8282 148.226 84.2775C149.959 85.7268 151.058 87.7955 151.289 90.0432C151.52 92.2909 150.865 94.54 149.463 96.3115C148.061 98.0831 146.022 99.2372 143.782 99.5281C143.476 99.5674 143.169 99.5907 142.86 99.5981ZM142.542 84.8278C142.326 84.8324 142.111 84.8486 141.897 84.8766C140.318 85.0805 138.881 85.8931 137.891 87.1414C136.902 88.3897 136.439 89.9749 136.601 91.5595C136.763 93.1441 137.537 94.6028 138.759 95.6249C139.98 96.647 141.552 97.1518 143.14 97.0317C144.728 96.9116 146.206 96.1761 147.26 94.982C148.314 93.7878 148.86 92.2292 148.782 90.6383C148.704 89.0474 148.008 87.5498 146.843 86.4645C145.677 85.3791 144.134 84.7919 142.542 84.8278Z" fill="#292A2E"/>
<path d="M148.153 80.3478C146.017 80.3929 143.939 79.6464 142.321 78.2521C140.702 76.8577 139.655 74.9139 139.383 72.7945C139.164 71.0958 139.454 69.3704 140.216 67.8366C140.978 66.3028 142.178 65.0294 143.663 64.1775C145.149 63.3255 146.853 62.9333 148.561 63.0505C150.27 63.1676 151.905 63.7887 153.26 64.8354C154.616 65.8821 155.63 67.3073 156.176 68.9308C156.721 70.5542 156.773 72.303 156.325 73.956C155.877 75.6091 154.949 77.092 153.658 78.2175C152.368 79.3429 150.772 80.0602 149.074 80.2787C148.768 80.3177 148.461 80.3408 148.153 80.3478ZM147.838 65.5768C146.981 65.5948 146.137 65.7932 145.361 66.1589C144.585 66.5247 143.895 67.0497 143.336 67.6998C142.776 68.3499 142.36 69.1105 142.114 69.9322C141.867 70.7539 141.797 71.6182 141.907 72.469C142.058 73.6398 142.545 74.7416 143.309 75.6414C144.073 76.5411 145.082 77.2002 146.212 77.539C147.343 77.8777 148.547 77.8817 149.68 77.5503C150.813 77.2189 151.826 76.5664 152.596 75.6716C153.366 74.7769 153.86 73.6782 154.019 72.5084C154.178 71.3387 153.995 70.1479 153.491 69.08C152.988 68.0121 152.187 67.1129 151.183 66.4911C150.18 65.8693 149.018 65.5515 147.838 65.576V65.5768Z" fill="#292A2E"/>
<path d="M156.305 84.0846C157.413 80.0559 153.422 75.4458 147.392 73.7876C141.363 72.1294 135.577 74.051 134.469 78.0796C133.362 82.1083 137.352 86.7184 143.382 88.3766C149.412 90.0348 155.198 88.1132 156.305 84.0846Z" fill="white"/>
<path d="M148.057 90.2434C146.364 90.2746 144.676 90.0595 143.045 89.605C136.233 87.7314 131.927 82.5202 133.241 77.7422C134.556 72.9643 140.919 70.6881 147.729 72.5594C150.713 73.3222 153.41 74.9399 155.488 77.2139C157.459 79.494 158.185 82.05 157.532 84.4221C156.879 86.7942 154.948 88.623 152.091 89.572C150.787 89.9944 149.427 90.2207 148.057 90.2434ZM142.814 74.4794C139.262 74.558 136.352 76.0345 135.698 78.4168C134.793 81.7057 138.467 85.7037 143.715 87.148C146.184 87.8858 148.815 87.888 151.285 87.1543C153.308 86.482 154.654 85.272 155.073 83.7467C155.492 82.2214 154.954 80.4941 153.558 78.8815C151.811 76.988 149.549 75.6449 147.051 75.0164C145.672 74.6329 144.245 74.452 142.814 74.4794Z" fill="#292A2E"/>
<path d="M146.114 88.8903L149.767 74.6374L146.282 73.5217L142.038 87.9445L146.114 88.8903Z" fill="#292A2E"/>
<path d="M130.365 80.2134C131.011 80.2134 131.534 79.69 131.534 79.0443C131.534 78.3986 131.011 77.8751 130.365 77.8751C129.719 77.8751 129.196 78.3986 129.196 79.0443C129.196 79.69 129.719 80.2134 130.365 80.2134Z" fill="#292A2E"/>
<path d="M132.909 74.4251C133.554 74.4251 134.078 73.9017 134.078 73.256C134.078 72.6103 133.554 72.0869 132.909 72.0869C132.263 72.0869 131.74 72.6103 131.74 73.256C131.74 73.9017 132.263 74.4251 132.909 74.4251Z" fill="#292A2E"/>
<path d="M273.238 236.064C273.071 236.064 272.908 236.011 272.774 235.912C272.639 235.814 272.539 235.675 272.488 235.516C272.437 235.357 272.439 235.186 272.492 235.028C272.545 234.87 272.646 234.732 272.783 234.636C273.302 234.248 273.802 233.835 274.28 233.397C274.357 233.328 274.446 233.274 274.544 233.24C274.641 233.206 274.744 233.191 274.847 233.196C274.951 233.202 275.052 233.228 275.145 233.272C275.238 233.317 275.321 233.379 275.39 233.456C275.459 233.533 275.513 233.622 275.547 233.72C275.581 233.817 275.596 233.92 275.591 234.024C275.585 234.127 275.559 234.228 275.515 234.321C275.47 234.414 275.408 234.498 275.331 234.567C274.808 235.046 274.26 235.498 273.69 235.92C273.557 236.014 273.4 236.063 273.238 236.064ZM281.04 227.633C280.896 227.633 280.755 227.594 280.632 227.519C280.509 227.444 280.409 227.336 280.343 227.208C280.276 227.08 280.247 226.936 280.257 226.792C280.267 226.649 280.316 226.51 280.399 226.393C282.194 223.842 283.766 221.141 285.098 218.321C285.14 218.224 285.201 218.137 285.277 218.064C285.354 217.992 285.444 217.936 285.543 217.899C285.641 217.862 285.746 217.845 285.851 217.85C285.957 217.854 286.06 217.88 286.155 217.925C286.25 217.97 286.335 218.034 286.405 218.113C286.475 218.191 286.529 218.283 286.563 218.383C286.596 218.483 286.61 218.588 286.602 218.693C286.594 218.798 286.565 218.901 286.517 218.994C285.148 221.897 283.53 224.676 281.682 227.301C281.61 227.404 281.513 227.488 281.402 227.545C281.29 227.603 281.166 227.634 281.04 227.633ZM289.193 210.594C289.116 210.594 289.04 210.583 288.967 210.561C288.767 210.501 288.599 210.364 288.501 210.181C288.402 209.997 288.38 209.782 288.44 209.582C289.331 206.585 290.023 203.531 290.51 200.442C290.525 200.339 290.56 200.24 290.613 200.151C290.667 200.061 290.738 199.984 290.822 199.922C290.905 199.86 291.001 199.816 291.102 199.791C291.203 199.766 291.308 199.762 291.411 199.778C291.514 199.795 291.612 199.831 291.701 199.886C291.79 199.941 291.866 200.013 291.927 200.098C291.988 200.182 292.031 200.278 292.054 200.38C292.077 200.481 292.08 200.587 292.062 200.689C291.564 203.847 290.858 206.969 289.946 210.034C289.898 210.196 289.798 210.338 289.662 210.439C289.527 210.54 289.362 210.594 289.193 210.594ZM292.214 191.921H292.181C291.973 191.912 291.776 191.822 291.635 191.668C291.494 191.515 291.419 191.312 291.428 191.103C291.478 189.886 291.506 188.635 291.506 187.386C291.508 185.51 291.387 183.636 291.146 181.775C291.131 181.672 291.137 181.568 291.163 181.467C291.189 181.366 291.235 181.271 291.298 181.189C291.36 181.106 291.439 181.036 291.529 180.984C291.619 180.932 291.719 180.898 291.822 180.884C291.925 180.871 292.03 180.878 292.13 180.905C292.231 180.933 292.325 180.98 292.407 181.044C292.489 181.108 292.557 181.187 292.608 181.278C292.66 181.369 292.692 181.468 292.704 181.572C292.955 183.5 293.08 185.442 293.078 187.386C293.078 188.657 293.053 189.929 293 191.168C292.991 191.37 292.904 191.562 292.758 191.702C292.612 191.842 292.417 191.92 292.214 191.92V191.921ZM289.62 173.287C289.46 173.287 289.305 173.239 289.174 173.149C289.042 173.058 288.942 172.93 288.885 172.781C287.778 169.883 286.339 167.123 284.595 164.557C284.537 164.471 284.497 164.375 284.476 164.274C284.455 164.173 284.454 164.069 284.474 163.967C284.493 163.866 284.533 163.769 284.589 163.683C284.646 163.597 284.719 163.522 284.805 163.464C284.89 163.406 284.986 163.366 285.088 163.345C285.189 163.324 285.293 163.323 285.394 163.343C285.496 163.362 285.592 163.402 285.679 163.458C285.765 163.515 285.839 163.588 285.897 163.674C287.708 166.341 289.204 169.21 290.355 172.222C290.391 172.318 290.409 172.421 290.406 172.524C290.403 172.628 290.379 172.729 290.337 172.824C290.295 172.918 290.234 173.003 290.159 173.073C290.084 173.144 289.995 173.2 289.899 173.236C289.81 173.27 289.716 173.287 289.621 173.286L289.62 173.287ZM231.531 169.529C230.258 169.593 228.986 169.396 227.792 168.95C226.599 168.504 225.509 167.818 224.591 166.934C224.446 166.784 224.367 166.583 224.371 166.374C224.376 166.166 224.462 165.967 224.613 165.823C224.763 165.678 224.964 165.599 225.173 165.604C225.381 165.608 225.58 165.694 225.724 165.845C227.408 167.596 230.069 168.273 233.49 167.823L233.903 167.766C234.109 167.736 234.319 167.79 234.486 167.915C234.653 168.04 234.763 168.226 234.792 168.433C234.822 168.639 234.768 168.849 234.643 169.016C234.518 169.182 234.332 169.293 234.125 169.322L233.699 169.382C232.981 169.478 232.258 169.528 231.535 169.53L231.531 169.529ZM243.073 166.674C242.894 166.676 242.721 166.617 242.58 166.507C242.439 166.396 242.341 166.242 242.3 166.068C242.259 165.894 242.279 165.711 242.355 165.55C242.432 165.389 242.562 165.258 242.722 165.18C245.465 163.871 247.808 161.853 249.51 159.334C249.628 159.167 249.806 159.053 250.006 159.016C250.207 158.978 250.414 159.019 250.584 159.132C250.754 159.244 250.874 159.418 250.919 159.617C250.963 159.816 250.928 160.025 250.822 160.199C248.968 162.949 246.413 165.154 243.422 166.585C243.315 166.641 243.197 166.672 243.077 166.675L243.073 166.674ZM223.375 158.251C223.315 158.252 223.255 158.245 223.197 158.232C223.096 158.208 223.001 158.166 222.917 158.105C222.833 158.045 222.762 157.97 222.707 157.882C222.652 157.794 222.616 157.697 222.599 157.595C222.582 157.493 222.585 157.389 222.608 157.288C223.409 154.07 225.019 151.111 227.287 148.692C227.43 148.546 227.624 148.461 227.829 148.456C228.033 148.451 228.232 148.525 228.382 148.664C228.532 148.803 228.623 148.995 228.634 149.199C228.645 149.403 228.576 149.604 228.441 149.758C226.359 151.976 224.878 154.69 224.14 157.641C224.101 157.814 224.004 157.968 223.866 158.079C223.728 158.19 223.556 158.251 223.379 158.252L223.375 158.251ZM279.118 157.684C278.916 157.684 278.721 157.606 278.575 157.465C276.319 155.317 273.869 153.382 271.255 151.687C271.166 151.632 271.088 151.56 271.027 151.474C270.966 151.389 270.922 151.292 270.899 151.19C270.876 151.087 270.874 150.981 270.892 150.878C270.911 150.775 270.95 150.676 271.007 150.588C271.064 150.5 271.139 150.424 271.226 150.365C271.312 150.306 271.41 150.266 271.513 150.245C271.616 150.225 271.722 150.225 271.825 150.247C271.928 150.268 272.026 150.31 272.112 150.369C274.807 152.117 277.333 154.113 279.658 156.329C279.772 156.437 279.85 156.577 279.883 156.731C279.917 156.884 279.903 157.044 279.845 157.19C279.786 157.336 279.686 157.461 279.556 157.549C279.425 157.637 279.272 157.684 279.115 157.684H279.118ZM253.168 151.665C253.142 151.665 253.116 151.665 253.09 151.665C252.987 151.655 252.887 151.624 252.796 151.575C252.704 151.526 252.624 151.459 252.559 151.379C252.493 151.298 252.445 151.206 252.415 151.106C252.386 151.007 252.376 150.903 252.387 150.8C252.476 149.901 252.52 148.999 252.519 148.095C252.504 145.909 252.292 143.729 251.884 141.581C251.846 141.376 251.891 141.165 252.009 140.993C252.128 140.821 252.309 140.703 252.514 140.666C252.719 140.628 252.931 140.673 253.103 140.791C253.274 140.909 253.392 141.091 253.43 141.296C253.541 141.902 253.639 142.5 253.722 143.09C253.815 142.977 253.938 142.892 254.077 142.844C254.216 142.797 254.366 142.79 254.509 142.823C257.634 143.562 260.688 144.573 263.638 145.844C263.829 145.926 263.98 146.081 264.058 146.275C264.135 146.468 264.132 146.685 264.05 146.876C263.968 147.068 263.813 147.219 263.619 147.296C263.425 147.374 263.209 147.371 263.017 147.289C260.152 146.054 257.185 145.073 254.149 144.355C254.046 144.33 253.949 144.285 253.864 144.223C254.011 145.509 254.087 146.802 254.09 148.095C254.091 149.051 254.044 150.006 253.95 150.957C253.93 151.151 253.839 151.331 253.695 151.462C253.551 151.592 253.363 151.665 253.168 151.665ZM235.639 144.716C235.456 144.716 235.279 144.653 235.138 144.536C234.997 144.419 234.901 144.257 234.867 144.077C234.833 143.897 234.862 143.711 234.95 143.551C235.039 143.391 235.18 143.266 235.35 143.199C235.836 143.007 236.329 142.831 236.818 142.676C239.341 141.921 241.966 141.558 244.6 141.6H244.941C245.15 141.6 245.35 141.682 245.497 141.83C245.645 141.977 245.728 142.177 245.728 142.386C245.728 142.594 245.645 142.794 245.497 142.942C245.35 143.089 245.15 143.172 244.941 143.172H244.936H244.603C242.132 143.131 239.669 143.469 237.3 144.175C236.832 144.323 236.377 144.485 235.933 144.66C235.839 144.697 235.739 144.716 235.638 144.714L235.639 144.716ZM250.097 133.099C249.936 133.099 249.779 133.049 249.648 132.957C249.516 132.865 249.415 132.735 249.36 132.584C248.269 129.647 247.006 126.776 245.578 123.988C245.531 123.896 245.503 123.795 245.494 123.692C245.486 123.589 245.498 123.486 245.53 123.387C245.562 123.289 245.613 123.198 245.68 123.119C245.747 123.041 245.829 122.976 245.921 122.929C246.013 122.882 246.114 122.854 246.217 122.846C246.32 122.838 246.423 122.85 246.521 122.882C246.62 122.914 246.711 122.965 246.789 123.033C246.868 123.1 246.932 123.182 246.979 123.274C248.436 126.118 249.723 129.046 250.835 132.042C250.879 132.161 250.893 132.288 250.877 132.414C250.86 132.539 250.814 132.659 250.742 132.763C250.669 132.867 250.573 132.951 250.461 133.01C250.348 133.068 250.224 133.099 250.097 133.099ZM241.569 116.183C241.437 116.183 241.306 116.15 241.19 116.086C241.074 116.022 240.975 115.93 240.904 115.818C239.239 113.193 237.424 110.593 235.514 108.091C235.387 107.925 235.331 107.716 235.359 107.509C235.386 107.303 235.495 107.115 235.661 106.989C235.826 106.862 236.035 106.806 236.242 106.834C236.449 106.861 236.636 106.97 236.763 107.136C238.701 109.674 240.541 112.312 242.232 114.974C242.344 115.15 242.381 115.364 242.336 115.567C242.29 115.771 242.166 115.948 241.99 116.059C241.864 116.14 241.717 116.182 241.568 116.181L241.569 116.183ZM230.058 101.118C229.948 101.118 229.84 101.095 229.74 101.051C229.64 101.007 229.55 100.943 229.477 100.862C228.516 99.8127 227.535 98.7874 226.562 97.8133C225.348 96.5997 224.07 95.4525 222.733 94.3767C222.65 94.313 222.58 94.2333 222.528 94.1422C222.476 94.0511 222.442 93.9506 222.43 93.8464C222.417 93.7422 222.425 93.6365 222.454 93.5356C222.483 93.4347 222.532 93.3406 222.597 93.2588C222.663 93.177 222.745 93.1092 222.837 93.0595C222.929 93.0097 223.031 92.9789 223.135 92.9689C223.24 92.9589 223.345 92.9699 223.445 93.0013C223.545 93.0327 223.638 93.0839 223.718 93.1517C225.1 94.2625 226.42 95.4476 227.673 96.7016C228.663 97.6914 229.66 98.734 230.637 99.8017C230.74 99.9142 230.807 100.054 230.832 100.204C230.857 100.355 230.837 100.509 230.776 100.648C230.714 100.788 230.614 100.906 230.486 100.99C230.359 101.073 230.21 101.118 230.058 101.118ZM215.289 89.3872C215.164 89.3868 215.04 89.3566 214.928 89.2991C212.16 87.8733 209.266 86.7081 206.282 85.8185C206.085 85.7568 205.919 85.6197 205.822 85.4371C205.725 85.2545 205.704 85.0409 205.763 84.8428C205.823 84.6446 205.957 84.4778 206.139 84.3784C206.32 84.2791 206.533 84.2552 206.732 84.312C209.811 85.2291 212.798 86.431 215.655 87.902C215.812 87.9828 215.937 88.114 216.01 88.2745C216.083 88.4351 216.1 88.6156 216.059 88.787C216.017 88.9584 215.919 89.1108 215.78 89.2197C215.641 89.3286 215.47 89.3876 215.293 89.3872H215.289ZM169.025 86.0142C168.837 86.0143 168.655 85.947 168.513 85.8247C168.37 85.7024 168.276 85.533 168.248 85.3473C168.219 85.1616 168.258 84.9719 168.357 84.8124C168.457 84.6529 168.61 84.5343 168.789 84.4779C171.873 83.5873 175.021 82.9349 178.205 82.5265C178.309 82.5084 178.416 82.5114 178.518 82.5353C178.621 82.5593 178.718 82.6038 178.803 82.666C178.889 82.7283 178.961 82.8071 179.015 82.8978C179.069 82.9884 179.104 83.089 179.119 83.1937C179.133 83.2983 179.126 83.4047 179.099 83.5067C179.071 83.6086 179.023 83.7039 178.958 83.7869C178.893 83.87 178.811 83.939 178.719 83.9899C178.626 84.0408 178.525 84.0726 178.419 84.0832C175.323 84.4842 172.262 85.1178 169.261 85.9789C169.185 86.0025 169.105 86.0145 169.025 86.0142ZM197.232 83.9048C197.198 83.9046 197.164 83.9025 197.131 83.8985C194.029 83.5044 190.903 83.3299 187.777 83.3764H187.766C187.558 83.3778 187.357 83.2962 187.209 83.1498C187.061 83.0033 186.977 82.8038 186.975 82.5953C186.974 82.3868 187.055 82.1863 187.202 82.0378C187.348 81.8894 187.548 81.8053 187.756 81.8039C190.956 81.7629 194.155 81.9416 197.33 82.3386C197.529 82.3638 197.71 82.4636 197.837 82.6176C197.964 82.7716 198.028 82.9683 198.016 83.1678C198.003 83.3672 197.915 83.5544 197.77 83.6913C197.624 83.8282 197.432 83.9045 197.232 83.9048Z" fill="#1E1E1E"/>
<path d="M526.297 18.0512C524.609 18.3543 522.869 18.1737 521.279 17.5303C519.689 16.8869 518.314 15.8069 517.311 14.4149C516.308 13.023 515.72 11.3759 515.613 9.66363C515.506 7.95141 515.886 6.24389 516.708 4.73816C517.53 3.23243 518.761 1.98987 520.258 1.15389C521.756 0.317914 523.46 -0.0774049 525.172 0.0135634C526.885 0.104532 528.537 0.678079 529.938 1.66801C531.339 2.65794 532.431 4.02389 533.089 5.60822C533.608 6.86461 533.839 8.22121 533.766 9.5786C533.692 10.936 533.316 12.2597 532.665 13.4529C532.014 14.646 531.104 15.6782 530.002 16.4738C528.9 17.2695 527.634 17.8085 526.297 18.0512ZM523.52 2.65197C522.188 2.89406 520.963 3.54371 520.014 4.51136C519.066 5.47902 518.442 6.71704 518.226 8.05476C518.011 9.39249 518.216 10.764 518.813 11.9804C519.41 13.1967 520.369 14.1979 521.559 14.846C522.748 15.4941 524.11 15.7572 525.455 15.5989C526.8 15.4406 528.063 14.8689 529.07 13.9624C530.077 13.0559 530.778 11.8594 531.076 10.5378C531.375 9.21613 531.256 7.83443 530.736 6.58315C530.163 5.20229 529.135 4.05926 527.822 3.34409C526.509 2.62892 524.991 2.38468 523.52 2.65197Z" fill="#292A2E"/>
<path d="M526.237 39.1923C523.94 39.6096 521.57 39.1301 519.616 37.8527C517.662 36.5752 516.271 34.5969 515.731 32.325C515.191 30.0532 515.543 27.6607 516.713 25.64C517.883 23.6194 519.783 22.1244 522.022 21.4629C524.261 20.8013 526.669 21.0236 528.749 22.0838C530.829 23.144 532.424 24.9616 533.204 27.1623C533.985 29.363 533.893 31.7794 532.946 33.9141C532 36.0487 530.271 37.7391 528.116 38.6372C527.511 38.8891 526.881 39.0752 526.237 39.1923ZM523.474 23.7899C523.01 23.8742 522.556 24.0081 522.12 24.1893C520.581 24.8316 519.346 26.0394 518.67 27.5643C517.994 29.0893 517.928 30.8153 518.486 32.3873C519.044 33.9594 520.183 35.2578 521.668 36.0156C523.154 36.7734 524.873 36.9328 526.473 36.461C528.073 35.9893 529.431 34.9223 530.268 33.4796C531.105 32.0369 531.357 30.3281 530.973 28.7049C530.589 27.0817 529.597 25.6675 528.202 24.7533C526.807 23.839 525.115 23.4943 523.474 23.7899Z" fill="#292A2E"/>
<path d="M536.648 19.9548C536.661 15.5305 531.303 11.9286 524.68 11.9098C518.058 11.8909 512.68 15.4623 512.667 19.8866C512.655 24.3109 518.013 27.9128 524.635 27.9316C531.257 27.9505 536.635 24.3791 536.648 19.9548Z" fill="white"/>
<path d="M528.073 28.9052C526.938 29.1095 525.786 29.21 524.633 29.2055C521.387 29.2552 518.196 28.3559 515.454 26.618C512.829 24.8545 511.387 22.4628 511.395 19.8831C511.403 17.3035 512.858 14.9212 515.493 13.171C518.268 11.5035 521.448 10.6269 524.686 10.6362C527.924 10.6455 531.098 11.5402 533.864 13.2237C536.49 14.9872 537.931 17.3797 537.923 19.9586C537.915 22.5375 536.46 24.9221 533.826 26.6707C532.079 27.7962 530.122 28.5563 528.073 28.9052ZM521.691 13.4446C519.985 13.7317 518.354 14.361 516.896 15.2946C514.994 16.5589 513.943 18.1911 513.938 19.8918C513.934 21.5924 514.974 23.2317 516.87 24.5054C519.219 25.9077 521.901 26.6519 524.636 26.6597C527.371 26.6676 530.058 25.939 532.414 24.5502C534.316 23.286 535.368 21.6537 535.373 19.9531C535.377 18.2525 534.337 16.614 532.441 15.3395C530.116 13.8825 527.417 13.1345 524.674 13.1867C523.674 13.182 522.676 13.2684 521.691 13.4446Z" fill="#292A2E"/>
<path d="M521.747 12.1442L521.973 27.7235L525.845 27.8949L526.175 11.9783L521.747 12.1442Z" fill="#292A2E"/>
<path d="M539.584 25.6887C540.268 25.6887 540.822 25.1343 540.822 24.4504C540.822 23.7665 540.268 23.2121 539.584 23.2121C538.9 23.2121 538.346 23.7665 538.346 24.4504C538.346 25.1343 538.9 25.6887 539.584 25.6887Z" fill="#292A2E"/>
<path d="M540.575 19.067C541.259 19.067 541.813 18.5126 541.813 17.8287C541.813 17.1448 541.259 16.5904 540.575 16.5904C539.892 16.5904 539.337 17.1448 539.337 17.8287C539.337 18.5126 539.892 19.067 540.575 19.067Z" fill="#292A2E"/>
<path d="M355.034 199.967C354.893 199.967 354.755 199.929 354.634 199.858C354.513 199.786 354.413 199.684 354.345 199.561C352.865 196.713 351.594 193.761 350.542 190.728C350.471 190.532 350.481 190.316 350.57 190.127C350.658 189.938 350.818 189.792 351.014 189.722C351.21 189.651 351.426 189.661 351.615 189.749C351.804 189.838 351.95 189.998 352.021 190.194C353.049 193.146 354.286 196.022 355.721 198.8C355.787 198.919 355.821 199.054 355.819 199.191C355.817 199.328 355.779 199.462 355.71 199.579C355.641 199.697 355.542 199.795 355.423 199.863C355.305 199.931 355.17 199.966 355.034 199.967ZM348.489 182.179C348.315 182.179 348.145 182.121 348.008 182.014C347.87 181.907 347.772 181.758 347.728 181.589C346.942 178.531 346.271 175.387 345.747 172.24C345.713 172.034 345.762 171.823 345.883 171.654C346.004 171.484 346.188 171.37 346.394 171.335C346.599 171.301 346.81 171.35 346.98 171.471C347.149 171.593 347.264 171.776 347.298 171.982C347.815 175.083 348.472 178.182 349.251 181.196C349.303 181.398 349.272 181.612 349.167 181.792C349.061 181.971 348.888 182.101 348.686 182.154C348.622 182.17 348.556 182.179 348.489 182.179ZM345.367 163.484C345.169 163.484 344.978 163.41 344.832 163.276C344.686 163.142 344.596 162.957 344.581 162.76C344.352 159.86 344.236 156.916 344.236 154.01V153.213C344.237 153.005 344.321 152.805 344.47 152.659C344.618 152.512 344.819 152.431 345.027 152.432C345.236 152.434 345.435 152.518 345.581 152.667C345.728 152.815 345.809 153.016 345.808 153.224V154.01C345.808 156.875 345.922 159.777 346.148 162.635C346.165 162.843 346.098 163.049 345.963 163.208C345.828 163.366 345.635 163.465 345.427 163.481C345.408 163.483 345.388 163.484 345.367 163.484ZM345.505 144.535C345.48 144.535 345.456 144.535 345.426 144.535C345.219 144.515 345.028 144.414 344.896 144.254C344.763 144.093 344.7 143.887 344.719 143.679C345.014 140.526 345.45 137.342 346.015 134.216C346.031 134.112 346.067 134.012 346.122 133.922C346.177 133.832 346.249 133.754 346.335 133.692C346.42 133.631 346.517 133.587 346.62 133.564C346.723 133.541 346.829 133.539 346.933 133.557C347.037 133.576 347.135 133.616 347.223 133.673C347.312 133.731 347.387 133.806 347.446 133.893C347.505 133.981 347.545 134.079 347.565 134.183C347.585 134.286 347.583 134.393 347.561 134.496C347.005 137.578 346.575 140.717 346.284 143.825C346.264 144.019 346.174 144.198 346.03 144.328C345.886 144.459 345.699 144.531 345.505 144.532V144.535ZM348.867 125.886C348.798 125.886 348.729 125.877 348.663 125.859C348.563 125.832 348.469 125.786 348.388 125.723C348.306 125.661 348.237 125.582 348.185 125.493C348.134 125.403 348.1 125.305 348.087 125.202C348.073 125.1 348.08 124.996 348.107 124.896C348.924 121.856 349.883 118.791 350.959 115.784C350.993 115.686 351.047 115.596 351.116 115.52C351.185 115.443 351.269 115.38 351.362 115.336C351.456 115.292 351.557 115.266 351.661 115.261C351.764 115.256 351.867 115.271 351.964 115.306C352.062 115.341 352.151 115.395 352.228 115.464C352.304 115.534 352.367 115.618 352.411 115.711C352.455 115.805 352.48 115.906 352.485 116.01C352.49 116.113 352.474 116.216 352.439 116.313C351.377 119.281 350.43 122.306 349.626 125.304C349.58 125.47 349.481 125.617 349.344 125.722C349.207 125.826 349.039 125.883 348.867 125.883V125.886ZM355.24 108.038C355.129 108.038 355.02 108.015 354.919 107.969C354.729 107.883 354.581 107.726 354.508 107.531C354.434 107.336 354.44 107.12 354.526 106.93C355.168 105.496 355.851 104.044 356.556 102.617C357.261 101.19 358.013 99.7608 358.789 98.381C358.891 98.1991 359.061 98.0654 359.262 98.0091C359.463 97.9529 359.678 97.9787 359.86 98.081C360.041 98.1833 360.175 98.3536 360.231 98.5545C360.288 98.7554 360.262 98.9704 360.159 99.1523C359.397 100.507 358.66 101.904 357.966 103.313C357.271 104.722 356.595 106.157 355.96 107.574C355.897 107.712 355.795 107.829 355.668 107.91C355.54 107.992 355.391 108.035 355.24 108.034V108.038ZM438.621 102.66C438.422 102.66 438.231 102.584 438.086 102.447C437.94 102.311 437.852 102.125 437.839 101.926C437.826 101.727 437.889 101.531 438.015 101.377C438.141 101.222 438.321 101.122 438.519 101.095C441.473 100.702 443.578 98.929 444.777 95.821C444.813 95.7225 444.868 95.6321 444.939 95.5552C445.01 95.4782 445.095 95.4162 445.19 95.3728C445.286 95.3294 445.389 95.3055 445.493 95.3024C445.598 95.2993 445.702 95.3172 445.8 95.3549C445.897 95.3927 445.987 95.4496 446.062 95.5222C446.137 95.5949 446.197 95.6819 446.239 95.7781C446.28 95.8743 446.302 95.9778 446.302 96.0825C446.303 96.1872 446.283 96.291 446.243 96.3878C444.842 100.021 442.243 102.188 438.726 102.654C438.691 102.657 438.656 102.658 438.621 102.657V102.66ZM429.483 100.676C429.364 100.677 429.246 100.65 429.139 100.597C426.247 99.1427 423.557 97.3192 421.135 95.1723C421.057 95.1045 420.993 95.0221 420.947 94.9296C420.901 94.8372 420.874 94.7365 420.866 94.6335C420.859 94.5304 420.872 94.427 420.905 94.329C420.938 94.2311 420.99 94.1405 421.058 94.0626C421.125 93.9846 421.208 93.9208 421.3 93.8747C421.393 93.8286 421.493 93.8012 421.596 93.794C421.699 93.7868 421.803 93.8 421.901 93.8328C421.999 93.8656 422.089 93.9173 422.167 93.9851C424.485 96.0434 427.061 97.7917 429.83 99.1861C429.99 99.2638 430.119 99.3937 430.196 99.5546C430.273 99.7155 430.293 99.8978 430.253 100.071C430.212 100.245 430.114 100.4 429.974 100.511C429.834 100.621 429.661 100.681 429.483 100.68V100.676ZM364.577 91.5674C364.432 91.5673 364.29 91.5272 364.167 91.4515C364.043 91.3758 363.943 91.2674 363.877 91.1383C363.811 91.0092 363.783 90.8644 363.794 90.72C363.805 90.5755 363.856 90.437 363.941 90.3197C365.815 87.7323 367.846 85.2625 370.022 82.9243C370.165 82.777 370.361 82.6916 370.566 82.6866C370.772 82.6815 370.971 82.7572 371.121 82.8973C371.272 83.0374 371.361 83.2309 371.371 83.4363C371.38 83.6417 371.309 83.8426 371.172 83.996C369.04 86.2874 367.05 88.7075 365.214 91.2427C365.14 91.3426 365.044 91.4237 364.934 91.4795C364.823 91.5352 364.701 91.564 364.577 91.5635V91.5674ZM415.149 88.4681C415.029 88.4682 414.911 88.4409 414.804 88.3883C414.696 88.3357 414.602 88.2592 414.528 88.1646C412.549 85.629 410.819 82.909 409.361 80.042C409.311 79.9495 409.279 79.8478 409.269 79.743C409.259 79.6383 409.27 79.5325 409.301 79.432C409.333 79.3315 409.384 79.2384 409.452 79.1581C409.52 79.0778 409.604 79.012 409.698 78.9646C409.792 78.9172 409.894 78.8891 409.999 78.8821C410.104 78.8751 410.209 78.8893 410.309 78.9238C410.408 78.9583 410.5 79.0124 410.578 79.0829C410.656 79.1534 410.719 79.239 410.764 79.3344C412.176 82.1111 413.852 84.7456 415.769 87.2015C415.859 87.3176 415.915 87.4568 415.931 87.6032C415.946 87.7496 415.92 87.8974 415.855 88.0298C415.791 88.1621 415.69 88.2736 415.565 88.3517C415.441 88.4297 415.296 88.4712 415.149 88.4712V88.4681ZM446.649 87.5451C446.448 87.5454 446.255 87.469 446.109 87.3314C445.962 87.1938 445.874 87.0056 445.863 86.8052C445.704 83.7401 444.952 80.735 443.648 77.9569C443.595 77.8631 443.561 77.7594 443.55 77.6522C443.539 77.545 443.55 77.4366 443.582 77.3338C443.614 77.231 443.668 77.136 443.738 77.0546C443.809 76.9732 443.895 76.9072 443.993 76.8607C444.09 76.8142 444.196 76.7882 444.303 76.7842C444.411 76.7803 444.518 76.7986 444.619 76.8379C444.719 76.8772 444.81 76.9367 444.886 77.0128C444.963 77.0888 445.023 77.1798 445.062 77.2799C446.456 80.2392 447.261 83.4412 447.432 86.7077C447.445 86.9158 447.374 87.1203 447.236 87.2763C447.098 87.4323 446.903 87.527 446.695 87.5395L446.649 87.5451ZM377.5 77.7517C377.338 77.7519 377.179 77.702 377.047 77.6088C376.914 77.5156 376.813 77.3836 376.759 77.2309C376.704 77.0783 376.698 76.9124 376.741 76.7561C376.784 76.5997 376.874 76.4606 377 76.3577C379.469 74.3239 382.076 72.4634 384.802 70.7896C384.89 70.7271 384.989 70.6834 385.095 70.6611C385.2 70.6388 385.309 70.6383 385.414 70.6598C385.52 70.6813 385.62 70.7242 385.708 70.7859C385.796 70.8476 385.871 70.9268 385.927 71.0185C385.984 71.1103 386.021 71.2126 386.036 71.3192C386.051 71.4258 386.044 71.5344 386.016 71.6383C385.987 71.7421 385.938 71.839 385.87 71.923C385.803 72.0069 385.719 72.076 385.624 72.1262C382.959 73.7619 380.412 75.5803 377.999 77.5685C377.859 77.6848 377.682 77.7482 377.5 77.7478V77.7517ZM406.731 71.6088C406.556 71.6087 406.385 71.5498 406.247 71.4415C406.109 71.3332 406.011 71.1817 405.969 71.0113C405.286 68.2871 404.936 65.4903 404.926 62.6819C404.926 62.2521 404.934 61.8218 404.952 61.3909C404.955 61.2873 404.978 61.1854 405.021 61.091C405.064 60.9967 405.125 60.9119 405.201 60.8416C405.277 60.7713 405.367 60.717 405.464 60.6818C405.562 60.6467 405.665 60.6314 405.768 60.6369C405.977 60.6453 406.173 60.736 406.315 60.8892C406.456 61.0424 406.531 61.2455 406.522 61.4538C406.507 61.8637 406.498 62.2731 406.498 62.6819C406.508 65.3634 406.843 68.0337 407.495 70.6347C407.545 70.8372 407.513 71.0511 407.405 71.2295C407.297 71.408 407.123 71.5362 406.92 71.586C406.858 71.6004 406.795 71.6067 406.731 71.6049V71.6088ZM438.645 70.9217C438.455 70.9216 438.27 70.8523 438.127 70.7267C435.796 68.7129 433.145 67.1021 430.284 65.9605C430.188 65.9215 430.101 65.864 430.028 65.7913C429.955 65.7187 429.896 65.6323 429.856 65.5371C429.816 65.4419 429.795 65.3398 429.795 65.2365C429.794 65.1332 429.814 65.0309 429.853 64.9352C429.892 64.8396 429.95 64.7527 430.022 64.6793C430.095 64.6059 430.181 64.5475 430.276 64.5075C430.372 64.4675 430.474 64.4466 430.577 64.4461C430.68 64.4455 430.783 64.4654 430.878 64.5044C433.901 65.7116 436.701 67.415 439.164 69.5442C439.284 69.6496 439.369 69.7892 439.408 69.9444C439.447 70.0996 439.438 70.2629 439.381 70.4126C439.325 70.5623 439.224 70.6912 439.093 70.7822C438.961 70.8731 438.805 70.9218 438.645 70.9217ZM393.63 67.897C393.449 67.897 393.273 67.8344 393.133 67.7198C392.993 67.6052 392.896 67.4456 392.86 67.268C392.824 67.0905 392.85 66.9058 392.934 66.7454C393.018 66.5849 393.155 66.4585 393.322 66.3874C396.269 65.128 399.31 64.1027 402.418 63.3211C402.619 63.2745 402.83 63.3087 403.006 63.4163C403.182 63.5239 403.308 63.6963 403.358 63.8963C403.408 64.0964 403.378 64.308 403.273 64.4857C403.169 64.6635 402.999 64.793 402.8 64.8464C399.772 65.6082 396.809 66.6072 393.938 67.8341C393.841 67.874 393.737 67.894 393.632 67.8931L393.63 67.897ZM421.427 63.6348C421.392 63.6348 421.357 63.6324 421.322 63.6277C419.373 63.3697 417.409 63.2415 415.442 63.2441C414.301 63.2441 413.172 63.2834 412.018 63.3651C411.913 63.376 411.807 63.3656 411.706 63.3347C411.605 63.3038 411.512 63.2529 411.431 63.185C411.35 63.1172 411.284 63.0338 411.236 62.9399C411.188 62.8459 411.16 62.7433 411.153 62.6381C411.145 62.533 411.159 62.4274 411.193 62.3277C411.228 62.2279 411.281 62.1361 411.352 62.0577C411.422 61.9793 411.508 61.9158 411.603 61.8711C411.699 61.8263 411.802 61.8013 411.908 61.7974C413.098 61.7117 414.266 61.6598 415.445 61.6716C417.481 61.6691 419.514 61.802 421.533 62.0694C421.73 62.0961 421.91 62.1968 422.036 62.351C422.162 62.5053 422.225 62.7018 422.212 62.9006C422.199 63.0994 422.111 63.2858 421.965 63.4221C421.82 63.5584 421.628 63.6344 421.429 63.6348H421.427ZM407.632 52.953C407.505 52.953 407.379 52.9219 407.266 52.8624C407.153 52.803 407.057 52.7169 406.984 52.6118C406.912 52.5066 406.867 52.3854 406.852 52.2587C406.837 52.132 406.853 52.0036 406.899 51.8845C407.252 50.9638 407.659 50.0424 408.109 49.146C409.104 47.1632 410.203 45.2345 411.402 43.368C411.516 43.194 411.693 43.072 411.896 43.0286C412.099 42.9851 412.311 43.0238 412.486 43.1362C412.66 43.2486 412.784 43.4254 412.828 43.6283C412.873 43.8311 412.836 44.0434 412.724 44.2187C411.555 46.038 410.484 47.9179 409.513 49.8505C409.087 50.7012 408.701 51.5755 408.366 52.4451C408.31 52.5942 408.21 52.7227 408.078 52.8134C407.947 52.9041 407.792 52.9528 407.632 52.953ZM417.758 37.0042C417.607 37.0042 417.46 36.9608 417.333 36.8791C417.206 36.7974 417.105 36.681 417.043 36.5436C416.98 36.4062 416.958 36.2538 416.98 36.1044C417.002 35.9551 417.066 35.8152 417.165 35.7014C419.271 33.2933 421.535 31.0294 423.944 28.9248C424.101 28.7875 424.307 28.7184 424.515 28.7327C424.724 28.747 424.918 28.8436 425.055 29.0011C425.192 29.1586 425.261 29.3643 425.247 29.5728C425.233 29.7813 425.136 29.9755 424.979 30.1128C422.623 32.1697 420.408 34.3835 418.351 36.7392C418.277 36.8231 418.185 36.8901 418.083 36.9358C417.981 36.9815 417.87 37.0048 417.758 37.0042ZM431.978 24.5227C431.81 24.5227 431.646 24.4688 431.51 24.3688C431.375 24.2688 431.275 24.128 431.226 23.9671C431.177 23.8063 431.18 23.6338 431.236 23.4751C431.292 23.3164 431.398 23.1798 431.537 23.0855C434.184 21.2989 436.931 19.6653 439.765 18.1927C439.857 18.1418 439.958 18.1098 440.062 18.0986C440.167 18.0873 440.272 18.0971 440.373 18.1273C440.473 18.1575 440.567 18.2076 440.648 18.2745C440.728 18.3414 440.795 18.4238 440.844 18.5169C440.892 18.61 440.921 18.7119 440.93 18.8165C440.938 18.9211 440.926 19.0264 440.893 19.1261C440.86 19.2258 440.808 19.3179 440.739 19.397C440.67 19.4761 440.586 19.5406 440.492 19.5867C437.711 21.0324 435.015 22.6355 432.417 24.3883C432.287 24.4758 432.134 24.5227 431.978 24.5227ZM448.768 15.7585C448.585 15.7586 448.407 15.6946 448.266 15.5775C448.125 15.4605 448.029 15.2977 447.995 15.1175C447.961 14.9372 447.991 14.7508 448.08 14.5905C448.169 14.4301 448.312 14.306 448.483 14.2395C451.454 13.0802 454.484 12.0766 457.561 11.2329C457.762 11.178 457.977 11.2052 458.158 11.3087C458.339 11.4121 458.471 11.5833 458.526 11.7845C458.581 11.9857 458.554 12.2005 458.451 12.3817C458.347 12.5628 458.176 12.6954 457.975 12.7504C454.951 13.5787 451.972 14.5649 449.052 15.7051C448.961 15.7404 448.865 15.7586 448.768 15.7585ZM494.811 11.4712C494.744 11.4712 494.678 11.463 494.614 11.4468C491.745 10.7187 488.822 10.2244 485.874 9.96868C485.771 9.95938 485.671 9.92993 485.58 9.88199C485.489 9.83405 485.407 9.76857 485.341 9.68928C485.275 9.60999 485.225 9.51845 485.195 9.41989C485.164 9.32132 485.153 9.21766 485.162 9.11483C485.171 9.01199 485.201 8.91199 485.249 8.82054C485.297 8.72908 485.362 8.64797 485.441 8.58182C485.521 8.51568 485.612 8.46579 485.711 8.43502C485.809 8.40426 485.913 8.3932 486.016 8.40249C489.049 8.6665 492.055 9.17501 495.007 9.92308C495.192 9.97044 495.354 10.084 495.462 10.2425C495.57 10.401 495.616 10.5934 495.592 10.7836C495.568 10.9738 495.475 11.1486 495.332 11.2752C495.188 11.4019 495.003 11.4715 494.811 11.4712ZM467.036 10.7636C466.837 10.7647 466.646 10.6908 466.5 10.5567C466.354 10.4226 466.264 10.2381 466.248 10.0404C466.232 9.84268 466.291 9.64624 466.414 9.49048C466.537 9.33472 466.714 9.23114 466.91 9.20052C470.062 8.6875 473.242 8.35674 476.432 8.20987C476.535 8.20426 476.639 8.21932 476.736 8.25414C476.834 8.28897 476.923 8.34287 477 8.4127C477.076 8.48253 477.138 8.56689 477.181 8.66085C477.225 8.75481 477.249 8.85648 477.253 8.95994C477.257 9.06308 477.242 9.16614 477.207 9.26321C477.171 9.36028 477.117 9.44948 477.048 9.5257C476.978 9.60192 476.894 9.66368 476.801 9.70744C476.707 9.75121 476.606 9.77612 476.503 9.78077C473.373 9.92473 470.254 10.2495 467.162 10.7533C467.12 10.7588 467.078 10.7609 467.036 10.7596V10.7636Z" fill="#1E1E1E"/>
</g>
<defs>
<clipPath id="clip0_396_230">
<rect width="662" height="730" fill="white"/>
</clipPath>
</defs>
</svg>
